<mxfile host="app.diagrams.net" modified="2023-07-01T07:14:56.575Z" agent="Mozilla/5.0 (Macintosh; Intel Mac OS X 10_15_7) AppleWebKit/537.36 (KHTML, like Gecko) Chrome/114.0.0.0 Safari/537.36" etag="_iKwOewke23InBHEez8d" version="21.5.2" type="device">
  <diagram id="OuX8tg4hPJ7juxUdhPPa" name="Page-1">
    <mxGraphModel dx="1306" dy="719" grid="1" gridSize="10" guides="1" tooltips="1" connect="1" arrows="1" fold="1" page="1" pageScale="1" pageWidth="850" pageHeight="1100" math="0" shadow="0">
      <root>
        <mxCell id="0" />
        <mxCell id="1" parent="0" />
        <mxCell id="nubfaejIt5fdmvec-X7_-2" value="" style="rounded=1;whiteSpace=wrap;html=1;fillColor=none;strokeWidth=2;arcSize=8;" parent="1" vertex="1">
          <mxGeometry x="1" y="1" width="861" height="305" as="geometry" />
        </mxCell>
        <mxCell id="cJ-756JFJZ41Q-hjwV2Q-50" value="" style="rounded=0;whiteSpace=wrap;html=1;strokeWidth=2;strokeColor=#990000;fillColor=#FFCCCC;" parent="1" vertex="1">
          <mxGeometry x="694" y="37" width="129" height="200" as="geometry" />
        </mxCell>
        <mxCell id="cJ-756JFJZ41Q-hjwV2Q-30" value="" style="endArrow=classic;html=1;rounded=0;strokeWidth=2;" parent="1" edge="1">
          <mxGeometry width="50" height="50" relative="1" as="geometry">
            <mxPoint x="97" y="147.26" as="sourcePoint" />
            <mxPoint x="212" y="146" as="targetPoint" />
          </mxGeometry>
        </mxCell>
        <mxCell id="cJ-756JFJZ41Q-hjwV2Q-31" value="File&lt;br style=&quot;font-size: 12px;&quot;&gt;Operations" style="edgeLabel;html=1;align=center;verticalAlign=middle;resizable=0;points=[];fontSize=12;fontStyle=1;labelBackgroundColor=#F8F8F8;" parent="cJ-756JFJZ41Q-hjwV2Q-30" vertex="1" connectable="0">
          <mxGeometry x="-0.18" relative="1" as="geometry">
            <mxPoint x="2" y="1" as="offset" />
          </mxGeometry>
        </mxCell>
        <mxCell id="cJ-756JFJZ41Q-hjwV2Q-35" value="" style="rounded=0;whiteSpace=wrap;html=1;strokeWidth=2;fontSize=12;" parent="1" vertex="1">
          <mxGeometry x="459" y="86" width="120" height="150" as="geometry" />
        </mxCell>
        <mxCell id="cJ-756JFJZ41Q-hjwV2Q-38" value="" style="endArrow=none;html=1;rounded=0;strokeWidth=2;startArrow=classic;startFill=1;endFill=0;" parent="1" edge="1">
          <mxGeometry width="50" height="50" relative="1" as="geometry">
            <mxPoint x="342" y="147.26" as="sourcePoint" />
            <mxPoint x="458" y="147.5" as="targetPoint" />
          </mxGeometry>
        </mxCell>
        <mxCell id="cJ-756JFJZ41Q-hjwV2Q-39" value="API Calls" style="edgeLabel;html=1;align=center;verticalAlign=middle;resizable=0;points=[];fontSize=12;fontStyle=1;labelBackgroundColor=#F8F8F8;" parent="cJ-756JFJZ41Q-hjwV2Q-38" vertex="1" connectable="0">
          <mxGeometry x="-0.18" relative="1" as="geometry">
            <mxPoint x="10" as="offset" />
          </mxGeometry>
        </mxCell>
        <UserObject label="" lucidchartObjectId="-J4vkSjj1bn~" id="cJ-756JFJZ41Q-hjwV2Q-6">
          <mxCell style="html=1;overflow=block;blockSpacing=1;whiteSpace=wrap;shape=image;fontSize=13;spacing=0;strokeColor=none;strokeOpacity=100;strokeWidth=0;image=https://images.lucid.app/images/c7419ddd-ba77-4bee-ac52-31558b19fdaf/content;imageAspect=0;" parent="1" vertex="1">
            <mxGeometry x="33" y="108" width="68" height="68" as="geometry" />
          </mxCell>
        </UserObject>
        <mxCell id="cJ-756JFJZ41Q-hjwV2Q-28" value="" style="rounded=0;whiteSpace=wrap;html=1;strokeWidth=2;" parent="1" vertex="1">
          <mxGeometry x="214" y="36" width="129" height="200" as="geometry" />
        </mxCell>
        <mxCell id="cJ-756JFJZ41Q-hjwV2Q-26" value="" style="shape=image;verticalLabelPosition=bottom;labelBackgroundColor=default;verticalAlign=top;aspect=fixed;imageAspect=0;image=data:image/png,iVBORw0KGgoAAAANSUhEUgAAA/IAAAE4CAYAAAD4jsjDAAAABGdBTUEAALGPC/xhBQAAQABJREFUeAHsnQl8FdX598+Ze3MTIEE2N9zrAtTkJiEsKl0QqyVBEKlY927W7tW21mpba7ppbau2trWt/u3bilYrsghCqHVBW1TAQBas4FJrUdwIKgkkucvM+zsJgQA3yV1m5szc+c3nk9y5M+ec53m+59yZ85xVCB4kQAIkQAIkQAIkQAIkQAIkQAIkQAK+ISDT0vTeNUcIU54lLDFdCOsYYcnR+ByWVlzHA8n3hLS2CCFfEVKsEIb1oDh/0mbHxVIACZAACZAACZAACZAACZAACZAACWgg0L8jf1/DCSIRv0FY1hwNumUvUsqFIlxwjTiv4oXsE2FMEiABEiABEiABEiABEiABEiABEvAegdSOvGVJcfez16Gn+3vohQ97T+00NJIigZEDPxUXTfihkNJKIwaDkAAJkAAJkAAJkAAJkAAJkAAJkIDnCezvyC99drB435rnu174vlCr3vkD5MVi5oSdfQXhdRIgARIgARIgARIgARIgARIgARLwCwFjL0VVT3w+OfHKODUtoNum/Rst9jKeX0iABEiABEiABEiABEiABEiABEjA+wRCe6l43Jm18Hy/tNe1/PgyTjS9IcSiO1bmhzm0ggRIgARIgARIgARIgARIgARIIKgE9vRSdy1sF3vOt3PiB8pBNWc+HDmRC+ANBIr3SYAESIAESIAESIAESIAESIAEvExgz9D6rtXpfbqwXTqE1aJ9ykYeJEACJEACJEACJEACJEACJEACJOBjAt098mqf+IT4n4/tSF/1sDiS+8ynj4shSYAESIAESIAESIAESIAESIAEvEWgu0felGd5Sy0HtQmSrQ5iZNIkQAIkQAIkQAIkQAIkQAIkQAJ6COxy5EW1HvEapFpiugapFEkCJEACJEACJEACJEACJEACJEACthDoduSldbQtqfkiEesYX6hJJUmABEiABEiABEiABEiABEiABEggBYFuR96So1Pcy89LQbI1P3OQVpEACZAACZAACZAACZAACZBAoAl0O/LCGhYcCkGyNTi5SktJgARIgARIgARIgARIgARIICgEdjnyQTGXdpIACZAACZAACZAACZAACZAACZCAvwnQkfd3/lF7EiABEiABEiABEiABEiABEiCBgBGgIx+wDKe5JEACJEACJEACJEACJEACJEAC/iZAR97f+UftSYAESIAESIAESIAESIAESIAEAkaAjnzAMpzmkgAJkAAJkAAJkAAJkAAJkAAJ+JsAHXl/5x+1JwESIAESIAESIAESIAESIAESCBgBOvIBy3CaSwIkQAIkQAIkQAIkQAIkQAIk4G8CdOT9nX/UngRIgARIgARIgARIgARIgARIIGAE6MgHLMNpLgmQAAmQAAmQAAmQAAmQAAmQgL8J0JH3d/5RexIgARIgARIgARIgARIgARIggYARoCMfsAynuSRAAiRAAiRAAiRAAiRAAiRAAv4mQEfe3/lH7UmABEiABEiABEiABEiABEiABAJGgI58wDKc5pIACZAACZAACZAACZAACZAACfibAB15f+cftScBEiABEiABEiABEiABEiABEggYATryActwmksCJEACJEACJEACJEACJEACJOBvAnTk/Z1/1J4ESIAESIAESIAESIAESIAESCBgBOjIByzDaS4JkAAJkAAJkAAJkAAJkAAJkIC/CdCR93f+UXsSIAESIAESIAESIAESIAESIIGAEaAjH7AMp7kkQAIkQAIkQAIkQAIkQAIkQAL+JkBH3t/5R+1JgARIgARIgARIgARIgARIgAQCRoCOfMAynOaSAAmQAAmQAAmQAAmQAAmQAAn4mwAdeX/nH7UnARIgARIgARIgARIgARIgARIIGAE68gHLcJpLAiRAAiRAAiRAAiRAAiRAAiTgbwLBdOTvfy7i72yj9iRAAiRAAiRAAiRAAiRAAiRAAkElEExHPt55aFAznHaTAAmQAAmQAAmQAAmQAAmQAAn4m0AwHXkpRvs726g9CZAACZAACZAACZAACZAACZBAUAkE05EXSTryQS3xtJsESIAESIAESIAESIAESIAEfE4gmI68KenI+7zgUn0SIAESIAESIAESIAESIAESCCqBYDrywpoS1Ayn3SRAAiRAAiRAAiRAAiRAAiRAAv4mEFRHvlpw5Xp/l1xqTwIkQAIkQAIkQAIkQAIkQAIBJRBMR94SQ0W849SA5jnNJgESIAESIAESIAESIAESIAES8DGBYDryKsMsc7aP842qkwAJkAAJkAAJkAAJkAAJkAAJBJRAcB15YZ0r7n/2gIDmO80mARIgARIgARIgARIgARIgARLwKYFdjrx8z6f6Z6+2JUaImHl19gkwJgmQAAmQAAmQAAmQAAmQAAmQAAm4T6DbkZfWFvdFe0Li5eLuxsM9oQmVIAESIAESIAESIAESIAESIAESIIE0CPT0yL+SRtj8C2KJQULEfph/htEiEiABEiABEiABEiABEiABEiCBfCWwq0derMhXA9Ow6zPinrVnpRGOQUiABEiABEiABEiABEiABEiABEhAO4FuR96wHtSuiS4FLEsKS9wt7n62TJcKlEsCJEACJEACJEACJEACJEACJEAC6RLoduTPn7RZSLkw3Uh5F86yioUwl4i/Pjsq72yjQSRAAiRAAiRAAiRAAiRAAiRAAnlFYNccedhkie8KKRJ5ZV0mxljiaGGaS+nMZwKNYUmABEiABEiABEiABEiABEiABNwmsMeRv3jiJmHJn7qtgKfkWeIkOPNrOczeU7lCZUiABEiABEiABEiABEiABEiABHoRkL3O0SuP+eL3PPsAPufsdT1oX6Rsw+iEi8SFE4O7dkDQ8pz2kgAJkAAJkAAJkAAJkAAJkIBPCOzpkVcKS2mJA+TFgZ4vrzioOfOWWCTuXnsn95lXQHiQAAmQAAmQAAmQAAmQAAmQAAl4hcDePfI9Wqme+bufvU5I63twaMM9lwP5KUU77P61iBg/E+dOeD+QDGg0CZAACZAACZAACZAACZAACZCAZwikduR71Ju3dgyGmF8f+KH2iocU2/DvfiGNxaKg6HFx7omxHkz8JAESIAESIAESIAESIAESIAESIAG3CPTvyPdoce+aI4Qpz0Lv/HSMOz8Gi+KNxuewntuB+5RiO5z6OvytEtJ8XcjwG2CzRRQUvkEHP3ClgQaTAAmQAAmQAAmQAAmQAAmQgKsE0nPkXVUJwu5/LiLCRolI7ByODfGOw0ryY3H1VDQenA6HeZDb6lCeEwRkHKMc2pCfrcjXd9Eo8pIwxCZI2ihC8ilx3oSXnZDKNEmABEiABEiABEiABEiABEjA7wS86cj3RXXps4Ph9p0Bx/4sOH4YIWAN7ysor/udgPwf1mh4DM79QnHoxDpxqkz43SLqTwIkQAIkQAIkQAIkQAIkQAJ2EPCXI9/b4rtfHCrEu9/GMP9vokd3cO9bPM83AvIdOPX3ClnwW3Fh5Yv5Zh3tIQESIAESIAESIAESIAESIIFMCPjXke+xct6zh8KRr4Wj9zkM0w71XOZnPhKQJqzCgoPyenHRhOZ8tJA2kQAJkAAJkAAJkAAJkAAJkMBABPzvyPdYeO+6CSKRWIyvh/Vc4meeEpDSQuPN/4nIkKuxuCB2E+BBAiRAAiRAAiRAAiRAAvoJVFVVHxuLybMsyzoV2hyOauto7Ow9TErxNq5twfTgVwzDqisqGvTQmjWLWvRrTA38SiB/HHmVA92984vg5E32a4ZQ74wItAgDUysunHhXRrEYmARIgARIgARIgARIgARsJFBWVj3bssR18EMq0klWSplEuL8bhvh+Y2Pd+nTiMAwJ9CaQX468suzxV4rE61vvwEJ4F/U2lOd5TeAeUTjki+idb8trK2kcCZAACZAACZAACZCApwhUVNRUJBLm76DUKVkqZsGp/2s4LL6xfn3dO1mmwWgBJJB/jnxPJt69dh6d+R4YAfiUcpMIF8wS51W8EABraSIJkAAJkAAJkAAJkIBmAqWlNedi6Pz/w5B5Gxbelq+iN3/Whg0rmjSbRfE+IWD4RM/M1Txs1OcxB2V15hEZw5cELGuMSMRXibvXTPSl/lSaBEiABEiABEiABEjANwTKyqZfLYT5N3uceGW2dRTm0T9VXl59hm8gUFGtBPK3R15h7Zozb67FGRfA01rMXBQuJYbXh2aLi8Y/6qJUiiIBEiABEiABEiABEggIgWh0+nmmKe51xly5PRIxTlq3btnzzqTPVPOFQH478iqX1Gr2ycQz3JouX4psGnZ0OfPWNHHRJNWIw4MESIAESIAESIAESIAEbCFQVjajCj3x/0RP/CBbEkyZiHw5HC6c0NCw+L2Ut3mRBEAgf4fW92Tv+eOfFZa8s+crPwNAwLKKMa1iubiv4YQAWEsTSYAESIAESIAESIAEXCAA5x2doOYfnHXilSHWsclkJ1bA50ECfRPIf0e+y3ZZC8duZ98YeCfvCFjWKMyZXyLufw5OPQ8SIAESIAESIAESIAESyI0AVqg/F078hNxSSS82trL7cjQ685j0QjNUEAkEw5G/eMIbQlo3BzGDA22zWgCvc8cfAs2AxpMACZAACZAACZAACdhCwDStH9qSUFqJWBHTjH83raAMFEgCwXDkVdaWDP25kPLdQOZysI2+UNyz9pJgI6D1JEACJEACJEACJEACuRAoK6spQy/5mFzSyCLunLlz54ayiMcoASAQDoCN3SaeNbYVW5M9iC+fDozNNLSbgCVuwhD7h8S5J24jkmATqK2tNRYvbjjSsuJjkklrDPZ+PQ5D5IZJKUtApgTn+JSYjmGVdF/rWm8hhnutuNeKe22Ioz7xXeDTajUM43Xc34TdEjaNGFH0wsqV87FzAg8SIAESIAESIIH8ImDN1mDPiBdfbP8w5K7UIJsiPU4gOI68ygjDeFAkzU97PE+ont0E1Hz52I6fIdnL7E6a6XmXQDRafTjWpPkIHPAPYl9W1YI+5oEHnjken0U9WsMZ7zoQpucSPrvP91yz1HNyMP4OVve6g+4Jb2L/me7DFFu3xkVZWXWXY49wmwxD4s96NhQ6Yk19/e3xXQH5QQIkQAIkQAIk4D8Cp+lQOZlMKLkrdcimTG8TyP/t53rzX/rsYPG+uRV1cQe3i+gtkOeeIYBuVPSilouLJjR7RicqYiuBaPTsg6TsOBXz106FAz8NTrdy2j1xoCFhBxT5J8rg49DtsXPOmbQOowN6WgA8oSOVIAESIAESIAES6JsAGupfRiP/B/oO4cwdjBD8S3Nz3aedSZ2p+plAsBx5lVN3r30QXWqz/Jxp1D1bAvI+cfHE87ONzXjeIqDmjG3atON0bANTrRx3vFxLvaVh39rgpYx9Ya0noPejBQUFC9avX7Kl79C8QwIkQAIkQAIkoJsAHPmdqGu43hmIOsM/4Mifodt+yvcegSA68lfAkb/Fe1lBjZwnIE1hhMeKCytfdF4WJThFAFu/VCSTAgsYWhfghYrh7n4/UC6FeAT2zDOMAxc1Nc1Tvfc8SIAESIAESIAEPEJg6tS5xVu3tmJtHB2HbNiwoa5Sh2TK9DaBYM2RV3lhGBsFvAAeQSRgGcKKfxWWXx5E6/1sc2XlrNGYI3YhHPdLEgnTNz3v6TFHuRRCtbSfYZrvtKHFfwFmgsybM+ekxzn8Pj2CDEUCJEACJEACThKACx9yMv3+0sb0PG2y+9OL9/QTCF6P/P31x4nOJHtk9Zc9TRrId8ThE0aLU2VCkwIUmwGBsrIZH7Os5JWYW44h9F0Obwax/R0UQ+legwW3h0KFv2loWIyh+DxIgARIgARIgAR0EKiqmntAZ2erlncx6gPNGFof1WE3ZXqbQHD2ke/Jh/Bg7iXfwyKQn9aB4o211YE03SdGo9ddYsX5meiZfgZO/D+g9seD5sSrrAIHrLpv/SiR6HwVe9feoBbz80kWUk0SIAESIAESIAESIAGHCQTPkU+Ymua3OJyTTD59AqaYk35ghnSLgNrjvby8+pPRaE0DVp5fAid2sluyvS3HGmpZ5tWW1fHf0tLqX6lt9bytL7UjARIgARIgARIgARJwmkDwHPlzT4w5DZXpe5xA19ZkHtcxQOopBz4anf6pBQtWP59MWvfBgefwsRT5Dy5YKde6HNvWv4zRCrdXVtYclSIYL5EACZAACZAACZAACQSAQPAc+QBkKk0ciIB1pLjv2WMHCsX7zhMoLa2Z8MADq5+Bc/pnOKonOC8xHyRYEbD6fCJh/Rv8rsE2fJF8sIo2kAAJkAAJkAAJkAAJpE+Ajnz6rBgynwgkrVPyyRy/2VJRMXsYhonfhh7m1fib6Df9vaAvnPnBQpjXb9zY2oQRDad5QSfqQAIkQAIkQAIkQAIk4A4BOvLucKYU7xEY6z2VgqGRGkafTHZsggP/JfzxGZRjtluWGIMRDY+gYeRetU1fjskxOgmQAAmQAAmQAAmQgA8IsBLtg0yiig4QMMUYB1Jlkv0QKC+feWJZ2fQnu4fRC67A3g+r7G5Z58Xj8Y1YDO8Kte5AdmkwFgmQAAmQAAmQAAmQgB8IsLLnh1yijg4QsI5zIFEm2QcBLM72edNMrEXv8Yf7CMLLthCwSrDi/y1YOPDh0tJZB9uSJBMhARIgARIgARIgARLwHAE68p7LEirkDgE53B05wZYydercYvTC/xXzuW/HH1Zd5+EGAbDGnPl4A3rnp7khjzJIgARIgARIgARIgATcJUBH3l3elOYVAlKUeEWVfNWjsvLM8paWtnr0wp+frzZ62y7rEExj+Ec0WoOR9hxq7+28onYkQAIkQAIkQAIkkBkBOvKZ8WLovCFg0ZF3MC/Lymq+EI8nnkHPMLeUc5DzwElbhmma1z3wwDOPTJxYc8jA4RmCBEiABEiABEiABEjADwToyPshl6ij/QQsEbY/UaZYXV1diPnw91iW+QfQKCIRzxA4taPDaqiomMFtFz2TJVSEBEiABEiABEiABLInQEc+e3aMSQIk0IvAlCmzSl57TSxHL/wFvS7z1CMEkC8HJ5PmI+XlNWd6RCWqQQIkQAIkQAIkQAIkkCUBOvJZgmM0EiCBPQTUCunbt8efgLM4bc9VnnmNAPJnEIbaL8LUh894TTfqQwIkQAIkQAIkQAIkkD4BOvLps2JIEiCBFATKymZ8ACukr4KTWJniNi95jAAWHwxj6sOfMAXiOx5TjeqQAAmQAAmQAAmQAAmkSYCOfJqgGIwESGB/AhUVNRVCmE8JYR27/11e8TIBNLz8DD3zN+NTellP6kYCJEACJEACJEACJLA/ATry+zPhFRIggTQIwAn8SCJhqeH0B6cRnEE8SAA989+IRmfcxe3pPJg5VIkESIAESIAESIAE+iFAR74fOLxFAiSQmoDqiYcDvxQ98UNTh+BVvxCAM3/RggWrf+8XfaknCZAACZAACZAACZCAEHTkWQpIgAQyIqDmxCeT1go68Rlh83RgNMpchjnzP/K0klSOBEiABEiABEiABEhgNwE68rtR8IQESGAgAmp1evTgPszh9AOR8t995Om1mC7xFf9pTo1JgARIgARIgARIIHgE6MgHL89pMQlkRWDy5OqhUsbruLBdVvh8EQnO/K2lpTXn+kJZKkkCJEACJEACJEACASZARz7AmU/TSSBdAtXV1YU7dliL4ehxi7l0ofkynIV3gjUvGp1+mi/Vp9IkQAIkQAIkQAIkEBACdOQDktE0kwRyIfDaa+JPiH9qLmkwrl8IWBHTlIsqK6s/6BeNqScJkAAJkAAJkAAJBI0AHfmg5TjtJYEMCWCo9RfRE39BhtEY3NcErJJ4XMyvqpo52NdmUHkSIAESIAESIAESyFMC4Ty1i2aRAAnYQEBtM5dImLfYkJTXk3hDSvkCGixa8NkKZVultPAp2/AXwQJ/JfgssSxRgus4F0dbljwOw9ALvW5Y9vpZH4zF4r9D/M9knwZjkgAJkAAJkAAJkAAJOEGAjrwTVJkmCeQBgSlTZpW8/378fphSlAfm7DJBmlKK9XDIH8dnA5zxTUOGWC+sXl23PVMba2trjQUL1h4thDkGTv44OPUfQkPAR5HOiEzT8mp4cPp0NFr9eFNT3V1e1ZF6kQAJkAAJkAAJkEAQCdCRD2Ku02YSSIPA9u2xPyLY8WkE9XqQzehlXwwlHxPCeKK5edm7digMR95EOv/Z9YfV/MXNyrlftGh1eTIppqGh4OO4Ng3OfQifvj2g/23jx89Yu27dsud9awQVJwESIAESIAESIIE8IyDzzJ70zJm3xkovIEPlNYGLJwWz/KeRqWVl1ZfBgVOOvE8PqYbGL4ADP6+xcTl636WW33xV1ZxDOzvbL4BTfwl4Rn0KU4DfhuLi4klPPz2/3a82UG8SIAESIAESyJZAVdXcAzo7W9/LNn4u8fAObm5urvNtHSIX2xm3fwLske+fD++SQOAIlJfPPDGZjP/an4bL5w3DurGgIDy/vn7pTmUDXoDaTKmvX/gGhN+k/iorzyxPJJKXYwj+RRiyXqBNqSwEoxGitK2tTZWJy7KIzigkQAIkQAIkQAIkQAI2E+Cq9TYDZXIk4GcCcNhkMpn4A2zw1bx4+OrrDMM4p7l5+YlNTSv+0uPEeykv1q9/qBEt6p+NRAqwSJ5xG3Tr8JJ+A+mCsnFpefn0Dw0UjvdJgARIgARIgARIgAScJ0BH3nnGlEACviEQjc74lFq0zS8Kw4HfiL8Zzc0rqpqalquh9FqG0GfCC40M/9uwYflXBg0yjul26KWaa++HQ2J/+dumTq3lSC4/5BZ1JAESIAESIAESyGsCdOTzOntpHAmkT6CsbMZwOPE/Tz+GvpBw2HfCgb8mEjkyCid+uT5Nspe8du3yN5VDL6UxCamsyT4l92KiV76spWXN192TSEkkQAIkQAIkQAIkQAKpCNCRT0WF10gggASkNK+Ho3ag102HA/9gJBIeBwf+Z/X1t8e9ru9A+mEV/fpzzjnpZDj0X0QDhS0r6g8kM5f7lmX+sLz8zMNySYNxSYAESIAESIAESIAEciNARz43foxNAnlBoLS0ZoJpenshMzi57ZgH/3k48LPV8PS8AL/LCLWVHeb3/7GoKFKOS0953LZi00zc7HEdqR4JkAAJkAAJkAAJ5DUBOvJ5nb00jgQGJqD2PsfU8t9jWL1nnwfdc+GNSZgH/38DW+TfEGvXPrh51KiTPopGCzXFwbPz/bHq/rlo/Dndv6SpOQmQAAmQAAmQAAn4m4BnK+7+xkrtScA/BBYsWKP2OJ/gVY3h1N4j5YETmpqWbfCqjnbqtXJlbQKr238HjRdnenuovfUr1Qhkp+1MiwRIgARIgARIgARIID0CrISlx4mhSCAvCXQ7YtY1XjXOMMQNcGovamqat8OrOjqll1rEzzDCH4Yz/7pTMnJL1/rgwoWr5+SWBmOTAAmQAAmQAAmQAAlkQ4COfDbUGIcE8oTAwoXPnIve+BM8aI6F+fBXYE/473pQN9dUamxc+hwW9jtFTS1wTWgGgjDEPtD5kwEqBiUBEiABEiABEiABWwm4tx/wjxcdK+LmKZj1ORYWjMHfcZgCOlxYsgSfxfheYKtl/SR28PJ/9XNX1y0prJD6CwkzHBLJoohIDB4kkiWDRXzkMJEYOkSXYpSbpwTgwMtotAaOmLemYsNpjWMF909hPvy9eYo+I7PUwn6TJp39oZ0729U2e2qrOs8cKEOVZWXTa/y6BaBnQFIREiABEiABEiCBlARUfXXChFlHdHYmx2BNJ/iQEjvnmCW4XII6o/Ij8af8SRFG2Fact+I6PkWb+sS1rYYRekEIY9Po0YmX6urqOlMK8uFF5xz52sfDwmyphqOOoZfWNNGZPDI1H285Eal1dOOqJWRS/ZnCiMVFeGeHKNy2fbdgM1IgYgcUi45DRonYYQdiWTIOptgNhydZEcAWYjPxcCvLKrJzkSw68fvDXbNmUUtV1dwzYrG2J5Fn0f1DaL3yfUhXjQw8SIAESIAESIAESCBrAqjjyPHjZ0YTicQ0JHISRv6NQafT8bg+WCWK7+q/+ofD2vW9+7zrUte/Pde7wwuRTCZxJyk2b5ZmWVn1f/FlExz+Rtx/rLAwtAqdJju7ovrsn7Rd3+8/cLyQ4qtgez7S9uSe1Ae//D/bzXYzQStsiI5RI8TOYw8XCTj3PLIkcPEk+8t/lqroiFZaOn015Hqqh7d7OP3yX+vg4QeZVVVzDo3Fdq7Ci+cYL+kbCoWmNTYue9xLOlEXEiABEiABErCLABrTD+jsbH3PrvQySQdr5TRjvSCvNeJnYkK/YaPRWehlj51mmhLOuzUVgUf2G8H2mzKGnv7V6Eh6TDn2I0dOekotPGy7GAcStM+RuXYxevaSapjuuXDiPd1d7HdHvnc56BxxgNgx5igRHz6092Wep0MgwI5899Zh5sPpYHIrjFrYLuhz4tNhXVFx5vHJZOJfeNkclE54N8KgkvEoKhkfc0MWZZAACZAACZCA2wToyNtLvLR01sFSxi5Ar/jF6G2vtDf13FLDcPy3MTDgXiw4fFdT09J1uaXmbOzcHfnaFSNEou1nyIhL4cTnnp6z9nalnk+OfA+u9oNGiLay44RZGOm5xM+BCATaka/+O36vZwyEyK37cATvUavTuyXP73IqKqZPTCTkP5GHhV6xJRSS4xsb69Z7QZ+qqpmjYrHkmeCDxgXrSDR6HIoyNhKfW/GC3oJKgxqW9bCUoWXNzcve9YLOunSorq4ufO016zRUWrDdoXU89DhU8cI7Xc0tVKy2oJdiFb4vBqv/6NJTt9y5c+dGXnqp7bh43MIcza51ftQ8zSOgVzF4YW6mhbmaXXM0gax7biaugaF8H5//Ad8XMeLoxXBYvHjssYNfmD9/vhrn6Zvj5JPnjmhvbxtnmtZx6DU7XpUV2DQaBmBYoFrnSKrhgYNxvQPX1dxUzFG1MDdVvofPF3Efw1jFpqIiuWnt2uVv4jyQhypHL7yw81TTTM4EE7XQLH5vFn5vYifKyhZ84vcmnsJ83gcbGh4Ct2Af5eXVlaYpZuM3NR5cFKvR+AyhXClOb4BOM5aWWjJ79uSnsQuP6SQtOvK505069dNF27a9ifyUFyO1jyM/Q7mn6mwKKGfP4bc6LxwumLd+/RL1G/XUkZvjfe3CSzA54WY8xF0eApEbw3x05BURtVBe63FHiHYMueeRBoGAOvKYG38Y5grBkbE8MXIGD8mN3fvEB2+LuTRKaZ9ByspqvmJZ5m/7DOD6DfnrDRvqrnBdbC+B0Wi1mk/3I1yalk4FAWUPQ+ckRqYYP4CTWt8rqbw/7X4OJGph6Hn4U07YgAccjSaMnLm+oWH5/TjvmaQ4YDw/BlANHG+8EToZz0qUJTEN5k7Cp02L8ipH14KzJp9Euk+ecELJGjj2MS9xUuUDz5ePQM+PwJFSn+OgX251xt0Gyjfx23sMZehxVOgfC0ID0cSJNYe0t1s/AIILwTKtIZTKgUCZ+xkaue/J99/b7qKBk+7GRYn3m3U5WB3Z+15f52D1NornH4cOLfjFqlVLVEOS7Qcd+eyRTp06t3jr1rYvIIUrkaeHZJ+SvpgoY3Hl0BcUFNywbt2Sl/Rpsrfk7B7KtY8Xi8S2PyAz8EDy35GvjnxPTnSMGiZaK8cKs8C5tQx7ZPn6M6COPBb5uAovyBu9kHeonLSjt29SU9OyDV7Qx286IC/nIy/P8YLeqiI1cuRJh+mYV4Ye+CM7O+O3gEO2+9pjkUVxXyQy+Fv19QtVL0/eHqqS/Prr1nVwoK5A2RmUjaH43T4rROjrzc0PPZ1NfK/GUb1FLS1vYhFQeQnqN2qqSJEbuoKnmne7CD32fxs+fOKjOn5Dys7Kylmjk8k4tiQVn0TZOMkN25UM/Pb+i8a0+8JhCz1edf92S64bcqqqLiuIxTZ/H+XpW+Ca5fZDsgFl5PLm5uVPuqGzThmY9ncuWP0cf0dlowc4vYPydF1TU93vs4nfXxw68v3RSX2vomL2sGSy82t4nqBRxu1576l1yvUqyhhGU1lozA5d74W6a+aOfO3CE0TSXIJ58GNyhaErfr478oqr2r7uvapxWAwPI/54pCYQWEd++gZUKE5MDcXdq+jduxTz4u90V2r+SFMVC6xkvw4vyQ94w6rQmRs2LFvmpi7l5dM/hKG+C8Eg58VVUQHcgoFNsxsaVqx10wa3ZKlewY4Oa5EdThpYqd6Jr6K38Ha39HdKzq6RHJ9F+nPBZphTctJLV2KbJOuvGHH6azd6qjHUO7RpU9vZGDL/FeSn6nk30tPTmVCoJNejIeWucDhyV0PDYtXA4dujsrL6wETCWoD37YdzNUI5D0jnGxj19Jtc0/JifFUON27c8QuMAvmGHfrh+XRvcXHJ555+en67HempNOjIp0+yewj921fjuYL8TG8ESvqpeyYkOgDkYjRCXunGs7ovqzNz5K9dMBEJLcdw+lF9JeiH60Fw5FU+qKH278KZj6OHnkcKAgF05NV8s2TS8sTCHXjRPoj9x2enyBleyoBARcWMUxKJ5L8QJbPneQYy0g2KPL0fefrJdMPnGg5b0pyPisKf8bSL5JpWr/gdeDmfDwcVL+j8OcaPnzEuHjcfhqNq69wr5PnNyPNv+ZGUWvQTQ9u/ByYf9Z7+0oROi9Drc5MTIx+6h7ru+KyUJkZmiGM8aP92/A5vk7LwlqamRRg27a9j/PhZx8Vi8UfwbMqqZ7lva43bNmxYjkaX/Dl2rdOxGOVwup1Wofxg5JBxBpwsW9ZBoSOfXu6Uls6YgefKrXiueqSDIT29cwil6gw3HH64uFHH/vTpt7z+YNFpeCA95ncnPoeM8l1UiT0Thz/7nCh8Y6vvdKfCzhDAXEcMGdV/4KG3MxIp+Lp+TfyvQUPDsqfA8/95wRJUxGapyo4bunT3xNvuxCvV1XDqv8LJm+CGHW7ImDTp7JFw4h+y24lXuiPPv4ke7SvcsMMuGeXlNWd2b7/Z1bDhQSe+iyzqZ9YnLCvxFKbQPFpRUVNhh/1qqHdZ2fRvtLS0/U8I89fedOK77B+K3tmrLavjv6Wl1b9So0nssN+NNNQzMB6PPWS/E6+0N7+MZ9M1btjhlozNm8XtKIe2OvFKdzzv8AxP3j91ai3nmbqQmWqKG55Vi8BcvWuC4sQrskWw94ebN1sb0LlgezkeKOvSc+RVT7yVXIzh9GktiDOQUN53j4A0LXFA4yZRsPU994RSkicJdL/MrAu8oZz14/r6pahI8rCDQCQS/g7S2WZHWjmmURSP75ibYxoDRlcVBjWcHlU1O3vid8vFS3kQemoX+8l52K38Pifqd79zZ7taS8GxihUq4b/EaJ8z9hHtua9VVdXHwomtSybNpVBukucU7EMh5N00DNGuRyX5zqqqOWqF86wOxJ/d2blZLaB2M9IcnlUiLkdSv0X8zi/HQnGb4MB+XQ3BdlmFjMRh5XQjFmu9D4wdnH5q/QSNZ1j13v8H7LgS+etYBwPy4WPbtj1zk/9JedsCOLCXx2KJ5/F7ne1tTR3VDjt6mHV4x/ytrGyGa8/XgR15NSe+azg9nXhHs9/BxJUzP7z+eRF+35GFPB3UnEnbSaClZfXpeKlp33scQ3E3RiJH8sVqY+aiUQTbqklP9NLgRa62lXH0QIXhV5CT85z4/pRE+oe1t5tYdMnfR0vLms/BglOdtAKsQhgAdrsaIuuknGzTVvM1UdGs7ey01PogrveYZKv33vEsA5w/29m584XuHSvS3+534sSzjoATr6ZVoLesa4vBvZP2xTc1z9b89fPPtz1bVnbmyV5VeeHCZ7AnttNlzDIwpeiPaNAc7FUO6eiFhdCOxijBn6QTNpcwkPF1/P4n55IG46YmoBxWOK6L4cCqd7Kvy2NqCzO/it8/Fgw117tV5vp35NXq9F0L2/l7Tnzm2ZB/MdQw+2Fw5o14Iv+Mo0XpEqhON6CT4VDnv7K+/nYslMXDTgJNTcvvgDPfZGeaWaY1ZfLkalS6nTlUJR4VhrOdSX3fVOWFlZVnlu971S/fo9GLh4BVrTv6WkdhiOxX3ZGVvhQMoY9iJfoGVDSvQyw1bcLvB/atN38LZ36F2iJuIGNg/0UdHZ3NKAenDxTWH/etCkw3WIWe3F+qaQJe0lk1GMFp/LFLOh0ajyewkJh/D6xmDifecqXxD+Xf942yXstp/Aax3au5Ho7rWV7TTb8+1lFg8088p7/ptC79O/JqizlHhwc5bR7T700g1BETJes39r7E80ARsKbpNheO5voNLq9qrttmt+SDraX2+HZLXl9yUGEK7dhh5LxKc1/pC5H4Ud/37L5jGVhIsNbuVN1Lr+XLqCi7OLfY+q5yZtyzr39J6IW+DCFWo6Lp4DDn/nVw7q51hmkmm9EblnIqi5qnDfvnQ/482H+Ac3poSVmiR/pb2NbtycrKGpsXk8venq1b3/o8Yh+RfQqZxUSjwVVq0cLMYnkjdFnZzLF4V7g21Q+yPoLe4495w3r/a4F1K7CdovUk3i+e+f15jSqeuwVw5m8CqyVODrXv25H/wcJPIYMu9BoY6pMbgSLMlR/08mu5JcLYviNQWjrrYDxUTtStOJzNn+rWIZ/ln3325Plg/IJuG7FTkiONRhhKOgpbUzmSdl/M8LupnjJlli/38URFC3syu3qMePfdt7VXlpVzAwcXW7hZf4T1nmlYsDsnYN9wlM/7YeuPcb5714ruFdNbn8G1c+yW6aX0YN9JWDsAQ1g9M1/c5d+bNXTbtjafThVJqAao3WXWnXJlupw/7ljlphS1RgUaCG+Hf/hL5ai6Kdu/sqyZcOhXqSlOTtiQ2pGvXTFCmBbnsDpB3ANplry0WRidMQ9oQhXcImAYMUfnyKZnh3y+sXEZFijj4RQBLLSELavkDU6ln266TjnbsVhyJioQqd9b6SqXcTircPv2mO8qy3BuDoejU5WxuTlGwEJyWodZqr27sSL7SlQyz8/RFN9Eh63fR+X6ATVnurx8xqmxWEyNQhjrGwNyUBRlfDh65x9Er9fXckgm56iq3CGRU3JOKMMEkM9+XVxMx3NillqMMEPEDL6LgBpttXFj2wP4zamRJzwyImCNa2/vXKW2gc0oWhqBUxfoRNvPUFkamUZ8BvEhATVfvrj5JR9qTpWzJeCUY5WJPoZh3aiGf2cSh2EzJxCJHH4POGsedmOVqy3PMtd+oBjm6QOFcOa+1CQ3e2vwm1c94y73eCl99bGKRmceE4+LVToaMLLPKdtizunsTGAtgOTDSHGEban6IyGUc+tWOPM/0aUuhrlPc7+RUVnrv7UPTj557ggdv1HIPPjBB58t01VG/CxXTdVpaXnr72Do14YjL+A/Ap0R/7J7sc79HflrF6OQy0u9YDF1cI7AoLe3iYJ3tzsngCl7igAevrp75NsKCgrUfE0eDhNQCwmivWSew2IGSl5iga2pAwXK9D6cU0eGpg2sh6VJ7sCa9R1Cj84oe4fp6PVSi9qZZnwVHJvj+2aS73es49FDG853K/u2z/oeysEdOraow7PpyL71cu4O8vsgr+4W0ZfVra2th/d1z+nrWPTSh89yp6n0n76amhmLtT2JeuRH+g/Ju2kQQCNr8hGsaG/bKL/9HXmR/C5ehBpa8dMwn0FsJTBk06u2psfEvElg17yc43Rqhy3nHsAWaTt16hAk2ZZVcJduezEnzPbGI5Sj0XrskprkZm+tLlbKkXzggXWObg24L5Xy8hpskysfxfVD973H74EjcCmG//7ebatR7rWVvTfeKNQmOxvOhmFoe55iGoY22dmw0h2newea+Ao48VHduuSLfLAcjL+F5eXTP2SHTXs78t9/AC3Zri+OY4cdTCMLAoXb3sfe8m1ZxGQUPxHo6Ihpb0XFUG/dPcR+yrKcdW1uXroRzJ/NOaGcEpC2lzu8/A7KSaUsI6teryyjaouGCqtGnWMHu2V4ZeWs0cmk9TDqLqPckkk53iaA58Tn1QKA7mppuVbm97UL2/Fp/K3vq006301trNDg5zNW6fB0Jowa6bFjh/Ugnq0VzkgIbqp4Rg0yTbk0Gp1RmiuFvR15Ib+G7eb2uZarCMb3MoHBXMHey9lji25wQj5oS0LZJ7J5zpzJK7OPzpjZEEC+a+2Vh/wxdg9xReNEKBsWucZB77YWubnorVPnUMidfKqomD0skYivQEWTWyDlUljyMC6eP2oBwK+6ZRrkaXtGYH6+NtnZ8LXURqmaDowU8xUrTZiEmh61ebO4B/Kn6tIh3+XCmR9mWcm/57qF5p4fU+3jmFdlnZfv4Gjf3gSKtm4T2JB174v8lm8EtO6hDOdrMV4KLGQul6pQKKR5hwAr8p//tB3tstkUFxACqqKZTHYuQGWIi1cFJM8zNRPO9a9LS2fMyDQewztLAL9ZTt91FnHOqS9cuPp38Ak/kXNCTKBfAnhGjU4kzL+rrXX7DdjPzT2OvNlSjXCuzmvrRy/ecomATJgi8vo7LkmjGB0E0DOn1ZGHzY/psDvoMhsbH3odjSgv6OQQi1m6y55O8ynbQQILF675ARyCaQ6KYNK+J6C2qkz+xan9m32PR5MBeC9x9xpN7NMRG41O/zKmZn0xnbAMkzsBOPNjYrHEfapxOpvU9kSy5JxsEmAc/xMoenOr/42gBSkJqAcDKrsaF7qT6Ik3nkipHC86TgCNOLobUejIO57LwRMQjVZPQ0Xz2uBZTouzIDCyvT1279SptQFezT8LaowSSALl5dWVmLt9cyCN12g06umnPfDAM1m90/Y48oIt2xrzUKvoCBe808rfSeELF9aruaNFTsroL200vDc0Ny97t78wvOccAbyQH3cu9bRSpiOfFiYGSpeA2goJs8Ewd1P1tvIggXQIWFNaWlb/JJ2QDEMCQSUwZcqsEiwcej+erYVBZaDXbvmD8vIZGe/20/0i/PGiY7HI3ZF6DaB0XQSMWFyEt+/QJZ5yHSWQ1OpIYQidbkfSUbpeT7ygwNLKXw0Z8zoj6ucvAlLGbkVF8xB/aU1tdRPAs+jbpaU1E3TrQfkk4FUC778fvwO6aRzB6VUybullYd2X5D3R6NkZ7azQ7cjHrCluqUk53iRQ0PKeNxWjVrkS0OpIYfhrQ64GMH72BNavr3sHw+u3ZJ9CzjG1lr+ctWcCniIAR+x0OGTnekopKuMTApaBEWK/z3Yeqk+MpJokkBWBaLTmUjSQfjKryIxkJ4FDTbNjXiYJ7hqaxgWJMoGWj2FDrTvz0azA26R3frwQ4bDYFPhM0AwAjo/OPDgUq7EO1oyA4vOAALYyjMAR+20emEITNBHA+3ACVuP+gibxFEsCniSgeoDx2/iFJ5ULpFLWGdg688J0Te+ZY8Zek3SJ5Wm48M72PLUs6GbJYToJFBZKnU6kTtM9I9sw9OYB5ulrLYOeyQgqkhOBTZvavo3K5gk5JcLIgSeAhs2fVlZWc4emwJcEAughgB7gX+DZyvd0DxAPfOI59cuqqrkHpKNK9yqelnV8OoEZJn8JhDpi+WtcoC0zS/SZL99cvbpuuz75lLyLgNbGlGRSaCyDLAP5QEBVaGKx1m/ngy20QS8BOCzDEwl5JbT4jl5NgisdecB95D2S/dHojA+bZvISj6iTlhqYLviKELJejTYMheQmlCdstRtqC4WsVnQcJCwrWYzPEssyR2KdJtX4OwZhSxFvPMKG0hKiPZB1SCzW9mOo8fWBVOl25KUYhsXueASYgJFIBtj6fDZdFmPekxYD8dDUuoe5FqM9KBQvLq35YJoJOvIeLBd+Uikeb/sqKmJp9U74yS7qqocAytKXyspm/Iw7qujhr/aRx6FHOKXuJqC2ZMRuDrftvuDRE9Ql41CtDlsZL8Z0zcfWr1/+ajaqTp5cPXTHjtCHpTSnI/4nUQa9PjLnyxUVNX9qaFje71pTu3rkJSpa/FFlUzDyJY5EtxmP/COAB5VOJ6ol/4j6zyIpjRa0TGtTHC3mOsugNrsp2B4C0ejFQ0xz6xX2pMZUSEARsErgS16Ok1r1jYe7BFAvYY+8u8hTStu2bTUaSK3SlDc9cVG+CCf+1kgkfF99/dKtuaq0a4ToMqSzDI0Y34D91bD/C2hTmpFr2k7Eh26hREKodWE+1F/63XPkJYc+9gcpCPckNublkY8E9DlReDi25iNRv9mkhpvp1BmNCBgVwoMEsiNgWS1YnMwalV1sxiKB1ARQSf662jc79V1edZKA6pF3Mn2mPTCBqVM/XYRdha4aOKT7IVA+NhiGOP+ccyaPbW6u+60dTvy+VqxcWZtoaqpb2ty84sxw2KhEg8F8hPFgubSmYPTQx/bVv/f3bkfesrp75nvf4XmwCHiw+AYrA5yxFg8nbRUVvKu1OpDOEPVfquFwRGs+oPNFWxn0X25R430JoCHoS/te43cSyJUAHPnh27fHz8s1HcYnAT8S2Lbtzc9C70O9pDvqq+9j7vvXx44trmhqWnEftop0pYdRDV2HQ39uOCwx7F42eYmJ0gVz/r/Xn049q9b3F4b3SIAEfEtA59B6Q6sD6dsss1nxeFzqzgc68jbnaVCSq6iYcQpsPc4v9qISiH1cZadf9LVfT4nFTaUrlW87dMeosUvsSIdpZEYAjSgcWp8ZMltDV1VdVoDF4DzVGw8nfkVRkTF2w4a638yfP1/LXN+GhrpVaEQYj7n43/XYc2zqrndhynJARz4lFl4kgXwhoBa703bs0CaZgncTGDasom33Fw0nqLTpLIMaLKZIuwgkk55eTfkNVD7/GAoZM6UsGFdYWDIMw0CHoCJaNHjwoFFYmyKKCuEn4dzfg7/37GLinXRkg2EYPzSM0EcMo+ADRxwhi2D7AePGFUdCofDhWJRqkupdg+2PgVPCO3r31qRr2OoHel/hufMEUCY4BtR5zH1KiMVeuwj9vEf1GcDlG3g+3Dx2bMmZa9cuf9Nl0fuJU40IGzYsvwFFdCaeX57ZdSmZNL+/n7K7LnBIfV9keJ0E8oNADGYM0mOKFdEjl1J7E2htrdedD6oM8iCBjAhUV1cXvvaaONd70xblv1Dx/H5T0/In+3JI1qxZ1AJj1V8z/u5XPWCJxOszURn7CewZlxEIDwWGvaqn7M5QqPCGhobF/+2tWtOuAam7etNexz31txZ/v8Ecz+Gw+4tYLfo76AX30u4D6Bk24dSIH+GPBwnkPQE1GiIarbnaG4bKGJ4pX2xuXv7/mtWT0kMHhtovHz9+xkmxWHIJ1NI+Kgz5Vl1eXl3Z2Fi3fl9MAe2R56iefQtC8L5LtZ1FAA6d89S1jgYIQN6mZ2Jnp9456nhRax0RkB4lhvIagS1b5OmovMAB9MohX0Yv+2z0On8YPe9PoFyn3atYX397vLFx2UL0Vpch3mWwSDn5vjqg93IhwqWw/Qv7OvEDGaK2eVO9XIMGDToWi1jdivBpsxso7Vzvo2Hhk7mmwfgk4BcClZUzP4rnqtpbXeuBxtC3scjcqcqJ16pIP8LXrVv2fElJyWQ8+x7tJ5hrt5JJeWkqYYF05C2DjnyqwhCoa1IExLnQ6URxSLUXflOFhXGtQ9u56KEXSoH/dMBGKtO8ojUqnY/AiZ+ISueDueikeqvhCN+BoegTUTnckEtaLsa1oOt1GIFwZnPz0o25yFUjFbCI1eVIbw7S8cg72PrgxIk1h+RiF+OSgF8IeGS6UkskIk9paFj2lNe5Pf30/G0jR06ejmcW9rHXfZjnzZ07d78RlgF15ANptu4S6C35AdkaDS2v2hY6Q09HibcyPZjamGZIqyOPeWYeqbAHM//9ajVWq/eIIy9/j/mb01Wvsl0sm5qWvjJ0aMEpqByil9vLh+zEPPi5aHz4EXS1rRcd6S1Gw4iy/zUvWN/ZKU71gh7UgQScJHDyyXMHoV52jpMyBkobjaLxcDh8Tn193csDhfXKfbVVXSRSfD50z6kh0wZ7Rjz/fOt+e94H0qM1Q+yRt6FA+TwJy7ZKmbdB6HOi8NAb6m02wdAukTC1zkk1DH2NScHI4fyzsqpq5ihYhcXidB9yAXrhv7Jr3retyqxataS1uLj4HDiz9bYmbGNi+O1+AT3xC2xMcndS4NocDofOxHtC+6KopumVRqPdeHhCArYT2LFjx2zMatHcwWJ8raHhoZW2G+dwgvX1898vKIhgYVOp1XeA/Iv3NTWQjnyyILwvB34PHAH5UjBMtjT2hlofCAZjb1uJBaaO0amhlCGNZVCn5ZSdLYF4PPlRxNXc4i4bCgvDl6DiZFtP9L48MGyzHau+n4Xrb+x7T/93+UsMg/+Lk3qsX/9QI+xXW8A5xjg9/eWp6YVjKBLwLwGMctK63SIa7X6HBrw/+pXgunVLXsLrYC7sSOiyASMqZmBkxYje8gPpyCcKCnoz4HkQCRhiUxDMRiVU49B6+QHM5wkFgbOXbcR+sVoXtkkk2CPv5fLhRd1Q4azQqRcqavFQSH6yvn7pTqf1aGx86HU8pz/ntJzM0pcN55wz+TuZxckutFoEELxvzy62XbGsY6dMmaW5p9IuW5gOCexPoKJi9jC0jZ6+/x3Xrjw+cuRJV7gmzSFBaNx81LKMbzmUfBrJWpG2th2q8Xf3EUhHPklHfncBCPCJ7rkubqHf7pag/eVYkY0bdx61/3VecZMAKslaHflIxNBYBt0kTVk2EhhjY1oZJ4WK2h2NjctfyDhilhEwZ7wOzvxjWUa3PVooJL5TW1tr2p5wHwkWFRm1eE5pHWK/fXtS63OyDzS8TAK2EEgmY2q1ei0dK3i2YeRRwefUXHNbjNGcCHbguBXPq3/qU8M6rbfsQDry8cL9Fv3rzYTnQSAQkk8FwUy0wL6i004MQ2LlSGcGdMvWmQdt6NXcqh8BNfAXAanTkW8zjMIfus0L2zurHnDNQ8zxxsBWS9ir+GE37V+7dvmbkHyTmzL3l2XpLHP7q8MrJGAjATjxGqePyOvVAp82mqM9KUwZ/DKceU0NE3vnZSAd+USkQJhhzpPX/kvQpoD8nzhvgm9WzMwFExYrejGX+LnGNU3rxFzTYPzsCVRVXabmER2ffQq5xYRToLX85aY9Y+sggAqnhFydZXZBU9Oit922Hb08z0LmWrfl7isPq9Tftu81N75HIoP+ADkaGzLoyLuRz5ShhwCczml6JIvNhx9u/UKTbMfENjUt24DEtcz3xzz50dHorN0Nj4F05FXOxgYVOpbBTNjjBKTlmSGMLpBybXhoH7Z8tI/rvOwCgWTy9YlwjAa5ICqlCLxwdJe/lHrxoncJlJfXHKa3zFo57RWfC1nDkNpk79K7w7JG/D0XG7KNW1+/8A00/K3JNr4N8Y6zIQ0mQQKeI1BZWX0gnqmlOhTDb/rndXV1nTpkOy2zqKjwRjSQxJ2Wkzr9+O6GmcA68h1DtNVtU+cJr7pHwBAL3ROmV9Lw4cVae0TxkPsw5loG9jmjN/eFwLZKU3XqgKkVWsufTtspO1sCBhZl0nZ0FBYWaHFklcWYm75Ym+VdguUjTU3ztM1Vx2AMnQ0ZOsud3mx3WfquUTcuSw2uuHi8a1cGNdLJ1QNO/FvYYvNOV4W6KGzt2gc3Yz2Vu1wUuVsUOknoyMcGDxJWiP7F7lIRmBP5jjh0Yl1QzF25cr7a+usNXfbihT1s0aLV5brkB10uHvZTdTLAMF32yOvMAB/KhjOnbfVwVDyfc2Ol+r6yZf36un9DB8dXyu9LPhpetQ7tNwxTY4+87v21+8qV/LuOMq5xCkX+8RzIIuCuGiiME/dR/7hTbbHpRNpeSROztH+rR5c9eRpYT9bCG6tjyBA9/ClVHwFp3StOlZoWqNBjNl6aWp0pzJOfqsfyYEvdNT9+ik4KHFqvk74/ZRtGUpsjj/K6RTc1NH5q0wHvCm2yFfdwOKRNvs4GJN1ljvLznYCe9R+kDM/Ld7INDcsb8NxsdttOPK+Omjr100VKbmAdeWX8zmHa6sp3P+8AADyASURBVAtKPA/XCUhTyAJNrWeuG9tboFZHHpXjmb2V4bk7BBKJ16fBKRjsjrTUUoYMGcKh9anR8GofBHQ6VOi50uZI9uDQ6UxblqnVftMs0DZ6DPxZIewphPzMNwK7F0ZzzzC5trl5aSC2ecYzW0ODhWVs2/ZO17oegXbkEwVh0TlEaz3Xvd8UJSkC94sLKwPnWGDwyb/1Zr/8aDRafbheHYInHSMhLtJpNV5ub2FY3TadOlC2/wjgeaXtpYxGhBbdxND4pm27RsMIa5OtuDc0LH4Pz42knjzQ2+ipx2Y9UlHGXZ+vrcdS/VKnTq1VW3Qd674m1jL3ZeqRGArpsrV7pEWgHXmV5TtGHKAn5ynVXQJqTpaU17sr1BvSsBjHP/VqYhnolb9Arw7Bkl5VNXMwetdm67XaelKvfEongcwI4DVhZhbDidD65g9LmfDA3GVdeYAmJB6uEEBjjQfKmSumahfy3nvPHoP6l9qG1tXDMEKB2R1KrW0ihHzTVcBdwujId2GIY0/59qGcK+9+AXRbovV/4qIJrs9jcdvKVPLGjh2MOTzi/VT3XLx2oYuyAi8qFksqJ75YJwiUuZU65VO2Pwmwt86f+UatSYAEvEcADfquD6tHQ037mDGDV3uPhqMarXQ09RSJm6boytvA98grNm0jhwnLIIoU5SRfLrWIyJCr88WYTO2YP39+EiPZtPbKo3IeraioqchUd4bPjgBe3pdkF9O+WFIWPGFfakyJBEiABEiABEggEwLojT8kk/D2hLWeR70zZk9a/kgFg0waNWjalbf0XkHeNEKiFc48jzwlYMhvinNPDPpc3ZW6czeZtK7UrUMQ5JeWTo/Czo/rtBUt8u80Ni59TqcOlO1PAhx26898o9YkQAJeJGDpGJm3yYsknNVJur6wHxoPuhbopCO/K2fbhxaLjhIOsXe2oGtJ/R5x4cS7tEj2kFApjZUeUOe8aHTmMR7QI69VwJB2L4w+YW98Xpcy54zj0Hrn2DJlEiCBYBFAj7zruzFAZuAceewnr2F3KNnVSENHvtdvunXUcJGMqAUeeeQFASk3icIhX8wLW3I0wgvz5FFBDwmRuCpHUxi9HwJVVdVYnVae208Ql27JlS4Jopg8I8Ae+TzLUJpDAiSgjQDqXa478oYh39ZmsCbBBQVFb7kvmj3y+zE3MU/+vYMP5Hz5/cj48IKUW0W4YBaG1Lf5UHvbVVbz5JHov2xPOMMEsTjHZyZOrNEwZytDRX0aPBYTV3U3mOg1ACvWrtSrAaX7lQB75P2ac9SbBEjAawTgVLvuyGPr21avcXBan5EjO1z3NXpGW7BHfp/cTWAV+3dHHwRnnjuR7IPGP1+lxA/KqhHnVWgY6uJdTBhyvVy/dlZhe7v4iX498k+DysrqD6Lcf0a/ZfLVhoYl2I6FBwmQAAmQAAmQgC4CPc6em/IxlTNwjnxdXV0n6thxNzlj9CXnyPcFPF4YEe8fonrm6cz3xciz17uc+NBscdGktZ7VUZNiBQUF97v/oEllrPnZaLT6pFR3eC17AvG49Vu8tF3fL3ZfjQ3D+iuHR+9Lhd/TJcCyky4phiMBEiABEgg6AfbI91ECOgcVoWf+YA6z74OPJy+r4fTCmiYuGv+oJ/XTrFR9/dKt2Ibu75rVUOIlhs/+rra2ls8fmzIjGp1+HpI61abkckomFJJ355QAI5MACZAACZAACeRMAJ03rveOY/tb14fz5wwqxwSqq6sL3e9I6Z7CwIp0P5mneua3HXYwF8Drh5FnbqmF7cIFU9gT33+OhELCE04WHnjjFy5c/YX+teXddAhMmTKrBDxvSies02HQm7p+/fq6vBtWD74cnuV04dmVPufIuwSaYkhAEwH+xt0Dr2O+uo55+e4RTS3p7bfDrjde9DTS0JFPnSe7r6o589sOO4Rb0+0m4smTe0Rk8ATOiR84bwYPLl6CDnHXW2hTaYaX+Q1lZTM+kOoer6VP4P33E7fA0RydfgznQkKPe5xLvSvlDofT7yv5of6rfMphfRnj9HXTDLc7LYPpk4CXCGBPZ41lPqntt55NHoDVAdnEsyMOGpt1vUPsUD/jNGCv6/U9NB4clLGiPo9gmgkNNnfnLR35NAqPWs3+/YNGiu0HjuBQ+zR4uRikRRjyU+LiSRdxdfr0qD/99Px2tOItTC+0s6Hg9OFlbv5t7ty5EWcl5W/qZWU1F4Dh57xhoTSxDsO9TuqCMuN6paTbHisyYcKskU7aZnfaOht3pExkvYIv58jbXRKYnjsE1CK7eg44xp5oyE3Xekzx06YvWGl6h6RLx95wPb229qbaf2qQOab/EPl3F2sUuW4zOhe6yjId+QzKU/vQYrH1qENF+9AhGcRiUNsJ4EmMga53YI/4E8SFE++yPf28T9DwxPB6hRkPogkbN7bdmPfIHTCwouLM48HvDw4knVWSeHk/vn79ki1ZRU4zks5KWGdnXFvlM008ewXTWbkvKCgOVGV5L/D8EkgCOp9NOh3jbDIb7wptz9LgraiupeHCdac2m3JoZxxNjRd05LPJRNMIoWd+pNh2xKGic8jgbJJgnKwJSBPDwu/DXznmwl+GXvhtWScV4Iif+MTEx9Dr9ZpXEMAZvSIanTHLK/r4QQ+1sEoikbwfTSGuz8vqiw9eZC40qunr9TIMQ1vlsy/mfV3ftW6CthbnmTNPzNqRx/OA6xH0lbG87lkCpqlvyy2MvjnUs2BSKIbfuLZnqY454ykQuHYJDRdvuSZstyA5LmgjLfHaKt9tvmsnsitv2SOfJfA45s6/d8go0QKHvn1oibBCRJklyjSiyXfQA3+rMMJjxcUTzxcXTWhOIxKD9EEAq8WrBpFb+rit5bJpmvPKy6srtQj3mVC12v9rr1lwmq0Kr6iOhqHXx4wpRiOb04eW3oUuo1D5PM5p6+xKv7XVOt6utDJNB2VhZ/czJtOYDE8C/iWgs0cesrX93rPJMTwjND5LDW1TILJhlWscOPKbck0j0/h4Vw7atGnn5Ezj+Tz8VLf1x6zvrryl95kjebUY3vYDh4t3jj6sy7HvKBkizHA4x1QZHY7m/+C8/1mExCxx+ITR6IG/XFxY+SLJ2ENg5MghtyMlD41osIaapqjj4ncD5++CBat/jR6YcwcO6WYI66b58+fHnJaIVm9sMannQOXkTD2SM5dqWQltuoJTS+YaMwYJ+JsAnFNt5R7PxY9Mnlw91A8EKypqKvCMOFyXrqGQpe0dosPmYcMmvILRcnG3ZZtmcprbMnXJq6ys/iA6Vg5xXz5268JBR94m8mrSthpqrxbFe+eo0V099dtxvmP4UNFZPEgkCgu6HHwLTSgIykOKhJDy3S6HXYhGfC7AwnXX4+8SUWAch573o+C8f0ZcMGmpOFUmCMxeAitXzm/DUOHf2Jtqbqnh5X4w9h99uLR01sG5pZS/sbG43ffB6ases7BFygNVw5DjByokGhvz5Kl+qSwjI2Y7nhl9CIBD80Ift3iZBPKWAJxpjeXeiuzYIaf7AW4iYZ6lU0/THKnxHeK+5StX1qr688vuS5Yz3JepR2IyqcvWbkeeXccO5bvqqVd/vjounsQmBl9lWG7KFhUV/qa9vf1K9O5qm0u7vwXWsVLG604+ee7HsMK+h0YM7K+p21ei0eovYQrCj92WO5A8OG63NjXN2zFQOJvuuz5McI/eVqSjQ1bj+9/2XPPeWVXVzCOxMJ+2aSpwaDTmkffygxoFg8DQoaEX3n8/qc1YKU3VeId1U7x94H1xFhqjtSgJ2a+5+K7SYmMfQtUzeWwf9xy6bE0sK5s5trl56UaHBHgmWZTni91XRpojRhz4kpLLHnn36VMiCXiCwJo1izAU0HClJzUTg/FQrGxtbfvXxIlnHZFJvHwOq3risUjPbR60EfMN3RzZYWitFCSTlsemNOxfIjo7E3P3v+rqFTryruKmMC8QWLVqSStGDDm6a8cAdtZEoxd7qFF+f2137bSirZERGgX02aSncRVTvDQ4uPuXOyev7JoqUuakjFRpY12MV1eu/HOHukdHPhUhXiOBgBDA8PqbMK0h5j1zrXEdHbGnuuceeU87tzRSC9uVlU3/LaYceK4nXjEwDPnH5uZlmCLjzqF6vdyR1KeUs6PRmeP7vKv5xtSpc4vxgr9KpxqhkJ5Ko06bKZsEFAF0NGtzFCH7ANN850ov5wR2WvmRTv2COloIdtfr4I6Grc9hdOUgHbLdkplICE1THffkKR15t3KbckjAgwQaGx96HQ/bv3hQNbXH/OHxuPXPiorqKV7Uz2mdpk79dNGCBc/chwraV5yWlWX6HQUFg9AQ5N7R3euldetEaVnxG92zODNJLS1t30Z5OSizWPaGjkTC/7Y3RaZGAv4ggHep7rJ/ZTR6ttbff185hYVsq9DU8cm+7rtxHY2cz7shx2syCgqsx6GT6/MZUIc7GKMrL/UaD7v0UaNGMaXlErvSyyQdPGse6wlPR76HBD9JIKAEIpFB16FXfrtHzR+B4cyPY2j5N/FSCMwaDuXlNSds3frmM3DKdA+T7rNYYL7hL+rrF77RZwDHblj/dCzpNBJGnnwMWyWekUZQV4N0LxJpfctVofsJk6+uXfvg5v0u8wIJBIAARihpfTYBcbFpduJ97sXD/Dm00voORx3iSS+ScVqn9evr3sH7eoPTclKnb327urq6MPU9f1/t6Oj8DuoDmhZDK6Aj7+/iQ+1JwD4CyhnDZgoeffl3DVcswNDym+DML5k06eyR9lnuzZRKS6dflEyaaihcuTc1RG1Miv8WFxffoEM/7Iu7+wWmQ76SmUyKX6lh7Lrkp5YbV9sSap0j27uXILWOvEoC+UvAsooe120degg/X15+5iTdevSWj3f3BXCip/W+5v653NrcXNfsvlxvSMS7Qdd784jXXhNXeYOCfVpEozNKkdoX7Esx/ZTwnt3S1LRk9zQe9sinz44hSSBvCYwYMfm3aLH1+EvOOrO9vaMBC+ZMzceMUFublZVV/wm2zcOfx5zEvYlLGbocuwq0733VnW8YmKGrQtLLQGtcS0vrPV4ZJVJaWnON7mGrCg54eCBvemUTT0nARQJNTYve1tfz2W2o6iFMJhOL4cwf5qLpfYraNaT+//oM4NINOD8rkTeWS+I8JwbrIel8Nl+DtWWO8RyUHBSyrORt+K1p2vlN7tVgSEc+h4xkVBLIFwLde41KTYt2pE8RjsLhiURCDbWfN3FizSHpx/R2SDjwF+7YITbBvs94W9Ou3vhlTU3LlujSE4vr/QdavKpLfo9cvMRnYYj9T3u+6/pEz8AsuNA/0SW/t9xQKLxXBaP3PZ6TQBAIwFfU6TD1ID7UNJOLdS80VlU151AhzAfxXtO+4FnQRwsZRsGTaMjQsj+iyn/TjP9p6tRaTY5vz8/Cnk80nH8d7/8P25NaNqnIR3vHoiPfmwbPSSDABJqbl+NBb9ztBwQYan9Re7u1KRqtudzPLwc1PAtO/BN40YG75YeGiY5IRF6uu4ygUrbXi0yXPqYpriktrf6sLvkVFdMnmqapyo72dznyZKNaPFMXC8olAW8QCHni2YR3yoS2tra7qqou0zKHt6pq7gGdnTsXQw9PjAyAE+uJfNFVRhsaFr+H98Q/dMmH3KktLc/8SqN8W0RHo9NPw/QVVxf53VtxGSsuHvJg72vaX/69leE5CZCAXgJFReLb6O306sJ3+8CxhsKJ+dXWraub1LxyPzn0ajE7OPB3YnjWelR0PrKPYZ79isrQz+vr617WrSCG19+nW4c98q078XK/Hvno6kJOGA3wyWRSPoHKWckeXfSdoYfCQ3mijwMlB5vAYYeZf8dzEk6T/gPPpHNisc2PVFXNHOWmNur9Fou1roZMT8zVR36sb2xcrnvrUjezIKUsdNTclfKGSxfxjvgKerO/6JI428WMHz/rOLzm58MObSML0GC+DNMat/U2jo58bxo8J4GAE1i7dvmbeFB8z18YrHHQdx5ae1+IRqu/pLZt86r+cL4qsS/8/ViJ/3lUsj6r84WQOSO5HVuLeWLrtXPOmfQoyumWzG1wJobqmUfZW+zGAniqwQCNQD9CGcLWhPqHrPYQLSyUvhjN06MvP0nACQJ1dXWdSPd+J9LOJk08Iz4Si8XXYjpaWTbxM40DR+1007RW4902JtO4ToXHu0KrA+uUXZmmO2TIkMXoqGnNNJ6d4dGbfasf1zlSI0zi8dhS/J6G28kj07QgX62htNdBR34vHPxCAiTQ1LT8d3jYP+Q3Eqg4HIMKxG0tLW/9F47Ojeilj3rBhilTZpXAybsEOj0K52sd9MSWcvqHQmfOxhra2alWRne35zmVnrW1tSY43pPqnq5r0GfW1q1ta5zcmm78+BnjUI7qkAfX6rIztVy5ygsjNVLrxqsk4C6BUMhbjiOeTUdjOtpTeA9dMXfu3IgTNJSjg8aCG7BGgHo+DXNCRjZpwolPmGbBvdnEzbc4aoFa8HhAp10oiwVY5+iBqqrqY3XqkYlsNdozFmu7F7qPzSSeA2G3jRtXsmzfdOnI70uE30kg4AQwDM0aPLjo0/h8zY8oUIk4GH9qu5NGOD1N+LuqomL20W7aovZNxfDCMzF/+t7t2+NvoYHhL9Bpmps6OCTrUvC8Hba4Oow8lS2GEfJgL4s1Do01f8eoi3+o0Rep9M7mWmXlrNFomLojHjfVzhIfzyYNJ+Owx8tJukzbbwQaGupWoTFc+xSkfbhhj3nrlo0bWzft2g7Olme4ahhQDQSdna0vo7HgarwbQvvI1fxVPrxhw5K3NCvhGfGhkCfemyNjMeupiooZp3gGTB+KYMHIES0tq1egXFf3EcTFy8Z98+fPj+0rUNs4/30V4XcSIAHvEFizZlFLefn0801TrvTeizl9TtBdDSe8MZHouBEOKFY7FysNQ66MRApWrl374Ob0U+o/pBrOj5EAkyFvKkJO3bzZOgm97l1D/NGKm2+HcubVVmOXqUYfXcZh5fwN0ONZ6DFBlw59yUWefwwOfT2c70WhkLwfa0/UrV5dl9HaE2qRqs7O16aiHJ2dSMQ/BVmDYWtfIrVdRxnYGQoVemYosTYQFEwCvQigcQuNt+JHvS554hQ6HY2V5O+BM/9tLBb7Z8OIPIiF0P6bqXJqoVY8j2ajYeBz3WlmmoI74ZEP/88dSf6Qsn790ieQ7y8g707QqTHKzEGJhKl2IPoiFlr2ZB6pEXCtra1qh57jdLLqkR0Oizt6znt/0pHvTYPnJEACuwk0Nq74F1raf4AH7k93X/TxCV5cH4D6H4CD9dn29k4BJxCt9BZeaMYL8EdfxP0XwmGJfYBDbYaRbIvHizCXrHiHYbQWFBRYJdibFz0ayeJkMnQAKkLHgMsJiHcCOqeP37r1LQwTsxwZsuhR5J5w5lFJuxH5MN+jjFSP1xyUtzk7dsgYnPrH4fQ+hP18X0TP2JZBgwq3qAYzpfvkydVD29sLDsXuQKNx7yiUrzNisf/V4BbKGkqW9/x3pdauQ/6xe0Xknu/8JAESKC4u/h2cADUyrNibNKwKPGt+ZZodv8KzqRHPJqyELdeFQuYWywpvGT58wltqW1o1uuzNN+UhiYQxGvObR6PXHb2ocjbehep96vFDvjhmTPGipiaPq+mieqrxXU2BwFvFA86zFUG9608YwVY6dmzJVehtTrqIol9R0KkmFjPVlIyh/QZ06SbybXlDw/KGVOLoyKeiwmskQAJdBLDS6w1ovZ2Kh+3p+YYENh0Mm/BnfrjHUUoklMeU2GVqOz7bBRYyE4meS1139rxruuN52svaZYsjH9qd+TlzJi9csOCZjcgH3XPXBgDc1cjzcZS5jyeT3eVn5852gakXMdSr4jt2WEOE2G/E3ABpeuG27AyHw7/0gibUgQS8RECtLA0H+ffQCTvBeP4ox7OpHM7drnddQmA3GBPOTCtGl6ExUb3jzF4Nir555/3MS86hV0pBJHL4PZ2dm2uRr0d5QSe8v7+JkR0fnDix5jNqwWWdOmGqSOj553dchd/DT8DH0KlLb9mhkNFnh5pnlOytMM9JgAS8QUC13kpZdBFa4LU+XL1Bg1qkIKB1zrxa9A5lFL0Lfj1Uj4SAE+/PA4+HP69fv2SLP7Wn1iTgLIFBg4ybIaHDWSlOpW4ZeDZ1jQhySoKz6cr/FRYeMc9ZGf5Mvb7+9rhhWD/3kvYoa9M7OsyNaNz+mnKmdehWUVE9ZePGtnVotLreS048WKxsaFj2VF9M6Mj3RYbXSYAEugg0NS16G478THxpIxISSEFAqzM/YsTkv2KI/Ssp9OIlBwmAeULKAk9sR+igmUyaBLImsGs71zuzToARsyaABt6fK4c16wTyPOKIEYf8CSa+4SUzuxuOrFvhTDdEo9PPQ0O9Kz5qRUVNBUaf3I8Rmf9ET7wndjvqnS+Y7tlnb7wK5wqk3grxnARIwH8ENmxY/iweF3NQeeeL0X/Z54bG2px5NY8TFYAfuGEkZewhgLUh7mhqWsoGlD1IeEYC+xEIhyPo3WMj+H5gHLwAJ/4/I0cexAaUfhivXPnnDqzX4smGWDjTpZjSeO8DD6zeiLWMvlpVNXNUP6ZkdUttKYc1oGbCgX8Ii+6tRx0C2wILW3ZyyEqhPiPJVc3Nyx7p8zZu0JHvjw7vkQAJ7CYAZ/4fUhqfwgVr90WekMAeAtqc+Q0bVtyNytsTe1ThmZMEwPodPAu+56QMpk0C+UBATT3Bb+W6fLDFPzZYX1OOqn/01aPpiBGTfodn+QY90tORah0Pp/43sVh8CxzuxVik7zOVlTVHpRMzVZgpU2aVlJbOmIHGgd9gS7ktWOxxCRz4GanCeuEa8iaJBZi/OpAuXOxuIEK8TwIksJtAU9Pye7H43UGmaf5q90WekMAeAsqZ17I1nWGEv2KacdWyXrBHHZ45Q0BehV6Cd51Jm6mSQH4RGDly0q1wHD4Np0Rth8rDQQJwfhY1N9ctd1BE3iStRrNhG8EvW1bySS8bteudfhbmrp8Vx5hQOPWvoPO8Htc3YXvXTfhdvY45/62GEWrDlskYoZfEDkOyBDssjER5OAG2jUHY0u3b4+PRDxXCuS8OrEHzu4aGupQr1fc2gI58bxo8JwESGJAAnPlfY/7SwRj6dM2AgRkgiAS0OPONjUufwyrRqoHJD6tE+7hcyH81NS37CypIjtiAdFHN8klNyxECTDTfCCiHqbx8+pexYYVymJz54eQbtCzswbNjZyQSviKLqIGNgmf5P7HA3F145l7iFwhwxI+BvvgTAtu7dqmtdhfCt67z7n/d1+Hk777W63T3Ne+eyDcHDRLXpqMfh9anQ4lhSIAE9iLQ1LTiu5iZwzloe1Hhl14EtAyzN4wDfwj/8r+99OCprQRkJ+ZVfqnb2bY14d2JoeJFR2c3DZ7kC4HGxhX/wjtTLTDGwyECePZfV1+/9H8OJZ+3yRpG0bfxTH8vbw30oWHIj2+tXl23PR3V6cinQ4lhSIAE9iOAobWfNwxx6343eIEEugm47sw3Nc3bgfmo56FCx0UZHSiFqnKBHhwPz6l0wGgmSQI2ETCMkZfj2bTRpuSYzN4E/t7YuPymvS/xWzoE1M5EeLZzJFs6sFwJIx9ubl7+13RF0ZFPlxTDkQAJ7EUAD34LPfOXo5cBvfM8SCAlAQ3O/PLVKJNXp9SGF3MgIBegcvG7HBJIK6p6rqQVkIFIwGcEuhsaQ3NRxtt9prqn1UXjyJaCAnkxnx3ZZxOmTP4fZn38LfsUGNMmAm9ghMTFmaRFRz4TWgxLAiSwHwGsZn8DXgCfw0u09wSl/cLxQmAJuO7Mw+G8GZW7JYElbrPh+G3/p7Cw+HM2J8vkSCBwBNSIFrRVfS1whjtkcHe9Q16wfn3dOw6JCEyyBxxQ8HkY+1JgDPacodIMhUIXqhESmahGRz4TWgxLAiSQksCGDXV/guN0Nl6q7GlISSjwF1135ouLSz6DMvlK4MnnCKD7N22cW18///0ck0orOufIp4WJgXxMACPZsL6MvMvHJnhGdSypcS1WqX/CMwr5WJFVq5a0YhX4c1E2O31shm9VR33lh42Nyx7P1IBuR17KRKYRGZ4ESIAEehNoaqpbGgqJ01Hx57ZUvcHwvIeAq87800/P3xYKhT+O8siemp4cyPAT7JJqzQGsh1GfYdSsg0Mmh9ZnTY8R/UJg3Ljiz6Pi/ohf9PWinnhW3N49ItCL2vlTp8bGuvXYyu2b/tTev1qjLD/6iU9M/kk2FnQ78pZozSYy45AACZBAbwLY83KVYciTcK2x93Wek8AuAq468w0ND72IHpsayG5jDmROANv1XIahwK5OUWCPfOb5xBj+IzB//vzYyJElahSba41k/qPUr8YL4fh8qd8QvJkVAYwYuQ31uD9kFZmRMiaABr1N2DbxvNra2q5N9DJNYFePvEVHPlNyDE8CJJCSAFaOfWHUqEPgzMvfpwzAi0En4Kozjx6bZ7H43RyUx1jQwWdmv/FdNWUmszi5h2aPfO4MmYI/CKxcOb8tHBbVeDa96A+NvaElnhFPHHGEvCBbx8cbVnhbizlzJn8F5XKBt7X0v3Zw4reEw8bHsW3i1myt6XbkBYfCZguQ8UiABPYnsHLlnzvgBHwZrbpYoVe4Mrd2fy14xcMELo1Ga251Sz848//AVokX0plPjzgqyjfqGrJqmlZWvRLpWdZ/KEwj0L5gJ2YWaNPBNAu0ye7JGYwC0aID3lNappiqRdrC4cIzIJ/refQUgn4+8Wx6JhIpPquurs71edwlJXrKpsLh9u9CNZIccYR6Z4qVSj4P+wmgLL8nZejj69cvfzWX1Hc58lylMBeIjEsCJJCaAObNPyBlQSUcqLWpQ/BqUAlgCPVXy8pqvuCW/aosohyeCXkcZt83dMxPl1di8SiN2/cZb/WtntN3zIxWC3ZGG6nNfjQiaJO9h6XUlAeWJrlCNDQs/m9RkXEKGHBK2p6CsN8ZHJ86DEE+za2FN/dVQI2ggA47973u0nfXy6dqLBkyRJ6Fd0KDSzYGRgzKUTvWIpipdrHI1egeR35TrgkxPgmQAAmkItDUtPQVLOzzIfR23YL7XMgqFSR7r7XYm5yTqZm/KS+f/iEnJfROW/XMY5j9qXiJcgG83mBwrnokQyHjUxhJc9M+t1z9Gg6bW1wV2EsY1lPQJrtHDejwRs+5u5/SHD58gnZHHuVQSx7ozvu1a5e/WVhY8lE8m7gCe+qCP2/kyMmzMARZlyPdpRV6xrX8PtHIpuV3sXp13XYhCqajXDalzhZezZQAWO7E35zGxhX/yjRuqvC75siLjalu8hoJkAAJ2EFALeyDvb2/aRjGyXiAcXEfO6Dukwa4tuPvB1if4HBUhm/e57Ynv6JSVGCa8jYM4+tpVHZcTzVnHnu1TuFQ1j2owWIHvp2F9S3m7bmq5ywSEa9BsqYGP2OzHqv3SEWF/X97vrl3hjLwxsqVtVqGl+9tpaUrD3TJ3W2+6mkeOfLg6biwcPdFnghM0bsJo4Q+5ZHyqeX3iaZWTXKF2LBhyVuYzvAR1C+eZHHMmcA2IUIfa2paviLnlHYlYHR9FhhP2ZUg0yEBEiCBvgjg4bUaK81Owov5y3gpcJu6vkBleB2V8CWhUOEHUdn5sVqfoLl5xbdwzSfOvFW2YMHq8zM0OafgajV7vEyrFLecEsqDyGDwXEFBaCLKzHIvmKN6gPBsWOO+LnLr2LGDtQ8hLSqSj8J2DQ0ZFkareOGQmvTwhv3dz++6c/AbuBq/TQ80rOgsE7IVjf8XYFrUleCh4TeRynZDS/nEMGwtcnsI7GpkUtu5Lu65xs+MCWyOREIfam5+6OmMY/YToduRv/bsl4UU2lp7+tGPt0iABPKMgFpEBS/m32Ou2wkY5nwnzPPIC9qPoOXLqOzNgBN2lppn2dsCfznz4rreurtxjr3R31XcwO+b+Iu7IdNrMlAp+1NxccnEdeuWPe8t3SzXK4soA0sxckjLQmu92ash1siX1b2vuXMuH3RHTv9SLKsAjWvS7QUPOwoLC/7ev2bu3VVOKxplbwyF5FRI1T5SwD3Le0uSDeFwqAqN//f2vqr7vKDAcv13gvLwztlnn6S9w1U1Mo0dW6wame7QnQ/+ky+fHzSocIoT79puR76LiHzMf2Cosa0Eap+L2JoeEyOBfgio7TYwzPlS9M6fgkr0un6C8tY+BPAiVcPor8Oqsif215PqH2feOr60dHp0HzNd+QpGtxhGGGs4iP+6ItAbQtSCfxfDWfjc00/Pb/eGSnu0CIXC2PbIXWcOv6f792ig+8xyVRfY/h4aVh/WbbWSr4bxom33STd1gf0P6Z57ncrehoa6VYMHD6rEs2lZqvv5eg11gj+MGnXwyd0jp7xlJXYZ+Dfy4zk3tYK8BV7Zak81duK9cRmezxglEcwG8MzzXi7FGlFT1q590JFGuT2OvLQWZq4cY+QVgcimkryyh8b4ggB655/B3wTDCKF3VD7jC6W1KSkx7Nj4mZRFR+Nl+qN0tuDxizOPyptaUV7L0dj40BopDyxF+ft5AConC9Ez8MENG1bcrQV2GkJVBR75MC+NoHYFecrOOYu5KoVREn9AWXw913QyiP8zLzmyeBf8IAPdcwwqTTxTf5hjIo5FX7NmUQue4WdCxwvhPL3pmCAPJIzf/Ea8B05DfeBLqvfXAyqlVAFru1yb8oYzFzFaJHK9M0lnn6paFBXPqI+gTOa0dVr2Gng/pqpL4Hf7LbCapUYAOqXxHkfeGFkHIVzJ1ynSfkg3FhruBzWpY/4RwAvBwjYcS+CcnoyFyKbhu9b5YF4jjBcCtp4xvltYWHwkFg28pqlpEb6nf/jBmUfl6LT0LbI/ZFPTvB0of98Jh2UFyl8erhwtX8Z802o48J9wqmfAzlwpKoqoyrIrlXnk+VV26p5rWmqUBB6Jrkw3QVl/rbi4+NZcdbYzPt4F/4SDsNTONPtKC8/Wv9ixBVRf6dt1Hc/9vw4ZIsYYhrgVeaZ9Cohddql0YA9W8RbXRCJHRuHEe350MJ6hi6CvrfOc++IJNrd69XmtOmHgqKoRI4Ffa2b//JOvgs2H8bt1fK2iPY587akJzJP31FyU/cHwirMEksc5mz5TJ4GBCTQ2LnscDtUZcFwn4hXv+hDbgTV0M4R6GcivoYfuaExDuCGX/XO97szDkT/CTbJ9yVJDJ1H+poL7Rfj7T1/h/HIdNryHP+xmcHCpl3qdB+KnKq/onbtmoHC53zduU0OYc0/H3hTGjCn5MyrIj9ib6r6pqekL1he8OL0C010uh7Yt+2ps8/fNGN10tc1pOpacWgiyqWnF5Zg7P8H5suGYGb0SVuVP3odpHePwfsKokNt9tFaJ8QUYoqYoOXjI54cOLfiJgwJyTrpnrRk0El+B94zWrQFzNsamBPDbvF81cKjFnW1Kst9k5F53axeeIJLm81h6ao+Dv1cAfslrAlJ+Q/z4E7/KaxtpnO8IRKOzxphm/FI8HM+3LOsw3xmQocKwEysVy3+gR+6uESNOesDuLXfKyqbfBKf5mxmq5UJw2YohaENdEJS2iKlTa8Pvvrvm/GTSgkNpjUs7ogcColL1DvbGvmXIEOt33XsBe0CpLFQoK6u+E7/7z2YRNZ0oj48addIZdv/G0hGcTpiyshnDLctEZdA6Pp3wmYZB5fsqVDZ/kWk8t8Ij7z8K2/+B51WB3TKV04He7Q81Ntattzttt9KLRmsmm6b1PTBS05L2rs+7pUQWcvCOUw77PSh/N2DLyxeySMITUVA+Z+PZpKYlO8F+WyQSmbxu3ZKXPGFsGkpUVc08MhZL/BpMZqcRPB+DvIQy/TW3G8z3L3zXLrhXWNZ5+UiYNg1AQMolcOTPGiAUb5OAFgJqr/GFC1dPRaXuIvx9ApUXTzl9NkBZg/rA3YZR9LdMh85nKturzvy4cSVhL6wcvi/P7rK35mxUmr+DcoeRIl4+5Kvoyb4FW8rd4aV5z9kSmzt3bmTjxtaF+M3PyDaNVPHgTKwbNGjQGWoOcqr7Xrm2qyETC9FZR9qpkxqirXp37UzTibTKy2suNk0TjTn2OfNw4jF1QXwSQ4NdGb7vBJfeaXYvFCq/i8bfOXZy6i3DjnMw32FZxl8KCsTP169f/qodaepOo7S05uv4bd6CP9s6QMHpfYxIxLzq5U/qti8b+aWlM2ZIad4Kh/4D2cT3YZwOPFNuOPxwcWM66xbZbV8KR35xmbCSjSiU+9+zWzrT8xqBdhEuHCVqZ3J4jNdyhvrsRWDq1E8XtbS8ORMX4dTL6Xhe+XXHBdWCq3om7nF7hV4POvPbMPdw5F4Z7cEv5eUzTzTNxCVQ7UJUVDwyQkS2ovL3ANaXuOv/t3f3MVJVZxzHz5mZZUF2WwRNdatVWwsaZd1FrQQTC6iNoMCyaxttSwxJTRtNa40kYuVlwNfat/SPvtmYGrWaWFhZqbrVFLCKhqwVgRJdtGIV0FiKKGuF3Zm5/Z3FZWCzwHRe753znYTMndm5Z87zOXcu97nn3HPXr1/5rA4qquqWju5EyrJl636s3/m8YmwSsnp02LCauVE50XH22TM/Z0yv6/mbVGj8ij2l7eMHSmJ/U2hZ5Vrf9cwrQV2m9j+u0O9U7NuUJLVoSPDfCy0rbOurR/Q49YheJSvtn8JywtFNJhis0v9xDwTBmHY3F0nY3Aqtj042XaFRWw/LvL7QsnQy//VYrGbGxo2PdxdeVuVKcMdou3a9P18nv2+US7V1ugzABtqf6FapsXnan7w58Ga5n4dO1hcsu1cVubbcleH7QiEw29x+Zdnv4RuKyKlEJAUaG+eMtHbnhUqqXG/9ZAVxvp4TYQxGO/3tqtcaPa/Rgc2z5U7eB5uEKZlXgrFZ10mePbiOYX3tksvly7umaru7Sr0PF2ubO7XMdVVPstuO7PKRI0euCON1zsX20FDiNg01/4msT8uvbLtTv72kerp+ld/6lVvLjUx49dWeRfqd3Kht7ph8aqJ1X1ZP/A0bNnQ+n8/6lVynqanl1HR63y8Ue77Ddt1B98PDh9t5XV1PVvXs766dxo+fcYYxfd/SPkInuk2z3OLlaz/bq23NTQb3pO5A8EfdFcT9v1fVjwkTLj+zry/jhpVfmk+g2jbdBIb3KSmcX8oZzvOpWyHr6Hc7Sr/b78vFjf4J/Yn6XGLd31aBroOP3xmGiTKHTuSTnaNN6mNdtxJUBXouDcNnPhWw9n4Nr5+LBwJRFRic2Ougv1mxDK9MPPZtHdA8px3/mkQisSaM17uFJZmXk+5a0BnZS3saG2couexTYm+n6KDlIm1vxZ68zyXuL7rerXg8tnr9+ic2aLuqqp73XH6jLqHt7u65LpMxP9Qxyim5rCMnzRdg7tWs3/dEeb4AF2tz88yGVKpvseK5OtceQMX/D207d+mg85GobzNNTZdPSqczSxX/FMV/1OHM2q9ozhHzF53wWhjl6+Fz2c4P9xmXTGmemYt0iYLuCNPvdqb8ag73+Tzed0OLX9HuaLXOF6yqqztmrQ8nFody0lB7JfLujhOBGz0zdI51yIp2n9w063vNok2bVr52yJ+q6MXkyV+v27Wr53vab98kmxOiGJp+O5rbwT5YU1NzV5iO5Q6/kS1qv8ZkMvdHEZs6FyJgPzD1iVPMzbP2FFIK6yIQFgElVfa882ae3NubGauT3mMzGatn82W9755P1QFNob33u3QQs0XlbFFv1xaV/3oi4Z7HvB6VYYRhSOZ1oH1dlIb7Hm373n/gsnesMelx+uw49SSP1aY4RgdtGn5p67W96Dmo1zaonjK7R6+1zw00RL5/WTPNm3/qvW5tS93xeKJbw8B3Hu07fft7U9P0Jh0Ytmj45gR5Neg33SC/hJ536HmH/DbH40HH7NkTX9AIikw1+UybNq122zbjThzpHuNuMrxA8Rt3gKxbedkdenbxr9UlBB1hOugsVhs0N087PpWymuQtuET/TpaD2t6MVswaddEf+7/0/HQ8XvvEK6+s2F2s762Gcj6dxPOL+p3075v0+xmnbaZBjtovWe2XjPZL/cvuBLi71FL7pUD7p4H9lH1b72m/ZLutreluaWl6u9p+X4qvoMe557ae2Nu7d6aMdcLJnCQ/+dpRMn5f26jbP23V9vnU6NF1nWvW/KnEs98XFEpRV94/5P49TRJodfmH+Zp8yjhSJL9Q1E6b1XYPJhI1D65f/7jbt4bqcfhE3lVzwfKHtNFpaA4PrwSsvV298gu9iplgvRRwBzQffrju2HQ6Uacei/pEIl6n/2R1MBPUGZPRckzPgYYJ2h7tzHUwE+vRtXB6jut1pqeuLvbR2rWPV8VJr0on87W1NacoWXUHiDwQQAABBBBAoIoF3Nwf1vZ+U0nyHB1zuZGToXnoeE8nXOwjug3mAxs3rnw5NBUboiJHTuSTq+tM+j8v6XZ07qwdD18E3L0gh5vTza1t7/oSMnEigIAxjY3TfqremZvKbaETJX/Tvdu/Wu7v5fsQQAABBBBAoLIC7u4cQZC6ZP8IhmCyajOmvDVy8zoE69RZs0qdOavGjPnKC2G9LelglyMn8u7T/feWD9bqlnQFzxY6+Mt5HWIBa+9Vr/x3Q1xDqoYAAiUQqETPvCZEukjX7z5XgnAoEgEEEEAAAQQiIqBk3jY3X35OOm2mamTkBUqs3aUfujQtGFGcENydFMxbKkt3BrAbYrFgteYwej4qdzEZbHD0RN6tsXC57psbrFLPvIaZ8vBEIG0SNRNNctZLnsRLmAgg8KlAOZN5/Qf9lHrjp4OPAAIIIIAAAggMFnDJvZvraN++tJL6/rkdTtJbbp6ZOiXl/fPNKCl38zu4OY96lPwfmNfBXRap9Xeqw2CL7grQ3dCQeqMS93sfHFOxXueWyLtvW/TYxbq//AqS+WLRR6Kc7WaEPZ8h9pFoKyqJQFEFyjHMXkn8v4cNS5zHtfFFbToKQwABBBBAAAEPBI56644DBktn/1VnO6Ya3bD5wHssVLvA583e4DGTXF2hW3dVOy/xIRBeAc0gP08zyf+sVDXUWfI+XY/WRhJfKmHKRQABBBBAAIFqFsg9kXcKt7V1mbi9UHdG1HUFPLwQCMwFmvDw917ESpAIIHCIgEvmdQL3jkPeLMoL26ty53JdfFEwKQQBBBBAAAEEPBTIfWj9wThuNvvUrt9ya7qDUap82ZqHTHzMtSY5ZW+VR0p4CCAwSKCxcfrVusbsvmJMNqOe+PdjMdO2YUPn84O+hpcIIIAAAggggAACOQrkl8gPFL6o/RqTCTT0MijzbQIGKsBzWQWsWWeG29lcM19Wdb4MgVAInHPOtOZMxvxayfzE/CtkV44YMez6rq6Od/IvgzURQAABBBBAAAEECkvknV+yc7RJ9dytYZLfUUJfeHm0SdgFtms2+xZmsw97M1E/BEojMH789FlK5pPa3zfl+A2BJrVbbUx8waZNf34xx3X4GAIIIIAAAggggMARBIqXeC9cMd6Y9I90cPcNzWz//117f4QK8qdQCqQ16eF9ZrhJ0jsfyvahUgiUXGDChJmnp1J9V6iX/mINl/+C9v0n6HYwo3RrGDch6ns6ufumljtra2NPdHU9qdc8EEAAAQQQQAABBIolULxEfqBGyfaxJp25Xsn81Xrr+IG3ea5CAWv/q6h+buoS95ibZ+2pwggJCQEEEEAAAQQQQAABBBAInUDxE/mBEH/3Uo3Z/tZlGm3fqp6aqUrs1WPDozoF7Ae6k0GHCYIOk6h92iRnuASfBwIIIIAAAggggAACCCCAQAkESpfID67sbY99yfRlJimhP0N/Gqd/pyvBP1aJfr2SwHolgYnBq/A6kgKfaNj9M6r5at2q8DVdF/uGGZb+wPSO22OSZ+mWUzwQQAABBBBAAAEEEEAAAQQKEShfIl9ILVk3K5DcPMwkXjvR7LMNxmYadB1qg8mYC40NpukkyWeyH/RsydrdOjG0Qx5b9dxpahMdZkELM2N7thkQLgIIIIAAAggggAACPgiQyFdLK7sEP/PqFCXzLQrJTTg4ulpCyzsOa9pNPHaLSbZuybsMVkQAAQQQQAABBBBAAAEEQiZAIh+yBilKde5+5rPm4z3zTZC5QeWNKEqZUS3E2pQu3bjDLGldoiH/QVTDoN4IIIAAAggggAACCCCAwIAAifyARDU+J5efZNLBEs1DMFfDzf1u6/7e+do5TMRXjRs6MSGAAAIIIIAAAggg4JeA38mdL229qH2Weucf0nD7Ol9CHjJOl8wvbbuSnvkhdXgTAQQQQAABBBBAAAEEIiIQi0g9qWYhAktbO4xJTFIC+1YhxUR+3cC0msXtiyMfBwEggAACCCCAAAIIIICA1wL0yPvU/MmVx5lU70oNs5/oU9iHxOqumY/bs5gA7xAVXiCAAAIIIIAAAggggECEBOiRj1BjFVzV5IydJjFshtc980GQMOnMXQVbUgACCCCAAAIIIIAAAgggUCEBeuQrBF/Rr124YrwxqRe8vmZ+eOIL3Ge+olshX44AAggggAACCCCAAAJ5CtAjnydcpFe7rWWTsbFvG+Px7dj2pWZFug2pPAIIIIAAAggggAACCHgrQCLva9O7CfBs8Adfw9dJjMv8jZ3IEUAAAQQQQAABBBBAIMoCJPJRbr1C6x63bgb3TwotJprrB6dFs97UGgEEEEAAAQQQQAABBHwXIJH3eQtItm3TEPtf+klgG/yMm6gRQAABBBBAAAEEEEAg6gIk8lFvwULrP7L+bmPNrkKLidz6QTAqcnWmwggggAACCCCAAAIIIICABEjkfd8M5l/6oQge9Z2B+BFAAAEEEEAAAQQQQACBqAiQyEelpUpZT2tWlLJ4ykYAAQQQQAABBBBAAAEEECieAIl88SyjW1LszNUaXv9RdAOg5ggggAACCCCAAAIIIICAPwIk8v609eEjTZ7VawL71OE/wF8QQAABBBBAAAEEEEAAAQTCIkAiH5aWqHQ9YmZtpavA9yOAAAIIIIAAAggggAACCBxdgET+6EZ+fCJjt/sRKFEigAACCCCAAAIIIIAAAtEWIJGPdvsVr/bWvFu8wigJAQQQQAABBBBAAAEEEECgVAIk8qWSjVq5tcGOqFWZ+iKAAAIIIIAAAggggAACPgqQyPvY6kPFnDqDHvmhXHgPAQQQQAABBBBAAAEEEAiZAIl8yBqkYtVxM9fzQAABBBBAAAEEEEAAAQQQCL0AiXzom4gKIoAAAggggAACCCCAAAIIIJAVIJHPWrCEAAIIIIAAAggggAACCCCAQOgFSORD30RUEAEEEEAAAQQQQAABBBBAAIGsAIl81oIlBBBAAAEEEEAAAQQQQAABBEIvQCIf+iaigggggAACCCCAAAIIIIAAAghkBUjksxYsIYAAAggggAACCCCAAAIIIBB6ARL50DcRFUQAAQQQQAABBBBAAAEEEEAgK0Ain7VgCQEEEEAAAQQQQAABBBBAAIHQC5DIh76JqCACCCCAAAIIIIAAAggggAACWQES+awFSwgggAACCCCAAAIIIIAAAgiEXoBEPvRNRAURQAABBBBAAAEEEEAAAQQQyAqQyGctWEIAAQQQQAABBBBAAAEEEEAg9AIk8qFvIiqIAAIIIIAAAggggAACCCCAQFaARD5rwRICCCCAAAIIIIAAAggggAACoRcgkQ99E1FBBBBAAAEEEEAAAQQQQAABBLICJPJZC5YQQAABBBBAAAEEEEAAAQQQCL0AiXzom4gKIoAAAggggAACCCCAAAIIIJAVIJHPWrCEAAIIIIAAAggggAACCCCAQOgFSORD30RUEAEEEEAAAQQQQAABBBBAAIGsAIl81oIlBBBAAAEEEEAAAQQQQAABBEIvQCIf+iaigggggAACCCCAAAIIIIAAAghkBUjksxYsIYAAAggggAACCCCAAAIIIBB6ARL50DcRFUQAAQQQQAABBBBAAAEEEEAgK0Ain7Vgydrd3iD4FKs3jUqgCCCAAAIIIIAAAgj4IUAi70c75xhlsCPHD1bBx3yKtQqaixAQQAABBBBAAAEEEEDggACJ/AEKFoyxW/1R8ClWf1qVSBFAAAEEEEAAAQQQ8EGARN6HVs45xqAz549G/oM+xRr5xiIABBBAAAEEEEAAAQQQOEiARP4gDO8XaxMd3hj4FKs3jUqgCCCAAAIIIIAAAgj4IUAi70c75xblgpZ3jDXtuX04wp9yMbpYeSCAAAIIIIAAAggggAACERQgkY9go5W0yvHYLcbaVEm/o5KFu9hcjDwQQAABBBBAAAEEEEAAgYgKkMhHtOFKVu1k6xb1yt9RsvIrXbCLzcXIAwEEEEAAAQQQQAABBBCIqICNaL2pdikFgsCaRcuXmcC0lvJryl62G1K/tO1KjTgIyv7dfCECCCCAAAIIIIAAAgggUCQBeuSLBFlVxbhEN147p6qul3dJfH9MJPFVta0SDAIIIIAAAggggAACHgrQI+9ho+ccsuuZX9y+WD3zt5ogSOS8Xpg+6K6Jd8Ppl7QuoSc+TA1DXRBAAAEEEEAAAQQQQCBfARL5fOV8Wm9Bxzhj++6M3FD7/l54TWzHNfE+ba3EigACCCCAAAIIIIBA1QuQyFd9ExcxwNtXnGz2pWYZYy8zJjhNzw3qqR9VxG/Ivyhrd6tOO1SnrXruNO4+8dxiLn9P1kQAAQQQQAABBBBAAAEEEEAAAQQQQAABBBBAAAEEEEAAgcIF/gcZJNzlIDLbVwAAAABJRU5ErkJggg==;" parent="1" vertex="1">
          <mxGeometry x="230" y="48" width="97.11" height="30" as="geometry" />
        </mxCell>
        <mxCell id="cJ-756JFJZ41Q-hjwV2Q-27" value="" style="shape=image;verticalLabelPosition=bottom;labelBackgroundColor=default;verticalAlign=top;aspect=fixed;imageAspect=0;image=data:image/png,iVBORw0KGgoAAAANSUhEUgAABLAAAASwCAYAAADrIbPPAAAAGXRFWHRTb2Z0d2FyZQBBZG9iZSBJbWFnZVJlYWR5ccllPAAAsTxJREFUeNrs3d9r3fe5J/pny5EdW1JlWY5qoRZEL9qLYUDpgEkphXWYq7lz/4DC8X+gwlwGXN9vsK/nZnpYtwHrrjBwmFAKFl8zteFwLs6BdBbJSWLLTmxFXlZsmeyjR5/t2WkTx5a1tNb3x+sFX629d7MdrWe5a63vm+fzPBEAAAAAAAAAAAAAAAAAAAAAAAAAAAAAAAAAAAAAAAAAAAAAAAAAAAAAAAAAAAAAAAAAAAAAAAAAAAAAAAAAAAAAAAAAAAAAAAAAAAAAAAAAAAAAAAAAAAAAAAAAAAAAAAAAAAAAAAAAAAAAAAAAAAAAAAAAAAAAAAAAAAAAAAAAAAAAAAAAAAAAAAAAAAAAAAAAAAAAAAAAAAAAAAAAAAAAAAAAAAAAAAAAAAAAAAAAAAAAAAAAAAAAAAAAAAAAAAAAAAAAAAAAAAAAAAAAAAAAAAAAAAAAAAAAAAAAAAAAAAAAAAAAAAAAAAAAAAAAAAAAAAAAAAAAAAAAAAAAAAAAAAAAAAAAAAAAAAAAAAAAAAAAAAAAAAAAAAAAAAAAAAAAAAAAAAAAAAAAAAAAAAAAAAAAAAAAAAAAAAAAAAAAAAAAAAAAAAAAAAAAAAAAAAAAAAAAAAAAAAAAAAAAAAAAAAAAAAAAAAAAAAAAAAAAAAAAAAAAAAAAAAAAAAAAAAAAAAAAAAAAAAAAAAAAAAAAAAAAAAAAAAAAAAAAAAAAAAAAAAAAAAAAAAAAAAAAAAAAAAAAAAAAAAAAAAAAAAAAAAAAAAAAAAAAAAAAAAAAAAAAAAAAAAAAAAAAAAAAAAAAAAAAAAAAAAAAAAAAAAAAAAAAAAAAAAAAAAAAAAAAAAAAAAAAAAAAAAAAAAAAAAAAAAAAAAAAAAAAAAAAAAAAAAAAAAAAAAAAAAAAAAAAAAAAAAAAAAAAAAAAAAAAAAAAAAAAAAAAAAAAAAAAAAAAAAAAAAAAAAAAAAAAAAAAAAAAAAAAAAAAAAAAAAAAAAAAAAAAAAAAAAAAAAAAAAAAAAAAAAAAAAAAAAAAAAAAAAAAAAAAAAAAAAAAAAAAAAAAAAAAAAAAAAAAAAAAAAAAAAAAAAAAAAAAAAAAAAAAAAAAAAAAAAAAAAAAAAAAAAAAAAAAAAAAAAAAAAAAAAAAAAAAAAAAAAAAAFAH/Wpt/zqrEAAA4/VPSgAA8AoltLq2f/3v+9dg//pt/O7iHYUBABiPKSUAAPgB/aq3//N2lPAqrR787/3qD4oDADAeOrAAAF6mhFRXfuCfyC6s7MYaKBYAwPERYAEA/KOcdRXxX/evtdf4px/tX1fjdxevKxwAwPEQYAEAfFu/Wo/SdXXYYe0b+9fl+N3FR4oIADBaAiwAgFQGtd/Yv3pH+FMyvMoQa0NBAQBGR4AFANCvLkU5Mnh2RH9iHie8qhsLAGA0BFgAQHeVrqtr8W8bBkdpEGXA+x2FBgA4miklAAA6qV/19n/ejuMJr9LqwZ9fNhkCAHAEOrAAgO4podKVMf4bswsru7EGig8AcHgCLACgO/rVWpRZV2sT+LfnPKyci3XdCwEAcDgCLACgG/rVepSuq7MT/k1yQ+FlA94BAF6fAAsAaLcyqP3G/tWr0W+V4VWGWBteIACAVxNgAQDt1a8uRTkyeLamv2EeJ7yqGwsA4IcJsACA9ildV9fi+DYMjtIgyoD3O144AIDvN6UEAECr9Kve/s/b0YzwKq0e/L5lMyIAAN9DBxYA0B4lBLrS4GeQXVjZjTXwYgIA/BsBFgDQfP1qLcqsq7UWPJuch5Vzsa57YQEACgEWANBs/Wo9StfV2ZY9s9xQeNmAdwAAARYA0FRlUPuN/avX4meZ4VWGWBtecACgywRYAEDz9KtLUY4Mnu3IM87jhFd1YwEAXSXAAgCao3RdXYvmbBgcpUGUAe93/EUAALpmSgkAgEboV739n7ejm+FVWj14/mXTIgBAp+jAAgDqr4Q2VxTif8kurOzGGigFANAFAiwAoL761VqUWVdrivEdOQ8r52JdVwoAoO0EWABAPfWr9ShdV2cV4wflhsLLBrwDAG0mwAIA6qUMar+xf/UU47VleJUh1oZSAABtJMACAOqjX12KcmRQ19WbyeOEV3VjAQBtI8ACACavdF1di+5uGBylQZQB73eUAgBoiyklAAAmql/19n/eDuHVqKwe1LNsbgQAaAUdWADA5JSQ5YpCHJvswspurIFSAABNJsACAMavX61FmXW1phjHLudh5Vys60oBADSVAAsAGK9+tR6l68qg9vHKDYWXDXgHAJpIgAUAjEcZ1H5j/+opxsRkeJUh1oZSAABNIsACAI5fv7oU5cigrqt6yOOEV3VjAQBNIcACAI5P6bq6FjYM1tEgyoD3O0oBANTdlBIAAMeiX/X2f94O4VVdrR68PmUTJABArenAAgBGr4QiVxSiMbILK7uxBkoBANSRAAsAGJ1+tRZl1tWaYjROzsPKuVjXlQIAqBsBFgAwGv1qPUrXlUHtzZYbCi8b8A4A1IkACwA4mjKo/cb+1VOM1sjwKkOsDaUAAOpAgAUAvLl+dSnKkUFdV+2Uxwmv6sYCACZNgAUAHF7puroWNgx2wSDKgPc7SgEATMqUEgAAh9Kvevs/b4fwqitWD17vslkSAGAidGABAK+vhBhXFKKzsgsru7EGSgEAjJMACwB4tX61FmXW1ZpidF7Ow8q5WNeVAgAYFwEWAPDD+tV6lK4rg9r5ttxQeNmAdwBgHARYAMD3K4Pab+xfPcXgJTK8yhBrQykAgOMkwAIAvqtfXYpyZFDXFa8jjxNe1Y0FABwXARYA8G9K19W1sGGQwxtEGfB+RykAgFGbUgIA4EC/6u3/vB3CK97M6sHfn7KpEgBgpHRgAQDxr6HDFYVgRLILK7uxBkoBAIyCAAsAuqxfrUWZdbWmGIxYzsPKuVjXlQIAOCoBFgB0Vb9aj9J1ZVA7xyk3FF424B0AOAoBFgB0TRnUfmP/6ikGY5LhVYZYG0oBALwJARYAdEm/uhTlyKCuKyYhjxNe1Y0FAByWAAsAuqB0XV0LGwaZvEGUAe93lAIAeF1TSgAALdevevs/b4fwinpYPfj7WDZfAgC8Fh1YANBmJSS4ohDUVHZhZTfWQCkAgB8iwAKANupXa1FmXa0pBjWX87ByLtZ1pQAAXkaABQBt06/Wo3RdGdROk+SGwssGvAMA30eABQBtUQa139i/eopBQ2V4lSHWhlIAAN8mwAKANuhXl6IcGdR1RRvkccKrurEAgBcEWADQZKXr6lrYMEj7DKIMeL+jFADAlBIAQEP1q97+z9shvKKdVg/+fpdNmgBAx+nAAoAmKjf1VxSCjsgurOzGGigFAHSTAAsAmqRfrUWZdbWmGHRMzsPKuVjXlQIAukeABQBN0a/Wo3RdGdROl+WGwssGvANAtwiwAKDuyqD2G/tXTzHgQIZXGWJtKAUAdIMACwDqrF9dinJkUNcVfFceJ7yqGwsA2k+ABQB1VLquroUNg/AqgygD3u8oBQC015QSAEDN9Kve/s/bIbyC17F68N+XspkTAGgpHVgAUCflJvyKQsAbyS6s7MYaKAUAtIsACwDqoF+tRZl1taYYcCQ5DyvnYl1XCgBoDwEWAExav1qP0nVlUDuMTm4ovGzAOwC0gwALACalDGq/sX/1FAOORYZXGWJtKAUANJsACwAmoV9dinJkUNcVHL88TnhVNxYANJcACwDGqXRdXQsbBmHcBlEGvN9RCgBoniklAIAx6Ve9/Z+3Q3gFk7B68N+/sukTAGgYHVgAMA7lpvmKQkAtZBdWdmMNlAIAmkGABQDHqV+tRZl1taYYUCs5DyvnYl1XCgCoPwEWAByXfrUepevKoHaor9xQeNmAdwCoNwEWAIxaGdR+Y//qKQY0QoZXGWJtKAUA1JMACwBGqV9dinJkUNcVNE8eJ7yqGwsA6keABQCjULquroUNg9B0gygD3u8oBQDUx5QSAMAR9ave/s/bIbyCNlg9+O9z2RwKANSEDiwAOIpyk3tFIaCVsgsru7EGSgEAkyXAAoA30a/Wosy6WlMMaLWch5Vzsa4rBQBMjgALAA6rX61H6boyqB26IzcUXjbgHQAmQ4AFAK+rDGq/sX/1FAM6KcOrDLE2lAIAxkuABQCvo19dinJkUNcVkMcJr+rGAoDxEWABwA8pXVfXwoZB4O8Nogx4v6MUAHD8ppQAAF6iX/X2f94O4RXwXasH7w9lEykAcMx0YAHA9yk3pVcUAngN2YWV3VgDpQCA4yHAAoBv61drUWZdrSkGcAg5DyvnYl1XCgAYPQEWALzQr9ajdF0Z1A68qdxQeNmAdwAYLQEWAJRB7Tf2r55iACOQ4VWGWBtKAQCjIcACoNv61aUoRwZ1XQGjlscJr+rGAoCjE2AB0E2l6+pa2DAIHK9BlAHvd5QCAN7clBIA0Dn9qrf/83YIr4Djt3rwflM2mwIAb0gHFgDdUm4irygEMAHZhZXdWAOlAIDDEWAB0A39ai3KrKs1xQAmKOdh5Vys60oBAK9PgAVA+/Wr9ShdVwa1A3WRGwovG/AOAK9HgAVAe5VB7Tf2r55iADWU4VWGWBtKAQA/TIAFQDv1q0tRjgzqugLqLo8TXtWNBQAvJ8ACoF1K19W1sGEQaJZBlAHvd5QCAL5rSgkAaI1+1YtcVy+8Appn9eD9q2xKBQD+gQ4sANqh3PRdUQigBbILK7uxBkoBAIUAC4Bm61drUWZdrSkG0CI5DyvnYl1XCgAQYAHQZP1qPUrXlUHtQFvlhsLLBrwD0HUCLACapwxqv7F/9RQD6IAMrzLE2lAKALpKgAVAs/SrS1GODOq6AromjxNe1Y0FQBcJsABohtJ1dS1sGAS6bRBlwPsdpQCgS6aUAIDa61e9yPXywiuA1YP3w7J5FQA6QwcWAPVWbtKuKATAd2QXVnZjDZQCgLYTYAFQT/1qLcqsqzXFAHipnIeVc7GuKwUAbSbAAqB++tV6lK4rg9oBXk9uKLxswDsAbSXAAqA+yqD2G/tXTzEADi3DqwyxNpQCgLYRYAFQD/3qUpQjg7quAI4mjxNe1Y0FQJsIsACYrNJ1dS1sGAQYpUGUAe93lAKANphSAgAmpl/1ItfBC68ARm314P21bHIFgMbTgQXAZJSbqisKAXDssgsru7EGSgFAUwmwABivfrUWZdbVmmIAjE3Ow8q5WNeVAoAmEmABMD79aj1K15VB7QCTkRsKLxvwDkDTCLAAOH5lUPuN/aunGAATl+FVhlgbSgFAUwiwADhe/epSlCODuq4A6iWPE17VjQVAEwiwADgepevqWtgwCFBngygD3u8oBQB1NqUEAIxcv+pFrm8XXgHU3erB+3XZDAsAtaUDC4DRKjdBVxQCoHGyCyu7sQZKAUDdCLAAGI1+tRZl1tWaYgA0Vs7DyrlY15UCgDoRYAFwdP1qPUrXlUHtAO2QGwovG/AOQF0IsAB4c2VQ+439q6cYAK2T4VWGWBtKAcCkCbAAeDP96lKUI4O6rgDaLY8TXtWNBcAkCbAAOJzSdXUtbBgE6JJBlAHvd5QCgEmYUgIAXlu/6kWuWxdeAXTN6sH7f9k0CwBjpwMLgNdTblquKARA52UXVnZjDZQCgHERYAHww/rVWpRZV2uKAcC/ynlYORfrulIAMA4CLABerl+tR+m6MqgdgO+TGwovG/AOwHETYAHwXWVQ+439q6cYALxChlcZYm0oBQDHRYAFwN/rV5eiHBnUdQXAYeRxwqu6sQA4DgIsAIrSdXUtbBgE4M0Nogx4v6MUAIzSlBIAEP2qF7keXXgFwNGsHnyelM21ADAyOrAAuq7cZFxRCABGLLuwshtroBQAHJUAC6Cr+tValFlXa4oBwDHJeVg5F+u6UgBwFAIsgC7qV+tRuq4MagdgHHJD4WUD3gF4UwIsgC4pg9pv7F89xQBgzDK8yhBrQykAOCwBFkBX9KtLUY4M6roCYJLyOOFV3VgAHIYAC6DtStfVtbBhEID6GEQZ8H5HKQB4HVNKANBi/aoXuc5ceAVAvawefD6VTbgA8Eo6sADaqtwUXFEIAGouu7CyG2ugFAC8jAALoG361VqUWVdrigFAQ+Q8rJyLdV0pAPg+AiyANulX61G6rgxqB6CJckPhZQPeAfhHAiyANiiD2m/sXz3FAKDhMrzKEGtDKQB4QYAF0HT96lKUI4O6rgBokzxOeFU3FgBJgAXQVKXr6lrYMAhAew2iDHi/oxQA3TalBAAN1K96kevHhVcAtNvqwedd2awLQIfpwAJomvIl/opCANAx2YWV3VgDpQDoHgEWQFP0q7Uos67WFAOAjsp5WDkX67pSAHSLAAugCfrVepSuK4PaASAiNxReNuAdoDsEWAB1Vga139i/eooBAH8nw6sMsTaUAqD9BFgAddWvLkU5MqjrCgBeLo8TXtWNBdBuAiyAuildV9fChkEAeF2DKAPe7ygFQDtNKQFAjfSrXuS6cOEVABzG6sHnZ9nUC0AL6cACqIvypfuKQgDAkWQXVnZjDZQCoD0EWACT1q/Wosy6WlMMABiJnIeVc7GuKwVAOwiwACapX61H6boyqB0ARi83FF424B2g+QRYAJNQBrXf2L96igEAxyrDqwyxNpQCoLkEWADj1q8uRTkyqOsKAMYnjxNe1Y0F0EwCLIBxKV1X18KGQQCYlEGUAe93lAKgWaaUAGAM+lUvcr238AoAJmn14PO4bP4FoEF0YAEct/Il+YpCAECtZBdWdmMNlAKg/gRYAMelX61FmXW1phgAUEs5DyvnYl1XCoB6E2ABHId+tR6l68qgdgCov9xQeNmAd4D6EmABjFIZ1H5j/+opBgA0SoZXGWJtKAVA/QiwAEalX12KcmRQ1xUANFceJ7yqGwugXgRYAEdVuq6uhQ2DANAWgygD3u8oBUA9TCkBwBH0q17kOm7hFQC0yerB53vZJAxADejAAnhT5UvtFYUAgFbLLqzsxhooBcDkCLAADqtfrUWZdbWmGADQCTkPK+diXVcKgMkQYAEcRr9aj9J1ZVA7AHRPbii8bMA7wPgJsABeRxnUfmP/6ikGAHRahlcZYm0oBcD4CLAAXqVfXYpyZFDXFQDwQh4nvKobC2A8BFgAL1O6rq6FDYMAwPcbRBnwfkcpAI7XlBIAfI9+1Ytcny28AgBebvXg+0LZTAzAMdKBBfCPypfQKwoBABxCdmFlN9ZAKQBGT4AF8EK/Wosy62pNMQCAN5DzsHIu1nWlABgtARZA6lfrUbquDGoHAI4qNxReNuAdYHQEWEC3lUHtN/avnmIAACOU4VWGWBtKAXB0Aiygu/rVpShHBnVdAQDHJY8TXtWNBXA0Aiyge0rX1bWwYRAAGI9BlAHvd5QC4M1MKQHQKf2qF7nuWngFAIzP6sH3j7LpGIA3oAML6I7ypfGKQgAAE5RdWNmNNVAKgNcnwALar1+tRZl1taYYAEAN5DysnIt1XSkAXo8AC2i3frUepevKoHYAoG5yQ+FlA94BXk2ABbRTGdR+Y//qKQYAUGMZXmWItaEUAC8nwALap19dinJkUNcVANAUeZzwqm4sgO8nwALao3RdXQsbBgGAZhpEGfB+RykA/t6UEgCt0K96keuphVcAQHOtHnyfKZuTAfgWHVhA85UveVcUAgBokezCym6sgVIACLCAJutXa1FmXa0pBgDQQjkPK+diXVcKoOsEWEAz9av1KF1XBrUDAG2XGwovG/AOdJkAC2iWMqj9xv7VUwwAoEMyvMoQa0MpgC4SYAHN0a8uRTkyqOsKAOiqPE54VTcW0DUCLKD+StfVtbBhEAAgDaIMeL+jFEBXTCkBUGv9qhe5Tlp4BQDwwurB96OyiRmgE3RgAfVVvpRdUQgAgJfKLqzsxhooBdBmAiygfvrVWpRZV2uKAQDwSjkPK+diXVcKoK0EWEC99Kv1KF1XBrUDABxObii8bMA70EYCLKAeyqD2G/tXTzEAAN5YhlcZYm0oBdAmAixg8vrVpShHBnVdAQCMRh4nvKobC2gLARYwOaXr6lrYMAgAcBwGUQa831EKoOmmlACYiH7Vi1z/LLwCADguqwfft8pmZ4BG04EFjF/5EnVFIQAAxia7sLIba6AUQBMJsIDx6VdrUWZdrSkGAMDY5TysnIt1XSmAphFgAePRr9ajdF0Z1A4AMFm5ofCyAe9AkwiwgONVBrXf2L96igEAUBsZXmWItaEUQBMIsIDj068uRTkyqOsKAKCe8jjhVd1YQN0JsIDRK11X18KGQQCAJhhEGfB+RymAuppSAmCk+lUvcl2z8AoAoClWD76/lU3RALWkAwsYnfKl54pCAAA0VnZhZTfWQCmAOhFgAUfXr9aizLpaUwwAgMbLeVg5F+u6UgB1IcACjqZfrUfpujKoHQCgXXJD4WUD3oE6EGABb6YMar+xf/UUAwCgtTK8yhBrQymASRJgAYfXry5FOTKo6woAoBvyOOFV3VjApAiwgNdXuq6uhQ2DAABdNIgy4P2OUgDjNqUEwGvpV73I9crCKwCArlo9+D5YNk8DjJUAC3hdj+J/fv4oHu+qBABAt12ZWf8v/3L+P/3nnlIA4yLAAl5Ptoo/23sUn96PuPtFxDffqAkAQMe89fBRnP3Tf4vT/8//qxjAeN9/lAA4tO1hxJOnERcWI86cUg8AgA7I0Grmfxh/BUyGAAt4M3vPIz65F3F+PmJxXj0AAFrqxHAYs5u3YvrelmIAEyPAAo7mwXbEzm7E8rmIUyfVAwCgRU7+f5/G3GYV//RsTzGAiRJgAUf39FnEx1ulG2thTj0AABouA6sMrjLAAqgDARYwGjnUfethHGwpXDkfMWVHBABAE01v3Y+5m1VMDYeKAdSGAAsYrSdfR3z0WcTyYsTsafUAAGiQHNJuwyBQRwIsYPSyG+vT+xHzMxFLC7qxAADqfmP48FHMblYHjwC1fJ9SAuDYbA8jnjyNuLAYceaUegAA1FB2XGXnFUCdCbCA47X3POKTe2XA++K8egAA1MSJ4TBmN2/F9L0txQBqT4AFjMeD7Yid3YjlcxGnTqoHAMAE5XbB3DKY2wYBmkCABYzP02cRH2+VbqyFOfUAABizDKwyuMoAC6BJBFjAeOWA962HEY93I1bOG/AOADAm01v3Y+5mFVPDoWIAjSPAAibjydcRH30WsbwYMXtaPQAAjlEOac9h7QBNJcACJie7sT69HzE/E7G0oBsLAGDUN3wPH8XsZnXwCNDo9zMlACZuexjx5GnEhcWIM6fUAwBgBLLjKjuvANpAgAXUw97ziE/ulQHvi/PqAQDwhk4MhzG7eSum720pBtAaAiygXh5sR+zsRiyfizh1Uj0AAA4htwvmlsHcNgjQJgIsoH6ePov4eKt0Yy3MqQcAwCtkYJXBVQZYAG0kwALqKQe8bz2MeLwbsXLegHcAgJeY3rofczermBoOFQNoLQEWUG9Pvo746LOI5cWI2dPqAQDwLTmkPYe1A7SdAAuov+zG+vR+xPxMxNKCbiwAwI3cw0cxu1kdPAJ04n1PCYDG2B5GPHkacWEx4swp9QAAOik7rrLzCqBLBFhAs+w9j/jkXhnwvjivHgBAZ5wYDmN281ZM39tSDKBzBFhAMz3YjtjZjVg+F3HqpHoAAK2W2wVzy2BuGwToIgEW0FxPn0V8vFW6sRbm1AMAaJ0MrDK4ygALoMsEWECz5YD3rYcRj3cjVs4b8A4AtMb01v2Yu1nF1HCoGEDnCbCAdnjydcRHn0UsL0bMnlYPAKDRckh7DmsHoBBgAe2R3Vif3o+Yn4lYWtCNBQA07wbt4aOY3awOHgH41vujEgCtsz2MePI04sJixJlT6gEANEJ2XGXnFQDfJcAC2mnvecQn98qA98V59QAAauvEcBizm7di+t6WYgC8hAALaLcH2xE7uxHL5yJOnVQPAKBWcrtgbhnMbYMAvJwAC2i/p88iPt4q3VgLc+oBAExcBlYZXGWABcCrCbCAbsgB71sPIx7vRqycN+AdAJiY6a37MXeziqnhUDEAXpMAC+iWJ19HfPRZxPJixOxp9QAAxiqHtOewdgAOR4AFdE92Y316P2J+JmJpQTcWAHD8N14PH8XsZnXwCMAbvI8qAdBZ28OIJ08jLixGnDmlHgDAsciOq+y8AuDNCbCAbtt7HvHJvTLgfXFePQCAkTkxHMbs5q2YvrelGABHJMACSA+2I3Z2I5bPRZw6qR4AwJHkdsHcMpjbBgE4OgEWwAtPn0V8vFW6sRbm1AMAOLQMrDK4ygALgNERYAF8Ww5433oY8Xg3YuW8Ae8AwGub3rofczermBoOFQNgxARYAN/nydcRH30WsbwYMXtaPQCAH5RD2nNYOwDHQ4AF8DLZjfXp/Yj5mYilBd1YAMB3b6gePorZzergEYBjfL9VAoBX2B5GPHkacWEx4swp9QAADmTHVXZeAXD8BFgAr2PvecQn98qA98V59QCADjsxHMbs5q2YvrelGABjIsACOIwH2xE7uxHL5yJOnVQPAOiY3C6YWwZz2yAA4yPAAjisp88iPt4q3VgLc+oBAB2QgVUGVxlgATB+AiyAN5ED3rceRjzejVg5b8A7ALTY9Nb9mLtZxdRwqBgAEyLAAjiKJ19HfPRZxPJixOxp9QCAlskh7TmsHYDJEmABHFV2Y316P2J+JmJpQTcWALThRunho5jdrA4eAajB+7ISAIzI9jDiydOIC4sRZ06pBwA0VHZcZecVAPUhwAIYpb3nEZ/cKwPeF+fVAwAa5MRwGLObt2L63pZiANSMAAvgODzYjtjZjVg+F3HqpHoAQM3ldsHcMpjbBgGoHwEWwHF5+izi463SjbUwpx4AUEMZWGVwlQEWAPUlwAI4TjngfethxOPdiJXzBrwDQI1Mb92PuZtVTA2HigFQcwIsgHF48nXER59FLC9GzJ5WDwCYsBzSnsPaAWgGARbAuGQ31qf3I+ZnIpYWdGMBwCRugB4+itnN6uARgAa9fysBwJhtDyOePI24sBhx5pR6AMCYZMdVdl4B0DwCLIBJ2Hse8cm9MuB9cV49AOAYnRgOY3bzVkzf21IMgIYSYAFM0oPtiJ3diOVzEadOqgcAjFhuF8wtg7ltEIDmEmABTNrTZxEfb5VurIU59QCAEcjAKoOrDLAAaD4BFkAd5ID3rYcRj3cjVs4b8A4ARzC9dT/mblYxNRwqBkBLCLAA6uTJ1xEffRaxvBgxe1o9AOCQckh7DmsHoF0EWAB1k91Yn96PmJ+JWFrQjQUAr3Nj8/BRzG5WB48AtPB9XgkAamp7GPHkacSFxYgzp9QDAF4iO66y8wqA9hJgAdTZ3vOIT+6VAe+L8+oBAN9yYjiM2c1bMX1vSzEAWk6ABdAED7YjdnYjls9FnDqpHgB0Xm4XzC2DuW0QgPYTYAE0xdNnER9vlW6shTn1AKCTMrDK4CoDLAC6Q4AF0CQ54H3rYcTj3YiV8wa8A9Ap01v3Y+5mFVPDoWIAdIwAC6CJnnwd8dFnEcuLEbOn1QOA1ssh7TmsHYBuEmABNFV2Y316P2J+JmJpQTcWAO28YXn4KGY3q4NHADr8eaAEAA23PYx48jTiwmLEmVPqAUBrZMdVdl4BgAALoA32nkd8cq8MeF+cVw8AGu3EcBizm7di+t6WYgBwQIAF0CYPtiN2diOWz0WcOqkeADRObhfMLYO5bRAAXhBgAbTN02cRH2+VbqyFOfUAoBEysMrgKgMsAPhHAiyANsoB71sPIx7vRqycN+AdgFqb3rofczermBoOFQOA7yXAAmizJ19HfPRZxPJixOxp9QCgdnJIew5rB4AfIsACaLvsxvr0fsT8TMTSgm4sAOpxI/LwUcxuVgePAPDKzw0lAOiI7WHEk6cRFxYjzpxSDwAmJjuusvMKAF6XAAugS/aeR3xyrwx4X5xXDwDG6sRwGLObt2L63pZiAHAoAiyALnqwHbGzG7F8LuLUSfUA4NjldsHcMpjbBgHgsARYAF319FnEx1ulG2thTj0AOBYZWGVwlQEWALwpARZAl+WA962HEY93I1bOG/AOwEhNb92PuZtVTA2HigHAkQiwAIh48nXER59FLC9GzJ5WDwCOLIe057B2ABgFARYARXZjfXo/Yn4mYmlBNxYAb3aD8fBRzG5WB48AMLLPFyUA4O9sDyOePI24sBhx5pR6APDasuMqO68AYNQEWAB8197ziE/ulQHvi/PqAcAPOjEcxuzmrZi+t6UYABwLARZwGP/H/tVThg55sB2xsxuxfC7i1En1AOA7crtgbhnMbYN0yuBfL4Cx+CclAA7l/Q/W9n/+1/1rTTE6JOdhZTfWwpxaAFBuJJ7tHQRXGWDROX/cv37/4E//bNAZML7PHSUA3sj7H1zb/7muEB1z5u2IlfMGvAN03PTW/Zi7WcXUcKgY3ZKB1eUHf/rnDaUAxk2ABby59z/oRenGWlWMDsnwankxYva0WgB0UA5pz2HtdM6H+9dvdV0BkyLAAo7m/Q/ORgmxLilGx8zPRCwt6MYC6Ii3Hj6K2c3q4JFOyRf86oM//fN1pQAmSYAFjMb7H2SAlUHWWcXokOm3Ii4sRpw5pRYALZYdV9l5Refki55HBr34wMQJsIDRef+D1SghVk8xOiYHvC/OqwNAy5wYDmN281ZM39tSjO7Jrqs/KANQFwIsYPTe/yCHu19TiI45dTJi+Vx5BKDxcrtgbhnMbYN0yiBK19WHSgHUiQALOB7vf7AWpRtrTTE6JOdhZTfWwpxaADT1BuHZ3kFwlQEWnfPH/ev3BrUDtfx8UgLgWL3/QXZirStEx5x5O2LlvAHvAA0zvXU/5m5WMTUcKka3ZGCVXVcbSgHUlQALOH7vf9CL0o21qhgdkuHV8mLE7Gm1AGiAHNKew9rpnA/3r9/qugLqToAFjMf7H+R2wgyxLilGx8zPRCwt6MYCqKm3Hj6K2c3q4JFOyRc8B7VfVwqgCQRYwHi9/0EGWBlknVWMDpl+K+LCYsSZU2oBUCPZcZWdV3ROvuh5ZNCLDzSGAAsYv/c/WI0SYvUUo2NywPvivDoATNiJ4TBmN2/F9L0txeie7Lr6gzIATSPAAibn/Q9yuPs1heiYUycjls+VRwDGLrcL5pbB3DZIpwyidF19qBRAEwmwgMl6/4O1KN1Ya4rRITkPK7uxFubUAmBcX/yf7R0EVxlg0Tl/3L9+b1A70OjPMSUAauH9D7ITa10hOubM2xEr5w14Bzhm01v3Y+5mFVPDoWJ0SwZW2XW1oRRA0wmwgPp4/4NelG6sVcXokAyvlhcjZk+rBcAxyCHtOaydzvlw//qtriugLQRYQL28/0FuJ8wQ65JidMz8TMTSgm4sgBF56+GjmN2sDh7plHzBc1D7daUA2kSABdRPv1qLr4Y34t7D1fjmG/Xokum3Ii4sRpw5pRYAR5AdV9l5Refki55HBr34QOsIsIB66Vf/tplw73nE3S8jnnytLl2TA94X59UB4JBODIcxu3krpu9tKUbHPPn3/y6vD/f/x9/G7y5quwNaR4AF1EO/Wo1ydLD3nf/s4U7E1kM16ppTJyOWz5VHAF4ptwvmlsHcNkh3fDMzEzu/uhh7S++8+D8dDG6P3100uB1oFQEWMHn9KuddZXh19qX/zNNnEZ9/WR7pjpyHld1YC3NqAfCyL/TP9g6Cqwyw6JanP1uNx798N/7l5PT3/cd/3L9+rxsLaM3nnRIAE9OvDj+wPTuxsiOLbjnzdsTKeQPeAf7B9Nb9mLtZxdRwqBgdkoHVznsX49lPVl71jw6idGN9qGpA0wmwgMnoV70o4dXqof9/nzyNuPtFmZFFd2R4tbwYMXtaLQD25ZD2HNZOt+z9eCm++s2vX9Z19TJX43cX/6B6QJMJsIDx61c5pH39SH9Gbif8/IuIx7vq2TXzMxFLC7qxgM566+GjmN2sDh7pjgysclD77i9+/qZ/xMGGwvjdRRsKgUYSYAHj06/WonRdrY3sz8wAK4OsDLTojum3Ii4sRpw5pRZAp2THVXZe0S3PF87G4/cuHjweUaae2Y11XVWBphFgAePRr7Lj6tqx/Nl5lPDulxFPvlbnrskB74vz6gC03onhMGY3b8X0vS3F6JjsusprxD7cv35rwDvQJAIs4Hj1q9UoXVe9Y/935XD3HPJOt5w6GbF8rjwCtFBuF8wtg7ltkO74ZmYmdn51MfaW3jmuf0WGV3mkcEO1gSYQYAHHp1/ldsEMr86O7d/59FnE51+WR7oj52FlN9bCnFoA7fmi/mzvILjKAItuefqz1Xj8y3cPO6j9Tf1x//q9biyg9p+LSgCMXL/KwCqDq0sT+x2yEys7suiWM29HrJw34B1ovOmt+zF3s4qp4VAxOiQDq533Lsazn6yM+189iNKN9aFXAagrARYwWv2qFyW8Wp347/LkacTdL8qMLLojw6vlxYjZ02oBNFIOac9h7XTL3o+X4qvf/HpcXVcvkwPe/+DVAOpIgAWMTr/KIe3rtfqdcjthbinMbYV0y/xMxNKCbiygMd56+ChmN6uDR7ojA6sc0r77i5/X5VfKNZfZjWXdJVArAizg6PrVWpSuq7Xa/o4ZYGWQlYEW3TH9VsSFxYgzp9QCqLXsuMrOK7rl+cLZePzexYPHmskUNbuxrnuVgLoQYAFH06+y4+paI37XPEp498uIJ1973bomB7wvzqsDUDsnhsOY3bwV0/e2FKNjsusqr5r7cP/6rQHvQB0IsIA3069Wo3Rd9Rr3u+dw9xzyTrecOhmxfK48AtRAbhfMLYO5bZDu+GZmJnZ+dTH2lt5pyq+c4VUeKdzw6gGTJMACDq9f5XbBDK/ONvY5PH0W8fmX5ZHuyHlY2Y21MKcWwOS+gD/bOwiuMsCiW57+bDUe//LdSQ9qf1N/3L9+rxsLmNjnpxIAr61fZWCVwdWl1jyn7MTKjiy65czbESvnDXgHxm56637M3axiajhUjA7JwGrnvYvx7CcrTX8qgyjdWB96VYFxE2ABr6df9aKEV6ute25Pnkbc/aLMyKI7MrxaXoyYPa0WwFjkkPYc1k637P14Kb76za+b2nX1Mjng/Q9eXWCsX9+VAHhNj+J/fv7oYJtf2+SGutULgoyuyY2Un94v4aXtlMAxeuvhozj7p/8mvOqYDKyG/2Ettv9jr23hVR6DvTKz/l/+5fx/+s89rzQwLgIs4PX87uKdeLb36OCGP6+23fBnN87KO+VyrKxbtocRg7ulEw9gxDK0yvAqQyy64/nC2dj+j/9b7P7i5617bvl3ef7//O8CWWD87z9KABxadmHlDf+FxdK91CbZhZXdWHe/jHjytde6K/L46Cf3yoD3xXn1AI7sxHAYs5u3YvrelmJ0zJN//+8OrjY683/93wcXwCQIsICj3fDnNrelhXY9t+n9t8afLpXh7jnkne54sB2xsxuxfC7i1En1AN5IbhfMLYO5bZDu+GZmJnZ+dTH2lt5p3XMTyAJ1IMACjiZDnjx61cYb/gznssPs8y8jnj7zWndFvtYfb5VurPw7APCaMrDK4CoDLDr20fGz1Xj8y3dbN+sqvf23Qcz89bZAFpg4ARYwmhv+PFKYnVhtu+HPUC6PFGYnVoZ1dEPOeMvXPI/Lrpw3Fw14pemt+zF3s4qp4VAxOiQDq533Lsazn6y07rkJZIG6EWABo/Pihv/CuXIMr00ynJs9UzbW5fFJuiHnoH30WcTyoi2VwEvN/I87Blp30N6Pl+Kr3/y6lV1XGcj+6M9/0XUF1IoACxj9DX92Y7Xxhj+PE2Y31udflKCObshurNy8OT9TgkzdWMCLL9IPH8XsZmXDYMdkYJVD2tu4YTADqxzSLpAFavm5qwTAsd3wZ4CVQVabbvjzuay8UwKsDLLyudIN28My762N2zeBQ8sb/Oy8olueL5yNx+9dPHhs3Y2hQBao+/uUEgDHJkOe7MZq4w1/hnPZjXX3y9J1Rje82L6ZA94X59UDOsg2tu7Krqu82ii7rvICqDMBFjCeG/4c7p7Hr9ok53z9dKkMd8/5X3THg+2Ind12bt8EXiqHWedQa3OBuuWbmZnY+dXF2Ft6p3XPTSALNIkACxiPDHny+FUbb/gznMsOs8+/LBsZ6YZ8rT/eKt1Ybdu+Cfwd29g6/Fb/s9V4/Mt3Wzmo/e2/DWLmr7cFskBjCLCA8d7w55HC7MRq2w1/hnJ5pDA7sTKsoxtyBtqL7Zsr5w14hxbKbWxzN6uYGg4Vo0MysNp572I8+8lK656bQBZoKgEWMH4vbvgvnCvH8Nokw7nZMxF3vyjHJ+mGnIP20Wft3L4JHZZD2m1j6569Hy/FV7/5dSu7rjKQ/dGf/6LrCmgkARYwuRv+7MZq4w1/HifMbqzcUphBHd3wYvvm/EwJMnVjQXO/INvG1kkZWOWQ9t1f/Lx1zy0DqxzSLpAFGv35rATAxG/4M8DKIKtNN/z5XFbeKQFWBln5XOmG7WGZ99bG7ZvQAXmDn51XdMvzhbPx+L2LB4+tu+ETyAJteT9TAmDiMuTJbqw23vBnOJfdWHe/LF1ndMOL7Zs54H1xXj2gAWxj667susqrjbLrKi+ANhBgAfW64c/h7nn8qk1yztdPl8pw95z/RXc82I7Y2W3n9k1okRxmnUOtzQXqlm9mZmLnVxdjb+md1j03gSzQRgIsoF4y5MnjV2284c9wLjvMPv+ybGSkG/K1/nirdGO1bfsmNJxtbB1+a/7Zajz+5butHNT+9t8GMfPX2wJZoHUEWEA9b/jzSGF2YrXthj9DuTxSmJ1YGdbRDTkD7cX2zZXzBrxDDeQ2trmbVUwNh4rRIRlY7bx3MZ79ZKV1z00gC7SdAAuorxc3/BfOlWN4bZLh3OyZiLtflOOTdEPOQfvos3Zu34QGySHttrF1z96Pl+Kr3/y6lV1XGcj+6M9/0XUFtJoAC6j/DX92Y7Xxhj+PE2Y3Vm4pzKCObnixfXN+pgSZurFgfF98bWPrpAysckj77i9+3rrnloFVDmkXyAKd+BxXAqAxN/wZYGWQ1aYb/nwuK++UACuDrHyudMP2sMx7a+P2TaihvMHPziu65fnC2Xj83sWDx9bdyAlkgY4RYAHNkSFPdmO18YY/w7nsxrr7Zek6oxtebN/MAe+L8+oBx8A2tu7Krqu82ii7rvIC6BIBFtDMG/4c7p7Hr9ok53z9dKkMd8/5X3THg+2Ind12bt+ECcph1jnU2lygbvlmZiZ2fnUx9pbead1zE8gCXSbAApopQ548ftXGG/4M57LD7PMvy0ZGuiFf64+3SjdW27ZvwpjZxtbht9KfrcbjX77bykHtb/9tEDN/vS2QBTpLgAU0+4Y/jxRmJ1bbbvgzlMsjhdmJlWEd3ZAz0F5s31w5b8A7vIHcxjZ3s4qp4VAxOiQDq533Lsazn6y07rkJZAEKARbQfC9u+C+cK8fw2iTDudkzEXe/KMcn6Yacg/bRZ+3cvgnHKIe028bWPXs/XoqvfvPrVnZdZSD7oz//RdcVQAiwgDbd8Gc3Vhtv+PM4YXZj5ZbCDOrohhfbN+dnSpCpGwte/oXWNrZOysAqh7Tv/uLnrXtuGVjlkHaBLMC3Pu+VAGjdDX8GWBlktemGP5/LyjslwMogK58r3bA9LPPe2rh9E0Ygb/Cz84pueb5wNh6/d/HgsXU3aAJZgO9/f1QCoHUy5MlurDbe8Gc4l91Yd78sXWd0w4vtmzngfXFePSBsY+uy7LrKq42y6yovAL5LgAW0+4Y/h7vn8as2yTlfP10qw91z/hfd8WA7Yme3nds34RBymHUOtTYXqFu+mZmJnV9djL2ld1r33ASyAK8mwALaLUOePH7Vxhv+DOeyw+zzL8tGRrohX+uPt0o3Vtu2b8Ir2MbW4be+n63G41++28pB7W//bRAzf70tkAV4BQEW0I0b/jxSmJ1Ybbvhz1AujxRmJ1aGdXRDzkB7sX1z5bwB73RCbmObu1nF1HCoGB2SgdXOexfj2U9WWvfcBLIAhyPAArrjxQ3/hXPlGF6bZDg3eybi7hfl+CTdkHPQPvqsnds34VtySLttbN2z9+Ol+Oo3v25l11UGsj/68190XQEcggAL6N4Nf3ZjtfGGP48TZjdWbinMoI5ueLF9c36mBJm6sWjTF1Xb2DopA6sc0r77i5+37rllYJVD2gWyAG/wvUAJgM7e8GeAlUFWm27487msvFMCrAyy8rnSDdvDMu+tjds36aS8wc/OK7rl+cLZePzexYPH1t14CWQBjvY+qgRAZ2XIk91Ybbzhz3Auu7Huflm6zuiGF9s3c8D74rx60Ei2sXVXdl3l1UbZdZUXAG9OgAW44c8b/hzunsev2iTnfP10qQx3z/lfdMeD7Yid3XZu36TVcph1DrU2F6hbvpmZiZ1fXYy9pXda99wEsgCjI8ACSBny5PGrNt7wZziXHWaff1k2MtIN+Vp/vFW6sdq2fZPWsY2tw29VP1uNx798t5WD2t/+2yBm/npbIAswIgIsgG/f8OeRwuzEatsNf4ZyeaQwO7EyrKMbcgbai+2bK+cNeKeWchvb3M0qpoZDxeiQDKx23rsYz36y0rrnJpAFOB4CLIB/9OKG/8K5cgyvTTKcmz0TcfeLcnySbsg5aB991s7tmzRaDmm3ja179n68FF/95tet7LrKQPZHf/6LriuAYyDAAnjZDX92Y7Xxhj+PE2Y3Vm4pzKCObnixfXN+pgSZurGY5BdQ29g6KQOrHNK++4uft+65ZWCVQ9oFsgDH+P1BCQBeccOfAVYGWW264c/nsvJOCbAyyMrnSjdsD8u8tzZu36QR8gY/O6/olucLZ+PxexcPHlt3QyWQBRjP+60SALxChjzZjdXGG/4M57Ib6+6XpeuMbnixfTMHvC/OqwdjYRtbd2XXVV5tlF1XeQFw/ARYAIe54c/h7v8/e3cTE/e57Xt+HSfYZaoA24QyCYmEiJQMjk7LuGWaCAdZaqmlO8vueaRk0PNE6iHSceaR4nFPzj7yFCmZRbqj3Gq4G2Ed8HRvtblon41fCoMNVPmFsn2bXz357xBnJzG4Xv611vcjVZDu1Tkn/6ewq9Yv61lL16880Zyv98ppuLvmfyGO+ztme499bt9ErmiYtYZaMxcolhfFou19NGWN8oi7ZyOQBYDOI8ACgKNQyKPrVx4LfoVz6jC7s502MiIGvdd/raZuLG/bN9F1bGML/FfLxLjVLk66HNReWFu34soqgSwAdBgBFgAcp+DXlUJ1Ynkr+BXK6UqhOrEU1iEGzUDLtm+OvcWAd7SEtrEN/GnZTtTrHEYgCqz2pqds/90xd89GIAsA3UWABQDHlRX8o+fSNTxPFM6V+s3ubqXrk4hBc9Bu3fa5fRMdpSHtbGOLp3G+bLsfz7jsulIgO1hZoOsKALqIAAsAXrfgVzeWx4Jf1wnVjaUthQrqEEO2fXOomIJMurFwlC+WbGMLSYGVhrQ//vADd8+mwEpD2glkASAH3zM4AgBoUcGvAEtBlqeCX88yNpICLAVZelbEsFNP8948bt9EW6jAV+cVYnl29ozVpqeaP90VSgSyAJCvv5c5AgBoEYU86sbyWPArnFM31t3t1HWGGLLtmxrwPjzEeeAfYhtbXOq60ssjdV3pBQDIDwIsAGhHwa/h7rp+5YnmfL1XTsPdNf8LcdzfMdt77HP7Jl6LhllrqDVzgWJ5USza3kdT1iiPuHs2AlkAyC8CLABoB4U8un7lseBXOKcOszvbaSMjYtB7/ddq6sbytn0TR8Y2tsB/FUyMW+3ipMtB7YW1dSuurBLIAkBOEWABQDsLfl0pVCeWt4JfoZyuFKoTS2EdYtAMtGz75thbDHgPStvYBv60bCfqdQ4jEAVWe9NTtv/umLtnI5AFgN5AgAUA7ZYV/KPn0jU8TxTOlfrN7m6l65OIQXPQbt32uX0Tv0lD2tnGFk/jfNl2P55x2XWlQHawskDXFQD0AAIsAOhUwa9uLI8Fv64TqhtLWwoV1CGGbPvmUDEFmXRj+f7CyDa2kBRYaUj74w8/cPdsCqw0pJ1AFgB66PsIRwAAHS74FWApyPJU8OtZxkZSgKUgS8+KGHbqad6bx+2baFKBr84rxPLs7BmrTU81f7orgAhkAaA3//7mCACgwxTyqBvLY8GvcE7dWHe3U9cZYsi2b2rA+/AQ5+EE29jiUteVXh6p60ovAEDvIcACgG4W/BrurutXnmjO13vlNNxd878Qx/0ds73HPrdvBqNh1hpqzVygWF4Ui7b30ZQ1yiPuno1AFgB6HwEWAHSTQh5dv/JY8CucU4fZne20kREx6L3+azV1Y3nbvhkA29gC/9GdGLfaxUmXg9oLa+tWXFklkAWAHkeABQB5KPh1pVCdWN4KfoVyulKoTiyFdYhBM9Cy7ZtjbzHgvUdoG9vAn5btRL3OYQSiwGpvesr23x1z92wEsgDgCwEWAORFVvCPnkvX8DxROFfqN7u7la5PIgbNQbt12+f2TWc0pJ1tbPE0zpdt9+MZl11XCmQHKwt0XQGAIwRYAJC3gl/dWB4Lfl0nVDeWthQqqEMM2fbNoWIKMunGytcXQbaxhaTASkPaH3/4gbtnU2ClIe0EsgDg8HsLRwAAOS34FWApyPJU8OtZxkZSgKUgS8+KGHbqad6bx+2bPUoFvjqvEMuzs2esNj3V/OmusCGQBQDXCLAAIK8U8qgby2PBr3BO3Vh3t1PXGWLItm9qwPvwEOfRJWxji0tdV3p5pK4rvQAAfhFgAUAvFPwa7q7rV55oztd75TTcXfO/EMf9HbO9xz63b+achllrqDVzgWJ5USza3kdT1iiPuHs2AlkAiIMACwB6gUIeXb/yWPArnFOH2Z3ttJERMei9/ms1dWN5276ZQ2xjC/xHbWLcahcnXQ5qL6ytW3FllUAWAIIgwAKAXir4daVQnVjeCn6FcrpSqE4shXWIQTPQsu2bY28x4L1NtI1t4E/LdqJe5zACUWC1Nz1l+++OuXs2AlkAiIkACwB6TVbwj55L1/A8UThX6je7u5WuTyIGzUG7ddvn9s0u05B2trHF0zhftt2PZ1x2XSmQHaws0HUFAAERYAFArxb86sbyWPDrOqG6sbSlUEEdYsi2bw4VU5BJN9brfcFjG1tICqw0pP3xhx+4ezYFVhrSTiALAIG/33AEANDjBb8CLAVZngp+PcvYSAqwFGTpWRHDTj3Ne/O4fbNDVOCr8wqxPDt7xmrTU82f7goWAlkAgBFgAUDvU8ijbiyPBb/COXVj3d1OXWeIIdu+qQHvw0OcxytiG1tc6rrSyyN1XekFAAABFgB4Kvg13F3XrzzRnK/3ymm4u+Z/IY77O2Z7j31u32wxDbPWUGvmAsXyoli0vY+mrFEecfdsBLIAgJcRYAGAJwp5dP3KY8GvcE4dZne200ZGxKD3+q/V1I3lbftmC7CNLfAfjYlxq12cdDmovbC2bsWVVQJZAMDPEGABgMeCX1cK1YnlreBXKKcrherEUliHGDQDLdu+OfYWA95/pG1sA39athP1OocRiAKrvekp2393zN2zEcgCAH4LARYAeJUV/KPn0jU8TxTOlfrN7m6l65OIQXPQbt32uX3ziDSknW1s8TTOl2334xmXXVcKZAcrC3RdAQB+FQEWAHgv+NWN5bHg13VCdWNpS6GCOsSQbd8cKqYgM1g3FtvYYlJgpSHtjz/8wN2zKbDSkHYCWQDA734P4ggAIEjBrwBLQZangl/PMjaSAiwFWXpWxLBTT/PePG7f/BUq8NV5hVienT1jtemp5k93hQiBLADgKJ8bHAEABKGQR91YHgt+hXPqxrq7nbrOEEO2fVMD3oeH3D4m29jiUteVXh6p60ovAABeFQEWAEQs+DXcXdevPNGcr/fKabi75n8hjvs7ZnuPXW7f1DBrDbVmLlAsL4pF2/toyhrlEXfPRiALADguAiwAiEghj65fOSz4m+GcOszubKeNjIhB7/Vfq6kby8H2TbaxBf5Vnhi32sVJl4PaC2vrVlxZJZAFABwLARYARC74daVQnVgOCv6fUSinK4XqxFJYhxg0Ay3bvjn2Vs/Oe9M2toE/LduJep33NBAFVnvTU7b/7pi7ZyOQBQC0AgEWAESXFfyj59I1PE8UzpX6ze5upeuTiEFz0G7d7sntmxrSzja2eBrny7b78YzLrisFsoOVBbquAACvjQALAJAKfnVj9WDB/7t0nVDdWNpSqKAOMWTbN4eKKcjMeTcW29hiUmClIe2PP/zA3bMpsNKQdgJZAEDLvi9xBACAnxX8CrAUZPXo9at/SM8yNpICLAVZelbEsFNP895yvH1TBb46rxDLs7NnrDY91fzprsAgkAUAtOPzhSMAAPyMQh51Y+W44D82hXPqxrq7nbrOEEO2fVMD3oeHcvOvxTa2uNR1pZdH6rrSCwCAViPAAgD8esGv4e66fuWJ5ny9V07D3TX/C3Hc3zHbe5yL7ZsaZq2h1swFiuVFsWh7H01Zozzi7tkIZAEA7UaABeAo/v3gdeHgdYajCEIhj65f5aDgbzmFc+owu7OdNjIiBr3Xf62mbqwubN9kG1vgX72JcatdnHQ5qL2wtm7FlVUC2XjWf3wBQGe+R3EEAI5kbl4B1r9ZCrIQiTqxulDwd4Q6sRTWIZb+gtnYWx2b96ZtbAN/WrYT9TpnH4gCq73pKdt/d8xfIUEgG9m1g9dX97//mkFnADr3ucMRADiWufmrB//8Vw4iYME/ei5dw/NGnWZ3t9L1ScSh8KoD2zc1pJ1tbPE0zpdt9+MZl11XCmQHKwt0XcWjwOrz+99//R1HAaDTCLAAHN/c/BVL3VjjHAYFvwvaTqgthRpkj1iGiqnLsMXdWGxji0mBlYa0P/7wA3/Fw36jOaSdQDYkhVaf03UFoGufQRwBgNcyN695WN8cvD7jMIJRgKUgq0PXrzpKAZaCLAVaiEOdhS3cvqkCX51XiOXZ2TNWm55q/vSGQDYsveG6LniNowDQTQRYAFpjbv4TS91YDHin4PdBVwnvbps9esL7HI0GvA8PHft/nG1scanrSi+P1HWlF8JRCv+H+99/vc5RAOg2AiwArZO6sb49eF3hMILRcHddv/JIw9015B2xaOvmMbZvapi1hlozFyiWF8Wi7X00ZY3yiLtnI5ANTV1XVzkGAHlBgAWg9ebmv7A04J1uLAp+H57um93ZTj8Rh67HqhvrFbZvso0trqcT41a7OOlyUHthbd2KK6sEsvGsW+q64g40gFwhwALQHnPzFyxdKbzAYQSjTqxXKPh7kjqx1JGFWLR9c+ytX533pm1sA39athP1OmcViAKrvekp2393zF+BQCAbmeZcfcWgdgC5/HziCAC01dz8VUvdWIhW8I+eSzOyvHn01OzuVpqRhTh+ZfumhrSzjS2exvmy7X4847LrSoHsYGWBrqt4FFhpw+B3HAWAvCLAAtB+c/NXLHVjjXMYFPwuaDuhthRqWyFiGSo2uwzf3NllG1tACqw0pP3xhx/4Kwr2G80h7QSyISm0+pyuKwC5/6ziCAB0RBrw/s3B6zMOIxgFWAqyfuX6VU9TgKUgS4EW4uh7095aWuAcgnl29ozVpqeaP71REEsgG5LecF0XvMZRAOgFBFgAOmtu/hNL3VgMeA9W8NvosFn/KX/PpquEd7fNHj3hfQ7krf9Y4hACUdeVXh6p60ovhKMB7RrUvs5RAOgVBFgAOi91Y3178LrCYQSj4e4a8u6RhrtryDtCIMCK4UWxaHsfTVmjPOLu2d6o1620dMP67lV5o+NR19VVjgFAryHAAtA9c/NfWBrwTjdWJKdOmr19Lv305um+2Z3t9BOuEWD593Ri3GoXJ10Oai+srVtxZZVB7fGsW+q6uslRAOhFBFgAumtu/oKlK4UXOIxg1ImljiyP1Imljiy4RYDllwKrvekp2393zN8X//2GDSwt28m/bfBGx6M5V18xqB1AT3+OcQQAcmFu/qqlbixE0l8wGz2XZmR58+ip2d2tNCML7hBg+dQ4X7bdj2dcdl31VTdtsLJA11U8Cqy0YfA7jgJAryPAApAfc/NXLHVjjXMYgWg7obYUaluhN9pOqC2F2lYIVwiwfFFgpSHtjz/8wN+X/f1Gc0j76T//hTc6HoVWn9N1BcDNZxpHACBX0oD3bw5en3EYwSjAUpClQMsbBVgKshRowQUCLD+enT1jtemp5k9v3nzw0EpLy82fCEVvuK4LXuMoAHhCgAUgf64vX7Dd+rd278E4BX8wuko4OmzWf8rfs+kq4d1ts0dPeJ8dIMDyQV1Xenmkriu9EI4GtGtQ+zpHAcCbNzkCALlyffmqaRbWYDF15Gzcp+CPRCHPf95Lw9015N0ThXPvldNwdw15B9A1L4pF2/toyhrlEXfP9ka9bqWlG9Z3r8obHcyPgWxqt/v+aw4EgDt0YAHIh+vL45bmX135xf+fCv77O1y/iubUSbO3z6Wf3jzdN7uznX6iJ9GB1cN//CbGrXZx0uWg9sLauhVXVhnUHowC2d3ZmcPXYJuD2+3TKQa3A3CFAAtA911f/szS3KszFPz4BXViqSPLI3ViKaBFzyHA6j0KrPamp2z/3TF/X+j3GzawtGwn/7bBGx2MFg+o8+pXAtnmEHf7dIohaAB8fN5xBAC65vqyAit1XX3yyv8zWzupGwux9BfMRs+la3jePHpqdncrXZ9EzyDA6i2N82Xb/XjGZddVX3XTBisLdF0Fc4RAdt1SiPUDpwag1xFgAeiO68tXDv75rf1W1xUFPw7TdkJtKdRsNG90PVZbCrWtED2BAKt3inx1p6hLxd2X+P1Gc0j76T//hTc6GIVWCq+OGMhes0+nvuT0APT0Zx9HAKCjUtfVvx68vnjtgl/Xr3bqnGk0CrAUZCnQ8kYBloIs5r3lHgFW/mkeUO2gyD80F8iNNx88tNLScvMn4mhBIKsNherGuslpAuhFBFgAOuf68gVLVwYvUPDjtegq4eiwWf8pf8+mzsK722zfzDkCrHz7cRuby2dT15VeiEVB7N7sjD0vFlvxv+5L+3TqGqcKoNcQYAHojOvLVy11XrWewquN+xT8EWm4u4a8e6Th7uoyRC4RYOWTtrHtfTRljfKIu2d7o1630tIN67tX5Y0Opk2B7A+WurHWOWEAvYIAC0B7XV8et9R1daUjBb8GvNONFcupk2Zvn0s/vWH7Zm4RYOXwj8vEuNUuTroc1F5YW7fiyiqD2oNRILs7O9POa7C6g6oQ6ztOG0AvIMAC0D7Xlz87+Oc3dpxB7RT8OCp1YqkjyyN1YimgRW4QYOXHEbax9d4X9f2GDSwt28m/bfBGB6M5V+q66lAgqwBLQRZD1QDk+3ORIwDQcmlQu7quPunav8PWTurGQiz9BbPRc2lGljds38wVAqx8aJwv2+7HMy67rvqqmzZYWaDrKpguBrLrlkKsH3gXAOQVARaA1rq+fOXgn99aJ7uuKPhxmLYTakuhthV6o+uxWlqg5QXoKgKs7hf5r7mNLb9fzvcbzSHtp//8F97oYBRaKbzqciB7zT6d+pJ3A0AuPyM5AgAtkbquNKT9i9wV/Lp+tVPnPYpGAZaCLAVa3rB9s+sIsLpH84BqB0V+G+cCdc2bDx5aaWm5+RNx5DCQvWmpG+sm7w6APCHAAvD6ri9fsHRl8AIFP3JFVwlHh836T/l7NnUW3t1m+2aXEGB1R5u2seWCuq70QiwKYvdmZ+x5sZjHf70v7dOpa7xLAPKCAAvA67m+fNVS51X+KbzauE/BH5GGu2vIu0ca7q4uQ3QUAVaH//o+KO73PpqyRnnE3bO9Ua9baemG9d2r8kYH0yOB7A+WurHWeccAdBsBFoDjub48bqnr6kpPFvwa8E43ViynTpq9fS799Ibtmx1HgNXBX++JcatdnHQ5qL2wtm7FlVUGtQejQHZ3dqaXrsHqTqtCrO949wB0EwEWgKO7vvzZwT+/sTwMaqfgx1GpE0sdWR6pE0sBLdqOAKv9uriNrf1fwPcbNrC0bCf/tsEbHYzmXKnrqkcDWQVYCrIY0gagO5+fHAGAV5YGtavr6hM3z7S1k7qxEEt/wWz0XJqR5Q3bNzuCAKu9GufLtvvxjMuuq77qpg1WFui6CsZRILtuKcT6gXcVQKcRYAF4NdeXrxz881vr5a4rCn4cpu2E2lKobYXe6HqslhZoeQHaggCrfUV+zraxte5L936jOaT99J//whsdjEIrhVfOAtlr9unUl7y7ADrpDY4AwCv5P/+vM/Y/7lw5KPpHreBshpC6cIaKZs+fmz3lv4jHqZT/p9neo3SNVCHWPzn6bzp6lsGD32n9Wa0/Sc+Kluq/8zcOocXSNrbLLq8MvvngoQ3+v4t2iiuDsT5mFMhe+F+s/r9OHlRdvsquf9pvTBcnpq8Onf3wvz36//77Ou82gI58nnIEAF7Jp1M3bW7+YbNTqfYoda6og8ULPcuounH6U+cKA97jUJfS+t30/vef8vVsCubGR83ubrN9E7nWI9vYjkVdV3ohlhTIztjzYtFfAalAtrJoJ+p13mgAnf37hyMAcKyC/9Zts7ERnwX/+++Ybdyn4I9E10f/814a7q4h756ow/C9chruriHvQI5oG9veR1PWKI+4e7Y3Dor70tIN67tX5Y0OhkAWANqDAAvAMauOFz8V/G8N+evGygp+DXinGysOveeaifb2ObNTzq7K6s+qAme2byInnk6MW+3ipMtB7YW1dSuurDKoPdpXo2LRdmdnmt1X3iiQHagsNruvAKBbCLAAUPBT8ONnVfV+ulKoTiz9DniiP6O6UqhOLP3ZBbrA0Ta2X1BgNbC0bCeZdRWOFg+o68pjIKvFA+q6IpAF0G0EWABaV/CrE2t4yGfBv7WTurEQh0IeXZcdPZeu4XmicE7z3ti+iQ5rnC/b7sczLov8vuqmDVYWKPKDIZAFgM4hwALQOgp41I3lseBXMHe6QMEfjeagKZzV0gLNR/NE3YUKZ7W0QEEd0OYiX90p6lLxWOSrO0VdKohFoZXCK4+BrEIrhVcEsgDyhAALQHsKfnV4DDnbvJMV/OrM2WHzThiagbaxmQIsj9s3tYxBARbbN9EmmgdUOyjyPc4F0jyg0kGRz1ygWAhkAaBLn7scAYC2FPzqVKo98lnwjw6n61cU/LEo5FE4q/ff4/ZNhbN3t9m+iZZiGxu8URC7Nztjz4tFd8+mIHawsmgn6vxHOgA5/XuKIwDQ1oL/1u3U4eGx4H//HbON+xT8kej6aLZ9U12Gnujab7Z9U12GwGvQNra9j6asUR5x92zaxlZaumF996q80cEQyAJAdxFgAWhzFfPip4JfQ969dWNlBb/mf9GNFQfbN4Ff9XRi3GoXJ13OBSqsrVtxZZW5QNG+yhSLtjs74/IarALZgcoi12AB9AQCLAAU/BT8OFaVvv/TvDf9DniSbd9UJ5b+7AKvgG1s8EhzrtR15TGQ1ZwrdV0RyALoFQRYADpf8KsTS1v9PBb8WzupGwtxKOTRdVmP2zcVzmneG9s38Tsa58u2+/GMyyK/r7ppg5UFivxgCGQBIH8IsAB0ngIedWN5LPgVzJ0uUPBHk23f1NICzUfzJNu+qaUFCuqAl4p8trHBG4VWCq88BrIKrRReEcgC6EUEWAC6W/Crw2PI2SafrOBXZ84Om3zC0Ay0jc0UYHncvqllDAqw2L6JH2keUO2gyPc4F0jzgEoHRT5zgWIhkAWAnH8+cwQAulrwq1Op9shnwT86nK5fUfDHopBH4azef4/bNxXO3t1m+2ZwbGODNwpi92Zn7Hmx6O7ZFMQOVhbtRJ3/qAagx/8+4wgA5KLgv3U7dXh4LPjff8ds4z4FfyS6Pppt31SXoSe69ptt31SXIULRNra9j6asUR5x92zaxlZaumF996q80cEQyAJAbyDAApCTqujFTwW/hrx768bKCn7N/6IbKw62b8KRpxPjVrs46XIuUGFt3Yorq8wFivbVo1i03dkZl9dgFcgOVBa5BgvAFQIsABT8FPxoa9W//9O8N/0OeJJt31Qnlv7swiW2scEjzblS15XHQFZzrtR1RSALwBsCLAD5LfjViaWtfh4L/q2d1I2FOBTy6Lqsx+2bCuc0743tm+40zpdt9+MZl0V+X3XTBisLFPnBEMgCQO8iwAKQXwp41I3lseBXMHe6QMEfTbZ9U0sLNB/Nk2z7ppYWKKhDzxf5bGODNwqtFF55DGQVWim8IpAF4BkBFoDeKPjV4THkbDNQVvCrM2eHzUBhaAbaxmYKsDxu39QyBgVYbN/sWZoHVDso8j3OBdI8oNJBkc9coFgIZAHAyec4RwCgJwp+dSrVHvks+EeH0/UrCv5YFPIonNX773H7psLZu9ts3+wxbGODNwpi92Zn7Hmx6O7ZFMQOVhbtRJ3/CAYgBgIsAL1V8N+6nTo8PBb8779jtnGfgj8SXR/Ntm+qy9ATXfvNtm+qyxC5pm1sex9NWaM84u7ZtI2ttHTD+u5VeaODIZAFAF8IsAD0WJX14qeCX0PevXVjZQW/5n/RjRUH2zfRRU8nxq12cdLlXKDC2roVV1aZCxTtq0KxaLuzMy6vwSqQHagscg0WQEgEWAAo+Cn4kYsUYf+neW/6HfAk276pTiz92UUusI0NHmnOlbquPAaymnOlrisCWQBREWAB6P2CX51Y2urnseDf2kndWIhDIY+uy3rcvqlwTvPe2L7ZdY3zZdv9eMZlkd9X3bTBygJFfjAEsgDgHwEWgN6ngEfdWB4LfgVzpwsU/NFk2ze1tEDz0TzJtm9qaYGCOnS8yGcbG7xRaKXwymMgq9BK4RWBLAAQYAHwVvCrw2PI2aahrOBXZ84Om4bC0Ay0jc0UYHncvqllDAqw2L7ZMZoHVDso8j3OBdI8oNJBkc9coFgIZAEgFgIsAL4KfnUq1R75LPhHh9P1Kwr+WBTyKJzV++9x+6bC2bvbbN9sM7axwRsFsXuzM/a8WHT3bApiByuLdqLOf7QCgJ/9/cgRAHBZ8N+6nTo8PBb8779jtnGfgj8SXR/Ntm+qy9ATXfvNtm+qyxAtpW1sex9NWaM84u7ZtI2ttHTD+u5VeaODIZAFgJgIsAA4rdpe/FTwa8i7t26srODX/C+6seJg+yaO4OnEuNUuTrqcC1RYW7fiyipzgaJ9tBeLtjs74/IarALZgcoi12AB4DcQYAGg4KfgRy/Jtm+qE0u/A55k2zfViaU/uzgWtrHBI825UteVx0BWc67UdUUgCwC/jQALQJyCX51Y2urnseDf2kndWIhDIY+uy3rcvqlwTvPe2L55ZI3zZdv9eMZlkd9X3bTBygJFfjAEsgCADAEWgDgU8Kgby2PBr2DudIGCP5ps+6aWFmg+mifZ9k0tLVBQh98t8tnGBm8UWim88hjIKrRSeEUgCwCvjgALQMyCXx0eQ842F2UFvzpzdthcFIZmoG1spgDL4/ZNLWNQgMX2zV+leUC1gyLf41wgzQMqHRT5zAWKhUAWAPAPvxdwBABCFvzqVKo98lnwjw6n61cU/LEo5FE4q/ff4/ZNhbN3t9m++RK2scEbBbF7szP2vFh092wKYgcri3aizn9kAoBj/T3KEQAIXfDfup06PDwW/O+/Y7Zxn4I/El0fzbZvqsvQE137zbZvqsswOG1j2/toyhrlEXfPpm1spaUb1nevyp/pYAhkAQC/hQALQPAq8MVPBb+GvHvrxsoKfs3/ohsrDrZvuvZ0YtxqFyddzgUqrK1bcWWVuUDRPoqLRdudnXF5DVaB7EBlkWuwANACBFgAQMEPj7Ltm+rE0u+AJ9n2TXVi6c9uEGxjg0eac6WuK4+BrOZcqeuKQBYAWoMACwBeLvjViaWtfh4L/q2d1I2FOBTy6Lqsx+2bCuc07y3A9s3G+bLtfjzjssjvq27aYGWBIj8YAlkAwFERYAHAyxTwqBvLY8GvYO50IUTBj0Oy7ZtaWqD5aJ5k2ze1tEBBncMin21s8EahlcIrj4GsQiuFVwSyANB6BFgA8FsFvzo8hpxtQsoKfnXm7LAJKQzNQNvYTAGWx+2bWsagAMvR9k3NA6odFPke5wJpHlDpoMhnLlAsBLIAgNf6/sARAMBvFPzqVKo98lnwjw6n61eOCn68AoU8Cmf1/nvcvqlw9u52z2/fZBsbvFEQuzc7Y8+LRXfPpiB2sLJoJ+r8RyEAaOvftxwBALxCwX/rdurw8Fjwv/+O2cb9ni/4cQS6Pppt31SXoSe69ptt31SXYY/RNra9j6asUR5x92unbWylpRvWd6/Kn8FgCGQBAK1AgAUAr1RVvvip4NeQd2/dWFnBr/lfdGPFwfbNXHk6MW61i5Mu5wIV1tatuLLKXKBoH53Fou3Ozri8BqtAdqCyyDVYAOggAiwAoODv2YIfLZBt31Qnln4HPMm2b6oTS392c4ptbPBIc67UdeUxkNWcK3VdEcgCQGcRYAHAcQt+dWJpq5/Hgn9rJ3VjIQ6FPLou63H7psI5zXvL4fbNxvmy7X4847LI76tu2mBlgSI/GAJZAEC7EGABwHEp4FE3lseCX8Hc6UIuC360UbZ9U0sLNB/Nk2z7ppYWKKjLQZHPNjZ4o9BK4ZXHQFahlcIrAlkA6B4CLABoRcGvDo8hZ5uVsoJfnTk7bFYKQzPQNjZTgOVx+6aWMSjA6uL2Tc0Dqh0U+R7nAmkeUOmgyGcuUCwEsgCAjnzP4AgAoAUFvzqVao98Fvyjw+n6VRcLfnSBQh6Fs3r/PW7fVDh7d7vj2zfZxgZvFMTuzc7Y82LR3bMpiB2sLNqJOv8RBwBy8fcyRwAALSz4b91OHR4eC/733zHbuN/xgh9dpOuj2fZNdRl6omu/2fZNdRm2mbax7X00ZY3yiLtfE21jKy3dsL57Vf7MBEMgCwDoJAIsAGhplfrip4JfQ969dWNlBb/mf9GNFQfbN1/L04lxq12cdDkXqLC2bsWVVeYCRfuoKxZtd3bG5TVYBbIDlUWuwQJADhFgAQAFf+4KfuRQtn1TnVj6HfAk276pTiz92W0RtrHBI825UteVx0BWc67UdUUgCwD5RIAFAO0u+NWJpa1+Hgv+rZ3UjYU4FPLouqzH7ZsK5zTvrQXbNxvny7b78YzLIr+vummDlQWK/GAIZAEA3UaABQDtpoBH3VgeC34Fc6cLLSn40UOy7ZtaWqD5aJ5k2ze1tEBB3TGKfLaxwRuFVgqvPAayCq0UXhHIAkD+EWABQCcLfnV4DDnb1JQV/OrM2WFTUxiagbaxmQIsj9s3tYxBAdYRtm9qHlDtoMj3OBdI84BKB0U+c4FiIZAFAOTq+whHAAAdLPjVqVR75LPgHx1O16+OUPDDAYU8Cmf1/nvcvqlw9u72727fZBsbvFEQuzc7Y8+LRXfPpiB2sLJoJ+r8RxcA6Km/vzkCAOhCwX/rdurw8Fjwv/+O2cb93y344Yiuj2bbN9Vl6Imu/WbbN9Vl+BJtY9v7aMoa5RF3b6u2sZWWbljfvSq/48EQyAIA8ogACwC6QR1KWcGvIe/eurGygl/zv+jGiiPY9s2nE+NWuzjpci5QYW3diiurzAWK9tFULNru7IzLa7AKZAcqi1yDBYAeRoAFABT8HSv4EUC2fVOdWPod8CTbvll90Czy2cYGTzTnSl1XHgNZzblS1xWBLAD0NgIsAMhLwa9OLG3181jwb+2kbizEoet2ui7rcftm+azt21l3b1lfddMGKwsU+cEosNKGQQJZAEDeEWABQF4o4FE3lseCX8Hc6UIaYq95SYgh276ppQWaj4bcFvlsY4tJoZXCK49dVwqtFF4RyAKAHwRYAJDHgl/Xr4acbX7SdcIfr1/ZDpufwtAMtI3NFGB5277p4Yvgg4dWOijymQsUiwIrXRfUtUFvCGQBwPH3Fo4AAHJY8KtTqfbIX8GvZxlVN06/2Z0tBrxHouuECmf1/nvbvtmj2MYWkwa0783O2PNi0d2zKYgdrCzaiTr/kQQAPCLAAoA8F/y3bpuNjfgr+NWN8/47Zhv3U9cZYtD10Wz7Zvks59El2sZWWrphffeqHEYw6rrSyyMCWQDwjwALAPJMHUpZwa8h7966sd4rp02Mmv9FN1Ycnrdv5lxhbd2KK6vMBYr2UVIsNjdnqvvKGwWyA5VFrsECQAAEWABAwd9dCufUYXZnO21kRAzZ9k11Yul3AG3FNra4NOdKXVceB7VrzpW6rghkASAGAiwA6LWCX51Y2urniUI5DXjf2kndWIhDQ/11Xdbj9s2c6Ktu2mBlgSI/GAVW2jCoTYPeEMgCQEx8UwSAXqOAR91YHgt+BXOnC2mIveYlIYZs+6aWFmg+GlpW5LONLSaFVgqvPHZdKbRSeEUgCwDxEGABQC8X/Lp+NeRsk5SuE6obS505O2ySCkMz0DY2U4DlbftmN77gPXhopYMin7lAsSiw0nVBXRv0hkAWAECABQC9XPCrU6n2yF/Br2cZVTdOv9mdLQa8R6LrhApn9f57277ZIWxji0kD2vdmZ+x5seju2RTEDlYW7USd/6gBAJERYAGAh4L/1m2zsRF/Bb+6cd5/x2zjfuo6Qwy6Pppt31SXIV6JtrGVlm5Y370qhxGMuq708ohAFgCQIcACAA/UoZQV/Bry7q0b671y2sSo+V90Y8XheftmixXW1q24sspcoGh/9ReLtjs70+y+8kaB7EBlkWuwAIC/I8ACAAr+3qBwTh1md7bTRkbEkG3fVCeWfgfwM2xji0tzrtR15XFQu+ZcqeuKQBYAcBgBFgB4LfjViaWtfp4olNOA962d1I2FODTUX9dlPW7fPKa+6qYNVhYo8oNRYKUNg9o06A2BLADgt/ANEAC8UsCjbiyPBb+CudOFNMRe85IQQ7Z9U0sLNB8tKLaxxaXQSuGVx64rhVYKrwhkAQC/hgALACIU/Lp+NeRsM5WuE6obS505O2ymCkMz0DY2U4Dlbfvmq3xxe/DQSgdFPnOBYlFgpeuCujboDYEsAOCVvwdxBAAQoOBXp1Ltkb+CX88yqm6cfrM7Wwx4j0TXCRXO6v33tn3zV7CNLSYNaN+bnbHnxaK7Z1MQO1hZtBN1/iMEAOAVPjc4AgAIVPDfum02NuKv4Fc3zvvvmG3cT11niEHXR7Ptm+oydErb2EpLN6zvXpX3PBh1XenlEYEsAOCoCLAAIBJ1KGUFv4a8e+vGeq+cNjFq/hfdWHE43r5ZWFu34soqc4Gi/VVdLNru7Eyz+8obBbIDlUWuwQIAjowACwAo+H09m8I5dZjd2U4bGRFDtn1TnVj6HehxbGOLS3Ou1HXlcVC75lyp64pAFgBwHARYABC94Fcnlrb6eaJQTgPet3ZSNxbi0FB/XZft4e2bfdVNG6wsUOQHo8BKGwa1adAbAlkAQCsQYAFAdAp41I3VwwX/r1Iwd7qQhthrXhJiyLZvammB5qP1UJHPNraYFFopvPLYdaXQSuEVgSwA4HURYAEAfir4df1qyNmmK10nVDeWOnN22HQVhmagbWymAKsHtm9qHlDpoMhnLlAsCqx0XVDXBr0hkAUAtPz7EkcAAPh7wa9Opdqjnij4j0TPMqpunH6zO1sMeI9E1wkVzur9z+n2TbaxxaQB7XuzM/a8WHT3bApiByuLdqLOfzQAALTw84UjAAD8ouC/ddtsbCS3Bf+xqRvn/XfMNu6nrjPEoOuj2fZNdRnmhLaxlZZuWN+9Ku9RMOq60ssjAlkAQLsQYAEAfkkdSlnBryHv3rqx3iunTYya/0U3Vhw52r5ZWFu34soqc4Gi/dVaLNru7Eyz+8obBbIDlUWuwQIA2oYAC8BR/PvB68LB6wxHQcHf8xTOqcPsznbayIgYsu2b6sTS70CHsY0tLs25UteVx0HtmnOlrisC2XBuHrzWOQYAHfsexREAOJK5+fGDf35rKchCJOrE0lY/j7Z2UjcWYukvdHT7Zl910wYrCxT5wSiw0oZBbRp0V0gQyEZ27eD11f3vv6blDkDnPnc4AgDHMjd/9eCf/8pBUPC7oU4zDbHXvCTEoSulWlqg+WhtLPLZxhaTQiuFVx67rhRaKbwikA1HgdUf7n//9Q8cBYBOI8ACcHxz8+rCUjfWOIcRrODX9ashf5uzmvOwqg/MdticFY4CrDZs39Q8oNJBkc9coFgUWOm6oK4NuiseCGQj++7g9TldVwC69hnEEQB4LXPzmoelTqwvOAwKfje0ifHOFgPeo1Fn4ehwy7Zvso0tJg1o35udsedFfyG/gtjByqKdqBPyB6PA6sv733/9R44CQDcRYAFojbn5Tw7++W/GgPdYFF6NjbSs4M8VhVcb980ePeF9jkbD3dVleEzaxlZaumF996qcZTDqutLLIwLZsH6w1HW1zlEA6DYCLACtk7qxFGJ9wmEELPg15N1jN5Y2MWrAO91YsWjr5jG2bxbW1q24sspcoGBeFIu2OzvT7L7yRoHsQGWRa7AxaUj7VY4BQF4QYAFovbl5XSfUtUK6sSj4fXi6b3ZnO/1ELOrEUkD7e1+o2MYWluZcqevK46B2zblS1xWBbDg3LXVd3eQoAOQJARaA9pibH7c04P0ChxGMOrGGh3w+29ZO6sZCLL+zfbOvummDlQWK/GAUWGnDoDYNuisQCGQju2ap84qWOwD5+3ziCAC01dz8VUvdWKDg9+HRU7O7W2aNZ7zPkeh6rJYWaHnBoSKfbWwxKbRSeOWx60qhlcIrAtlwFFj94f73X//AUQDIKwIsAO03N68uLHVjjXMYwQp+Xb8a8reJqzkPq/rAbIdNXOH8uH3zzZ1dKx0U+cwFikWBla4L6tqgu6KAQDay7yxdGeQvNAD5/qziCAB0RBrwrk6sLziMmAW/ywHvtcdmd7YY8B5N35v21tIC5xCMBrTvzc7Y86K/UF5B7GBl0U7UCeWDUWD15f3vv/4jRwGgFxBgAeisuXltKNSmQga8R6LwamzErP+Uv2dTeLVx3+zRE97nQN76jyUOIRB1Xenlkbqu9EI4P1jqulrnKAD0CgIsAJ2XurEUYn3CYQSjbW4a8u6xG+vBXhrwTjdWCARYMbwoFm13dqbZfeXNG/W6DVQWuQYbk4a0X+UYAPQaAiwA3TM3r+uEulZIN1Ykp06avX0u/fTm6b7Zne30E64RYPmnOVfquvI4qF1zrtR1xaD2cG5a6rq6yVEA6EUEWAC6a25+3NKA9wscRrQEYMhseMjns23tpG4s+P31JcByS4GVNgxq06C7L/77jeaGQW0aRDjXLHVe0XIHoHc/xzgCALkwN3/VUjcWIukvmI2eaw7FdufRU7O7W2aNZ7zPDhFg+aTQSuGVx64rhVYKr+i6CkeB1R/uf//1DxwFgF5HgAUgP+bm1YWlbqxxDiMQzcMqnzUb8rfZqzkPq/rAbIfNXt4QYPmiwErXBXVt0N2X/f1G87qgrg0inO8sXRmk6wqAj880jgBArqQB7+rE+oLDCKZ02uztYZ8D3muPze5sMeDdEQIsPzSgfW92xp4X/YXoGtA+WFm0E3VC9GAUWH15//uv/8hRAPCEAAtAPs3Na0OhNhUy4D0ShVdjI2b9p/w9m8Krjftmj57wPjtAgOWDuq708khdV3ohnB8sdV2tcxQAvCHAApBf//anf7N72581u1cQy9mBNOTdYzfWg7004J1urJ5GgNXbXhSLtjs70+y+8uaNet0GKovN7iuEoyHtVzkGAF69yREAyJ3ry5qFpe6rC81uHAr+ePSeawj62+fMTp309WwK59Rhdmfb7Ok+7zXQYZpzpa4rj4PaNedKXVcMao9FQWztf7v08Nm5sw/t+685EABu0YEFIF+uL2v21Te/+H/XJjddv6Lgj0edWMNDPp9tayeFs+i9X0s6sHqOAittGNSmQXdf6PcbzQ2D2jSIWP5BIPvDwesP9ukULXgA/H3ecQQAcuH68rilrqsrFPz4hf6C2eg5sz6HjcPqNLu7lUJa9AwCrN6i0ErhlceuK4VWCq/ouopFv8u7s5etUR75R//fCq8+t0+nvuOkAHhCgAWg+64vH21gu7qw1I1FwR+L5mGVz5oN+dsU1rweW31gtsOmsF5BgNU7Rb66U9Sl4u5L/H6jeV1Q1wYRyxEC2T8evL6kGwuAm88+jgBA11xfVmCl4OqTYxX86sTSrCTEUjpt9vawzwHvWlhwZ4t5bz2AACv/NBdob3bGnhf9hd4a0D5YWbQTdULvSBRY1S9O2pOJ8aP8j61b6sb6gRME0OsIsAB0x/XlK5bCq/HX+t9DwR+TwisN+NcwdG/0u6wOw0dPeJ9zjAAr39R1pZdH6rrSC7E0zpetNn3pdQLZr+zTqaucJIBeRoAFoPOuL2tI+xctLfgVYinMQiza6Kch7x67sdi+mWsEWPn04qC4352daXZfefNGvW4DlcVm9xViaWEge9NSN9ZNThVALyLAAtA515cvWOq6ukDBj5Y5ddLs7XPppzea93Znm+2bOUSAlT//YBubG5pzpa4rBrXHoiC2Nj3V6kBWCai6sa5xwgB6DQEWgM64vqyOq2/a/n9Hg911/YqCPx51Yg0P+Xw2tm/m79eNACs3FFhpoLUGW7v7or7faG4Y1KZBxNKBQPaHg9cfGPAOoKc+FzkCAG11fXncUtfVFQp+tF1/wWz0nFnfm/6e7dFTs7tbbN/MCQKsfDjCNraeo9BK4RVdV7Hod3l39rI1yiOd+D+n8EpXCr/j5AH0AgIsAO1zfVnbBRVedWcYibqw1I1FwR+L5mGVz5oN+ds81rweW31gtsPmsW4jwOp+ka/uFHWpuPtyvt9oXhfUtUHE0sVA9o8Hry/pxgKQ+89IjgBAy11fVmCl4OqTXBT86sTSfCzEUjpt9vawzwHvbN/sOgKs7tE8oL3ZmdfZxpZbGtA+WFm0E3VC6kgUWNUvTtqTifFu/musW+rG+oF3BEBeEWABaK3ry1cshVfjufr3ouCPSeHV2IhZ/yl/z6bfZXUYPnrC+9wFBFjd0cJtbLmjriu9EEvjfNlq05fyFMhqwPtV3hkAeUSABaB1ri9rSPsXuS74FWIpzEIsZwfSkHeP3Vhs3+wKAqwO//V9UNzvzs60ehtbLrxRr9tAZbHZfYVYchzI3rTUjXWTdwlAnhBgAXh915cvWOq6ukDBj9w6ddLs7XPppzea93Znm+2bHUSA1Tkd2MbWNZpzpa4rBrXHoiC2Nj2V90BWiaq6sa7xjgHICwIsAK/n+rI6rr7puX9vDXbX9SsK/njUiTU85PPZ2L7ZuV8jAqy2U2ClgdYabO3uC/h+o7lhUJsGEUsPBrI/HLz+wIB3ALn4/OQIABzL9eVxS11XVyj40XP6C2aj58z63vT3bI+emt3dYvtmmxFgtVcXt7G1nUIrhVd0XcWi3+Xd2cvWKI/04r++witdKfyOdxJANxFgATi668vaLqjwyscwEnVhqRuLgj8WzcMqnzUb8rfJrHk9tvrAbIdNZu1CgNW+Il/dKepScfele7/RvC6oa4OIxVEg+8eD15d0YwHo2mcpRwDglV1fVmCl4OoTlwW/OrE0HwuxlE6bvT3sc8A72zfbhgCr9TQPaG92Jk/b2FpGA9oHK4t2ok6oHIkCq/rFSXsyMe7psdYtdWP9wDsMoNMIsAC8muvLVyyFV+Oun5OCPyaFV2MjZv2n/D2bfpfVYfjoCe9zCxFgtVaOt7G9NnVd6YVYGufLVpu+5DKQ/ZEGvF/lnQbQ0a/sHAGAV/TQ/sedh82AxzN147z/TvqJOBTy/Oe9dO3OW3ipcO69croueYKPfeTsj95Bcf/wv/wfLsOrN+p1O/P9fyW8Cki/zzv/+xXP4ZWuxP5r8Yv/53++9V/+7yu84wA65U2OAMAr+XTqps3NP7SNTd9XrrKCX904uk6oa4V0Y8Wh91xD0N8+Z3bqpK9nOzuQOszubLN9E7nQg9vYXpnmXCm4YlB7LLoGW5ueav50XUA+eGilpeXmTwDo6N8/HAGAI1MX1vpds9Fhn1euDhf8Cut0/YqCPw691/r9fmvIbHjI17MplBsfZfsmukqBlQZaa7C1NwqstGFQmwYRi+dA9jCuxALoJgIsAMejjX26cqWQR1eTvOp7k4I/Kr3f6sYaPZd+DzxRMHe6YHZ3i+2b6ChH29h+QaGVwiu6rmLR7/Lu7GVrlEdcP6euxJaWbljfvSpvOoCuIcAC8Ho8X7l6ueDPurEo+OPQ4HN1YymkHXI2y0TdkwpnNfdrh81oaH+Rr+4Udal4o8BKHSm6NohYPAeyhxXW1q24sko4C6DrCLAAvL7sypWKfHVkeZVdv1JnjoI7xKAZaOpUqj3yN/tNz6KrwKV+tm+ibTQPaG92xuVAa80AGqws2ok6IXAkCqzqFyftycS46+fkSiyA3H3ucgQAWkadHJqP5fHK1eGCX0Fdf4GCPxr9bt+6nQb8e5v9lm3fVIehus6AFlHXlccNg8IsoJga58tWm77kesOg9FU3bbCyQNcVgFwhwALQ4mrlxytX6lRRUexVVvArxFKwgRgUWGaz3zTk3Vs31ntltm+iNX9UDor73dkZl9vYNAtooLLIBraIX3EcB7IZrsQCyDMCLADtKfI3NlPI4+3K1csFv7pxKPjj8Tz7TeGcOszubLN9E8fieRubinoV93SlxKIgtjY95TKQ/Vlh+OChlZaWCWcB5PfvKY4AQNuoM0ndWJqx4+3K1csFfzbgnYI/jmz2mzqxNOTfk2zeG9s3cQQKrDTQWoOtvWEWUFyeA9nDuBILoBcQYAFoL23sy65caXaUV5r5RcEfk95vdWN5nP2mYO50IQ2xZ/smfoPnbWwKrRRe0XUVi36Xd2cvW6M84vo5dSW2tHTD+u5VedMB5B4BFoDO8Hzl6uWCP+vGouCPI5v9ppB2yNlgX3VPKpzVkoYdNq3hl0W+ulPUpeINs4Di8hzIHlZYW7fiyirhLICeQYAFoHOyK1cq8tWR5VV2/UqdOQruEINmoKlTqfbI3+w3PYuuApf62b6Jv9M8oL3ZGZfb2DQDaLCyaCfqhLaRKLCqX5y0JxPjrp+TK7EAevbzmSMA0HHq5NB8LI9Xrg4X/Arq+gsU/NHod/vW7TTg39vst2z7pjoM1XWGsDxvY2MWUEyN82WrTV9yGcge1lfdtMHKAl1XAHoSARaALlU/P165UqeKimKvsoJfIZaCDcSgwDKb/aYh7966sd4rs30z6q/2QXG/OzvjchubZgENVBbZwBbxK4njQDbDlVgAHhBgAehukb+xmUIeb1euXi741Y1DwR+P59lvCufUYXZnm+2bQXjexqaiXsU9XSmxKIitTU+5DGR/VvA9eGilpWXCWQC9//cZRwCg69SZpG4szdjxduXq5YI/G/BOwR9HNvtNnVga8u9JNu+N7ZuuKbDSQGsNtvaGWUBxeQ5kD+NKLABPCLAA5IM29mVXrjQ7yivN/KLgj0nvt7qxPM5+UzB3upCG2LN90xXP29gUWim8ousqFv0u785etkZ5xPVz6kpsaemG9d2r8qYDcIMAC0C+eL5y9XLBn3VjUfDHkc1+U0g75GxQsLonFc5qScMOm9s8FPnqTlGXijfMAorLcyB7WGFt3Yorq4SzANwhwAKQP9mVKxX56sjyKrt+pc4cBXeIQTPQ1KlUe+Rv9pueRVeBS/1s3+xhmge0NzvjchubZgANVhbtRJ2QNRIFVvWLk/ZkYtz1c3IlFoB3BFgA8kudHJqP5fHK1eGCX0Fdf4GCPxr9bt+6nQb8e5v9lm3fVIehus7QMzxvY2MWUEyN82WrTV9yGcge1lfdtMHKAl1XAFwjwAKQ82rqxytX6lRRUexVVvArxFKwgRgUWGaz3zTk3Vs31ntltm/2yq/iQXG/OzvjchubZgENVBbZwBbxK4TjQDbDlVgAkRBgAeiNIn9jM4U83q5cvVzwqxuHgj8ez7PfFM6pw+zONts3c8rzNjYV9Sru6UqJRUFsbXrKZSD7s0LuwUMrLS0TzgIIgwALQO9QZ5K6sTRjx9uVq5cL/mzAOwV/HNnsN3Viaci/J9m8N7Zv5ooCKw201mBrb5gFFJfnQPYwrsQCiIgAC0Bv0ca+7MqVZkd5pZlfFPwx6f1WN5bH2W8K5k4X0hB7tm92ledtbAqtFF7RdRWLfpd3Zy9bozzi+jl1Jba0dMP67lV50wGEQ4AFoDd5vnL1csGfdWNR8MeRzX5TSDvkbPCwuicVzmpJww6b4LpR5Ks7RV0q3jALKC7PgexhhbV1K66sEs4CCIsAC0Dvyq5cqchXR5ZX2fUrdeYouEMMmoGmTqXaI3+z3/Qsugpc6mf7ZgdpHtDe7IzLbWyaATRYWbQTdULRSBRY1S9O2pOJcdfPyZVYAPjx854jANDz1Mmh+Vger1wdLvgV1PUXKPij0e/2rdtpwL+32W/Z9k11GKrrDG3jeRsbs4BiapwvW236kstA9rC+6qYNVhbougIAI8AC4KY6+/HKlTpVVBR7lRX8CrEUbCAGBZbZ7DcNeffWjfVeme2b7frVOSjud2dnXG5j0yyggcoiG9gifuQ7DmQzXIkFgF8iwALgq8jf2Ewhj7crVy8X/OrGoeCPx/PsN4Vz6jC7s832zRbxvI1NRb2Ke7pSYlEQW5uechnI/qxAe/DQSkvLhLMA8PLfjxwBAHfUmaRuLM3Y8Xbl6uWCPxvwTsEfRzb7TZ1YGvLvSTbvje2br0WBlQZaa7C1N8wCistzIHsYV2IB4NcRYAHwSRv7sitXmh3llWZ+UfDHpPdb3VgeZ78pmDtdSEPs2b55JJ63sSm0UnhF11Us+l3enb1sjfKI6+fUldjS0g3ru1flTQeAX0GABcA3z1euXi74s24sCv44stlvCmmHnA0yVvekwlktadhhs9yrFPnqTlGXijfMAorLcyB7WGFt3Yorq4SzAPA7CLAA+JdduVKRr44sr7LrV+rMUXCHGDQDTZ1KtUf+Zr/pWXQVuNTP9s3foHlAe7MzLrexaQbQYGXRTtQJMSNRYFW/OGlPJsZdPydXYgHgiN8LOAIAYaiTQ/OxPF65OlzwK6jrL1DwR6Pf7Vu304B/b7Pfsu2b6jBU1xn+zvM2NmYBxdQ4X7ba9CWXgexhfdVNG6ws0HUFAEdAgAUgWLX345UrdaqoKPYqK/gVYinYQAwKLLPZbxry7q0b670y2zezt/qguN+dnXG5jU2zgAYqi2xgi/gR7TiQzXAlFgCOjwALQMwif2MzhTzerly9XPCrG4eCPx7Ps98UzqnD7M522O2bnrexqahXcU9XSiwKYmvTUy4D2Z8VXg8eWmlpmXAWAI779yhHACAsdSapG0szdrxduXq54M8GvAct+EPKZr+pE0tD/j3J5r0F276pwEoDrTXY2htmAcXlOZA9jCuxAPD6CLAAxKaNfdmVK82O8kozvwIW/LD0fqsby+PsNwVzpwtpiL3z7Zuet7EptFJ4RddVLPpd3p29bI3yiOvn1JXY0tIN67tX5U0HgNdEgAUA4vnK1csFf9aN5bzgxyHZ7DeFtEPOBiOre1LhrJY07PjbVKciX90p6lLxhllAcXkOZA8rrK1bcWWVcBYAWoQACwAy2ZUrFfnqyPIqu36lzhwFd4hBM9DUqVR75G/2m55FV4FL/a62b2oe0N7sjMttbJoBNFhZtBP1On82A1FgVb84aU8mxl0/J1diAaBN3x84AgB4iTo5NB/L45WrwwW/grr+gquCH69Av9u3bqcB/95mv2XbN9VhqK6zHuZ5GxuzgGJqnC9bbfqSy0D2sL7qpg1WFui6AoA2IMACgH9YPf545UqdKiqKvcoKfoVYCjYQgwLLbPabhrx768Z6r9yz2zdfHBT3u7MzLrexaRbQQGWRDWwRP1IdB7IZrsQCQPsRYAHAbxX5G5sp5PF25erlgl/dOD1a8OM1eJ79pnBOHWZ3tntm+6bnbWwq6lXc05USi4LY2vSUy0D2ZwXVg4dWWlomnAWAdv99yxEAwO9QZ5K6sTRjx9uVq5cL/mzAe48U/GiBbPabOrE05N+TbN5bzrdvKrDSQGsNtvaGWUBxeQ5kD+NKLAB0DgEWALwKbezLrlxpdpRXmvnVAwU/2kDvt7qxPM5+UzB3upCG2Ods+6bnbWwKrRRe0XUVi36Xd2cvW6M84vo5dSW2tHTD+u5VedMBoEMIsADgKDxfuXq54M+6sXJW8KONstlvCmmHnA1aVvekwlktadjp/uY7FfnqTlGXijfMAorLcyB7WGFt3Yorq4SzANBhBFgAcFTZlSsV+erI8iq7fqXOHAV3iEEz0NSpVHvkb/abnkVXgUv9Xd2+qXlAe7MzLrexaQbQYGXRTtTr/FkKRIFV/eKkPZkYd/2cXIkFgC5/z+AIAOCY1Mmh+Vger1wdLvgV1PUXulrwowv0u33rdhrw7232W7Z9Ux2G6jrrIM/b2JgFFFPjfNlq05dcBrKH9VU3bbCyQNcVAHQRARYAvFY1+uOVK3WqqCj2Kiv4FWIp2EAMCiyz2W8a8u6tG+u9cse2b744KO53Z2dcbmPTLKCByiIb2CJ+BDoOZDNciQWA/CDAAoBWFPkbmynk8Xbl6uWCX904HSr4kSOeZ78pnFOH2Z3ttm3f9LyNTUW9inu6UmJREFubnnIZyP6sUHrw0EpLy4SzAJCXv5c5AgBoEXUmqRtLM3a8Xbl6ueDPBry3qeBHDmWz39SJpSH/nmTz3lq8fVOBlQZaa7C1N8wCistzIHsYV2IBIH8IsACglbSxL7typdlRXmnmVxsKfvQAvd/qxvI4+03B3OlCGmL/mts3PW9jU2il8Iquq1j0u7w7e9ka5RHXz6krsaWlG9Z3r8qbDgA5Q4AFAO3g+crVywV/1o31mgU/ekg2+00h7ZCzwc3qnlQ4qyUNO0ffpKciX90p6lLxhllAcXkOZA8rrK1bcWWVcBYAcooACwDaJbtypSJfHVleZdev1Jmj4A4xaAaaOpVqj/zNftOz6Cpwqf9I2zc1D2hvdsblNjbNABqsLNqJep3f/UAUWNUvTtqTiXHXz8mVWADoke8jHAEAtJk6OTQfy+OVq8MFv4K6/sKRCn44oN/tW7fTgH9vs9+y7ZvqMFTX2W/wvI2NWUAxNc6XrTZ9yWUge1hfddMGKwt0XQFADyDAAoBOyK5cqVNFRbFXWcGvEEvBBmJQYJnNftOQd2/dWO+Vf3X75ouD4n53dsblNjbNAhqoLLKBLeJHluNANsOVWADoPQRYANDJIn9jM4U83q5cvVzwqxvnVwp+OOZ59pvCOXWY3dn++/ZNz9vYVNSruKcrJRYFsbXpKZeB7M8KoAcPrbS0TDgLAL329zdHAAAdps4kdWNpxo63K1cvF/zZgPcfC34EkM1+UyeWhvx7ks1729ppdl1psLU3zAKKy3MgexhXYgGgdxFgAUA3aGNfduVKs6O80syvHwv+ZjcW4tD7rW4sj7Pfhods34bcvWUKrRRe0XUViwKr3dnL1iiPuH5OXYktLd2wvntV3nQA6FEEWADQTZ6vXL1U8P+9G0vhHWLIZr8ppB0qch45xSyguNRFuDc95b7rqrC2bsWVVcJZAOhxBFgA0G3ZlSsV+erI8iq7fqXOHAV3iEEz0O5qqP8j37PfevWL4IOHNlhZtBP1OocRiAKr+sVJezIx7vo5uRILAM6+t3AEAJAT1QdpPpbHK1cZhRcK6voLaVMhA97j0O/2rdtpwL/n2W89hFlAMTXOl602fcmeF313RfZVN22wskDXFQA4QoAFAHmSXblSp4qu3HmlZ3v/nRRiKdhADAoss9lvGvJON1ZXaBbQQGWRDWwRP2L+5Z+bL8+4EgsAfhFgAUAei/yNzRTyeL5ypedSN46uE+paId1YcUSZ/ZZDKupV3NOVEsuzs2esNj3V/Om6sHnw0EpLy4SzAOD173mOAABySp1J6sYaHfZ95UrdONmAd80DQwzZ7Dd1Yg0PcR5txiyguB5/+EGz68r7oHauxAKAfwRYAJBn2tiXXbnS7CivNPNLA963dlI3FuLQ+61uLM+z37pMoZXCK7quYlFgtTt72RrlEdfPqSuxpaUb1nevypsOAM7xTREAekGUK1fqxMm6sRTeIYZs9ptC2qEi59EizAKKa//dMdubnnLfdVVYW7fiyirhLAAEQYAFAL0iu3KlIl8dWV4poFM3ljpzFNwhBs1Au6uh/o98z37r1Be8Bw9tsLJoJ+p1DiMQBVb1i5P2ZGLc9XNyJRYAgn6/4QgAoMdUH6T5WJ6vXCm8UFDXX0ibChnwHod+t2/dTgP+Pc9+ayNmAcXUOF+22vQle1703cXYV920wcoCXVcAEBABFgD0ouzKlTpVdOXOKz3b+++kEEvBBmJQYJnNftOQd7qxXolmAQ1UFtnAFvEj4V/+ufnyjCuxAAACLADo5SJ/YzOFPJ6vXOm51I2j64S6Vkg3VhxRZr+1gIp6Ffd0pcTy7OwZq01PNX+6LlgePLTS0jLhLAAER4AFAL1OnUnqxhod9n3lSt042YB3zQNDDNnsN3Viacg/foZZQHE9/vCDZteV90HtXIkFAGQIsADAA23sy65caXaUV5r5pQHvWzupGwtx6P1WN5bn2W9HpNBK4RVdV7EosNqdvWyN8ojr59SV2NLSDeu7V+VNBwA08Q0QADyJcuVKnThZN5bCO8SQzX5TSDtUDHsMzAKKa//dMdubnnLfdVVYW7fiyirhLADgZwiwAMCb7MqVinx1ZHmlgE7dWOrMUXCHGDQD7a6G+j/yPfvt1764PXhog5VFO1Gv87sQiAKr+sVJezIx7vo5uRILAPjN70EcAQA4VX2Q5mN5vnKl8EJBXX8hbSpkwHsc+t2+dTsN+Pc8++0QZgHF1Dhfttr0JXte9N112FfdtMHKAl1XAIBfRYAFAJ5lV67UqaIrd17p2d5/J4VYCjYQgwLLbPabhrw77cbSLKCByiIb2CL+Ff4v/9x8ecaVWADAqyLAAoAIRf7GZgp5PF+50nOpG0fXCXWtkG6sOBzPflNRr+KerpRYnp09Y7XpqeZP14XIg4dWWlomnAUAvNrnBkcAAEGoM0ndWKPDvq9cqRsnG/CueWCIIZv9pk4sDfnvccwCiuvxhx80u668D2rnSiwA4KgIsAAgEm3sy65caXaUV5r5pQHvWzupGwtx6P1WN1YPz35TaKXwiq6rWBRY7c5etkZ5xPVz6kpsaemG9d2r8qYDAI6EAAsAInJ85epn1ImTdWMpvEMM2ew3hbRDvTP4mllAce2/O2Z701Puu64Ka+tWXFklnAUAHAsBFgBElV25UpGvjiyvFNCpG0udOQruEINmoN3VUP9HPTH7TTOABiuLdqJe570LRIFV/eKkPZkYd/2cXIkFALTk+xJHAADBVR+k+Vg9fOXqdym8UFDXX0ibChnwHod+t2/dTgP+czr7jVlAMTXOl602fcmeF4uun7OvummDlQW6rgAAr40ACwDw05Urdaroyp1Xerb330khloINxKDAMpv9piHvOenG0iyggcoiG9gi/pX7L//cfHnGlVgAQKsRYAEAfiryNzZTyNMDV66OTc+lbhxdJ9S1Qrqx4sjR7DcV9Sru6UqJ5dnZM1abnmr+dF1gPHhopaVlwlkAQGs/XzgCAMDPqDNJ3Vijw7m9ctUS6sbJBrxrHhhiyGa/qRNLQ/47jFlAcT3+8INm15X3Qe1ciQUAtAsBFgDgl7SxL7typdlRXmnmlwa8b+2kbizEofdb3VgdnP2m0ErhFV1XsSiw2p29bI3yiOvn1JXY0tIN67tX5U0HALQFARaAo/j3g9eFg9cZjiKIHF25ait14mTdWArvEEM2+00h7VD7BmkzCyiu/XfHbG96yn3XVWFt3Yorq4Sz8az/+AKAjvgnjgDAkczNK8D6N0tBFiJRka+OLM80D0udOQruEEubZr9pBtBgZdFO1OuccSAKrOoXJ+3JxLjvQoIrsZFdO3h9df/7rxl0BqBznzscAYBjmZu/evDPf+UggukvdPTKVddoDpg2FTLgPZZswH+LZr8xCyimxvmy1aYv2fNi0fVz9lU3bbCyQNdVPAqsPr///dffcRQAOo0AC8Dxzc1fsdSNNc5hBCvy1amijhXPFF4pxFKYhVjUaagh78fsxtIsoIHKIhvYAtKQdr1cFw9ciY1ModXndF0B6NpnEEcA4LXMzWse1jcHr884jGDadOUqd3SdUNcK6caKRTPfjjH7TUW9inu6UmJ5dvaM1aanmj89UyhbWlomnI1Hb7iuC17jKAB0EwEWgNaYm//EUjcWA94j0VXC0eGWXbnKLQ1214D3p/u859GoE0tD/n/vCxWzgMJ6/OEHza4r74PauRIb1s2D1x/uf//1OkcBoNsIsAC0TurG+vbgdYXDCEZXrjTk3butndSNhVh+Z/abQiuFV3RdxaLAanf2sjXKI66fU1diS0s3rO9elTc9HnVdXeUYAOQFARaA1pub/8LSgHe6sSI55pWrnqMuLHVjqSsLceiqrELaoZ8GczMLKK79d8dsb3rKfddVYW3diiurhLPxrFvqurrJUQDIEwIsAO0xN3/B0pXCCxxGMCry1ZHlmeZhqRNL87EQy4+z397c2bXByqKdqNc5k0AUWNUvTtqTiXHfBQJXYiPTnKuvGNQOIJefTxwBgLaam79qqRsLkfzOlSs3tKFQmwoZ8B7LiRP21o3/zjkE0zhfttr0JXteLLp+zr7qpg1WFui6ikeBlTYMfsdRAMgrAiwA7Tc3f8VSN9Y4hxGryG9uKVTHimcKrxRiKcxCGG/9xxKHEIiGtOvluijgSmxkCq0+p+sKQO4/qzgCAB2RBrx/c/D6jMMI5scrV81AyzNdJ9S1QrqxQiDAiuHZ2TNWm55q/vTszQcPrbS03PyJUPSG67rgNY4CQC8gwALQWXPzn1jqxmLAeyS6Sjg6bNZ/yvdzarC7Brxr0DtcI8Dy7/GHHzS7rrwPalfXlV4IRwPaNah9naMA0CsIsAB0XurG+vbgdYXDCEbD3TXk3butndSNBbcIsPxSYLU7e9ka5RHXz/lGvW6lpRvWd6/Kmx6Puq6ucgwAeg0BFoDumZv/wtKAd7qxIjl10uztc+mnZ+rCUjeWurLgDgGWT/vvjtne9JT7rqvC2roVV1YZ1B7PuqWuq5scBYBeRIAFoLvm5i9YulJ4gcMIRp1Y6sjyTPOw1Iml+VhwhQDLFwVW9YuT9mRi3PcX//2GDSwt28m/bfCmx6M5V18xqB1AT3+OcQQAcmFu/qqlbixE0l8wGz2XZmR5pg2F2lTIgHc3CLD8aJwvW236kj0vFl0/Z1910wYrC3RdxaPAShsGv+MoAPQ6AiwA+TE3f8VSN9Y4hxGIthNqS6G2FXqm8EohlsIs9DwCLB80pF0v11/29xvNIe2n//wX3vB4FFp9TtcVADefaRwBgFxJA96/OXh9xmEEowBLQZYCLc90nVDXCunG6mkEWL3t2dkzVpueav707M0HD620tNz8iVD0huu64DWOAoAnBFgA8mlu/hNL3VgMeI9EVwlHh836T/l+Tg1214B3DXpHTyLA6l2PP/yg2XXlfVC7uq70Qjga0K5B7escBQBvCLAA5Ffqxvr24HWFwwhGw9015N27rZ3UjYWeQ4DVexRY7c5etkZ5xPVzvlGvW2nphvXdq/Kmx6Ouq6scAwCvCLAA5N/c/BeWBrzTjRXJqZNmb59LPz1TF5a6sdSVhZ5BgNVb9t8ds73pKfddV4W1dSuurDKoPZ51S11XNzkKAJ4RYAHoDXPzFyxdKbzAYQSjTix1ZHmmeVjqxNJ8LPQEAqzeoMCqfnHSnkyM+/5Cv9+wgaVlO/m3Dd70eDTn6isGtQOIgAALQG+Zm79qqRsLkfQXzEbPpRlZnmlDoTYVMuA99wiw8q9xvmy16Uv2vFh0/Zx91U0brCzQdRWPAittGPyOowAQBQEWgN4zN3/FUjfWOIcRiLYTakuhthV6pvBKIZbCLOQWAVa+aUi7Xq6/xO83mkPaT//5L7zh8Si0+pyuKwDREGAB6E1pwPs3B6/POIxgFGApyFKg5ZmuE+paId1YuUSAlU/Pzp6x2vRU86dnbz54aKWl5eZPhKI3XNcFr3EUACIiwALQ2+bmP7HUjcWA90h0lXB02Kz/lO/n1GB3DXjXoHfkCgFW/jz+8INm15X3Qe3qutIL4WhAuwa1r3MUAKIiwALQ+1I31rcHryscRjAa7q4h795t7aRuLOQGAVZ+KLDanb1sjfKI6+d8o1630tIN67tX5U2PR11XVzkGANERYAHwY27+C0sD3unGiuTUSbO3z6WfnqkLS91Y6spC1xFg5cP+u2O2Nz3lvuuqsLZuxZVVBrXHs26p6+omRwEABFgAvJmbv2DpSuEFDiMYdWKpI8szzcNSJ5bmY6GrCLC6S4FV/eKkPZkY9/1Ffb9hA0vLdvJvG7zp8WjO1VcMageAQ5+LHAEAl+bmr1rqxkIk/QWz0XNpRpZn2lCoTYUMeO8aAqzuaZwvW236kj0vFl0/Z1910wYrC3RdxaPAShsGv+MoAODnCLAA+DU3f8VSN9Y4hxGIthNqS6G2FXqm8EohlsIsdBwBVndoSLterr+c7zeaQ9pP//kvvOHxKLT6nK4rAPiVz0iOAIBracD7NwevzziMYBRgKchSoOWZrhPqWiHdWB1FgNVZz86esdr0VPOnZ28+eGilpeXmT4SiN1zXBa9xFADw6wiwAMQwN/+JpW4sBrxHoquEo8Nm/ad8P6cGu2vAuwa9oyMIsDrn8YcfNLuuvA9qV9eVXghHA9o1qH2dowCA30aABSCO1I317cHrCocRjIa7a8i7d1s7qRsLbUeA1X4KrHZnL1ujPOL6Od+o1620dMP67lV50+NR19VVjgEAXg0BFoB45ua/sDTgnW6sSE6dNHv7XPrpmbqw1I2lriy0DQFWe+2/O2Z701Puu64Ka+tWXFllUHs865a6rm5yFADw6giwAMQ0N3/B0pXCCxxGMOrEUkeWZ5qHpU4szcdCWxBgtYcCq/rFSXsyMe77C/h+wwaWlu3k3zZ40+PRnKuvGNQOAMf4/OQIAIQ2N3/VUjcWIukvmI2eSzOyPNOGQm0qZMB7yxFgtV7jfNlq05fsebHo+jn7qps2WFmg6yoeBVbaMPgdRwEAx0OABQBz81csdWONcxiBaDuhthRqW6FnCq8UYinMQssQYLWWhrTr5fpL936jOaT99J//whsej0Krz+m6AoDX/CzlCADAsgHv3xy8PuMwglGApSBLgZZnuk6oa4V0Y7UEAVZrPDt7xmrTU82fnr354KGVlpabPxGK3nBdF7zGUQDA6yPAAoDD5uY/sdSNxYD3SHSVcHTYrP+U7+fUYHcNeNegd7wWAqzX9/jDD5pdV94HtavrSi+EowHtGtS+zlEAQGsQYAHAy1I31rcHryscRjAa7q4h795t7aRuLBwbAdbxKbDanb1sjfKI6+d8o1630tIN67tX5U2PR11XVzkGAGgtAiwA+DVz819YGvBON1Ykp06avX0u/fRMXVjqxlJXFo6MAOt49t8ds73pKfddV4W1dSuurDKoPZ51S11XNzkKAGg9AiwA+C1z8xcsXSm8wGEEo04sdWR5pnlY6sTSfCwcCQHW0Siwql+ctCcT476/WO83bGBp2U7+bYM3PR7NufqKQe0A0MbPWY4AAF7B3PxVS91YiKS/YDZ6Ls3I8kwbCrWpkAHvr4wA69U1zpetNn3JnheLrp+zr7ppg5UFuq7iUWClDYPfcRQA0F4EWADwqubmr1jqxhrnMALRdkJtKdS2Qs8UXinEUpiF30WA9Wo0pF0v11+m9xvNIe2n//wX3vB4FFp9TtcVAHToM5cjAIAjSAPevzl4fcZhBKMAS0GWAi3PdJ1Q1wrpxvpNBFi/7dnZM1abnmr+9OzNBw+ttLTc/IlQ9IbruuA1jgIAOocACwCOY27+E0vdWAx4j0RXCUeHzfpP+X5ODXbXgHcNesc/RID16x5/+EGz68r7oHZ1XemFcDSgXYPa1zkKAOgsAiwAOK7UjfXtwesKhxGMhrtryLt3WzupGwu/QID1SwqsdmcvW6M84vo536jXrbR0w/ruVXnT41HX1VWOAQC6gwALAF7X3PwXlga8040VyamTZm+fSz89UxeWurHUlYW/I8D6uf13x2xvesp911Vhbd2KK6sMao9n3VLX1U2OAgC6hwALAFphbv6CpSuFFziMYNSJpY4szzQPS51Ymo+FJgKsRIFV/eKkPZkY9/2Feb9hA0vLdvJvG7zp8WjO1VcMageAHHwecwQA0EJz81ctdWMhkv6C2ei5NCPLM20o1KZCBrwTYB1onC9bbfqSPS8WXT9nX3XTBisLdF3Fo8BKGwa/4ygAIB8IsACg1ebmr1jqxhrnMALRdkJtKdS2Qs8UXinEUpgVWPQAS0Pa9XL9JXm/0RzSfvrPf+Hvt3gUWn1O1xUA5OyzmSMAgDZIA96/OXh9xmEEowBLQZYCLc90nVDXCoN2Y0UNsJ6dPWO16anmT8/efPDQSkvLzZ8IRW+4rgte4ygAIH8IsACgnf5/9u5mN6pzbRPwowb/YBuUmB1ilAwgg2RqIgUxiCL3sGce+ADsM/Cgh2tQSJ7bZ8AJLMkcA2JgGTUwhQGqAQwwiiAJVtJ2InU9fr/0zpcNAYN/qtZ7XdJySdHeCX6q7Kw8utf9Nu1ilDSWgvea5KOEcxcjpia6/X1msXsWvGfRe2VqXGD9+s3XB6mrrhe1Z+oqL6qTBe1Z1N43CoDhZIEFcNxKGmtzcC0YRmWy3D1L3rvux59KGqsiNS2wcmH18w/fx/6lzzr9fZ7Z3Y2ZrXsx9nzH7676ZOqqZwwAw80CC+CkNO1qlIJ3aayaTIxHXJ4tr12WKaxMY2UqqwK1LLD2vvwifrlxvfOpq8kn/Zi+/0BRe336UVJXD40CYPhZYAGcpKadj/JI4bxhVCaTWJnI6rLsw8okVvZjdVzXF1i5sNr99lr89tWVbt8I7+3H+a3tGH/6zO+o+mTP1U1F7QAj9O9tIwA4BU3bi5LGoiZTkxFzs6Ujq8vyhMI8qbDDBe9dXmDtf34pXt/4Lv6Ynu70x3Rs50VcuHNX6qo+ubDKEwZvGwXAaLHAAjgtTbsQJY11xTAqkqcT5imFeVphl+XyKpdYuczqoK4usLKkPa9O3/zu7R+UtJ979Njvo/rk0mpF6gpgRP8dbgQAp6gUvK8PrmXDqEwusHKRlQutLsvHCfOxwo6lsbq2wPr900/i9Y3rB69ddvblq5jZ2j54pSr5hufjghtGATC6LLAAhkHTLkZJYyl4r0k+Sjh3MWJqotvfZxa7Z8F7Fr13RJcWWL9+8/VB6qrrRe2ZusqL6mRBexa1940CYLRZYAEMi5LG2hxcC4ZRmSx3z5L3rvvxp5LG6oAuLLByYfXzD9/H/qXPOv2xO7O7GzNb92Ls+Y7fNfXJ1FXPGAC6wQILYNg07WqUgndprJpMjEdcni2vXZYprExjZSprhI36Amvvyy/ilxvXO5+6mnzSj+n7DxS116cfJXX10CgAusMCC2AYNe18lEcK5w2jMpnEykRWl2UfViaxsh9rRI3qAisXVrvfXovfvrrS7Rvcvf04v7Ud40+f+Z1Sn+y5uqmoHaCD/343AoAh1rS9KGksajI1GTE3WzqyuixPKMyTCkew4H0UF1j7n1+K1ze+iz+mpzv9sRrbeREX7tyVuqpPLqzyhMHbRgHQTRZYAMOuaReipLGuGEZF8nTCPKUwTyvsslxe5RIrl1kjZNQWWFnSnlenb2r39g9K2s89euz3R31yabUidQXQbRZYAKOgFLyvD65lw6hMLrBykZULrS7LxwnzscIRSWONygLr908/idc3rh+8dtnZl69iZmv74JWq5BuejwtuGAVA91lgAYySpl2MksZS8F6TfJRw7mLE1ES3v88sds+C9yx6H3KjsMD69ZuvD1JXXS9qz9RVXlQnC9qzqL1vFAB1sMACGDUljbU5uBYMozJZ7p4l7133408ljTXEhnmBlQurn3/4PvYvfdbpj8mZ3d2Y2boXY893/G6oT6auesYAUBcLLIBR1bSrUQrepbFqMjEecXm2vHZZprAyjZWprCE0rAusvS+/iF9uXO986mryST+m7z9Q1F6ffpTU1UOjAKiPBRbAKGva+SiPFM4bRmUyiZWJrC7LPqxMYmU/1pAZtgVWLqx2v70Wv311pds3rnv7cX5rO8afPvM7oD7Zc3VTUTtAvSywALqgaXtR0ljUZGoyYm62dGR1WZ5QmCcVDlHB+zAtsPY/vxSvb3wXf0xPd/pjMLbzIi7cuSt1VZ9cWOUJg7eNAqBuFlgAXdG0C1HSWFcMoyJ5OmGeUpinFXZZLq9yiZXLrCEwLAusLGnPq9M3q3v7ByXt5x499vNen1xarUhdAXBwT2AEAB1SCt7XB9eyYVQmF1i5yMqFVpfl44T5WOEpp7FOe4H1+6efxOsb1w9eu+zsy1cxs7V98EpV8g3PxwU3jAKAP1lgAXRR0y5GSWMpeK9JPko4dzFiaqLb32cWu2fBexa9n5LTXGD9+s3XB6mrrhe1Z+oqL6qTBe1Z1N43CgD+ygILoKtKGmtzcC0YRmWy3D1L3rvux59KGusUnMYCKxdWP//wfexf+qzTb+uZ3d2Y2boXY893/CzXJ1NXPWMA4E0ssAC6rmlXoxS8S2PVZGI84vJsee2yTGFlGitTWSfopBdYe19+Eb/cuN751NXkk35M33+gqL0+/Sipq4dGAcDbWGAB1KBp56M8UjhvGJXJJFYmsros+7AyiZX9WCfkpBZYubDa/fZa/PbVlW7fkO7tx/mt7Rh/+szPbH2y5+qmonYA3nm/YAQAFWnaXpQ0FjWZmoyYmy0dWV2WJxTmSYUnUPB+Egus/c8vxesb38Uf09OdftvGdl7EhTt3pa7qkwurPGHwtlEA8D4ssABq07QLUdJYVwyjInk6YZ5SmKcVdlkur3KJlcusY3TcC6wsac+r0zehe/sHJe3nHj3281mfXFqtSF0BcKh7ByMAqFApeF8fXMuGUZlcYOUiKxdaXZaPE+ZjhceUxjquBdbvn34Sr29cP3jtsrMvX8XM1vbBK1XJNzwfF9wwCgAOywILoGZNuxgljaXgvSb5KOHcxYipiW5/n1nsngXvWfR+xI5jgfXrN18fpK66XtSeqau8qE4WtGdRe98oAPgQFlgAtStprM3BtWAYlcly9yx577offypprCN0lAusXFj9/MP3sX/ps06/DWd2d2Nm616MPd/xs1efTF31jAGAj2GBBUDRtKtRCt6lsWoyMR5xeba8dlmmsDKNlamsI3BUC6y9L7+IX25c73zqavJJP6bvP1DUXp9+lNTVQ6MA4GNZYAHwb007H+WRwnnDqEwmsTKR1WXZh5VJrOzH+kgfu8DKhdXut9fit6+udPtGc28/zm9tx/jTZ37G6pM9VzcVtQNwZPcVRgDAf2jaXpQ0FjWZmoyYmy0dWV2WJxTmSYUfUfD+MQus/c8vxesb38Uf09OdHvPYzou4cOeu1FV9cmGVJwzeNgoAjpIFFgBv1rQLUdJYVwyjInk6YZ5SmKcVdlkur3KJlcusD/ChC6wsac+r0zeXe/sHJe3nHj3281SfXFqtSF0BcCz3GEYAwFuVgvf1wbVsGJXJBVYusnKh1WX5OGE+VnjINNZhF1i/f/pJvL5x/eC1y86+fBUzW9sHr1Ql3/B8XHDDKAA4LhZYALxb0y5GSWMpeK9JPko4dzFiaqLb32cWu2fBexa9v6fDLLB+/ebrg9RV14vaM3WVF9XJgvYsau8bBQDHyQILgPdT0libg2vBMCqT5e5Z8t51P/5U0ljv4X0WWLmw+vmH72P/0medHtuZ3d2Y2boXY893/KzUJ1NXPWMA4CRYYAFwOE27GqXgXRqrJhPjEZdny2uXZQor01iZyvoH71pg7X35Rfxy43rnU1eTT/oxff+Bovb69KOkrh4aBQAnxQILgMNr2vkojxTOG0ZlMomViawuyz6sTGJlP9ZbvG2BlQur3W+vxW9fXen2DeTefpzf2o7xp8/8TNQne65uKmoH4MTvP4wAgA/WtL0oaSxqMjUZMTdbOrK6LE8ozJMK31Dw/qYF1v7nl+L1je/ij+npTo9lbOdFXLhzV+qqPrmwyhMGbxsFAKfBAguAj9O0C1HSWFcMoyJ5OmGeUpinFXZZLq9yiZXLrL/4+wIrS9rz6vRN497+QUn7uUePff7rk0urFakrAE71XsQIAPhopeB9fXAtG0ZlcoGVi6xcaHVZPk6YjxX+VxrrzwXW759+Eq9vXD947bKzL1/FzNb2wStVyTc8HxfcMAoATpsFFgBHp2kXo6SxFLzXJB8lnLsYMTXR7e8zi92z4P3/7h0ssH795uuD1FXXi9ozdZUX1cmC9ixq7xsFAMPAAguAo1XSWJuDa8EwKpPl7lny3nU//hRjf+zF/qXPOv1tntndjZmtezH2fMdnuz6ZuuoZAwDDxAILgOPRtKtRCt6lsWoyMR5xeba8MrImn/Rj+v4DRe316UdJXT00CgCGjQUWAMenaeejPFI4bxiVySRWJrIYrRvDvf04v7Ud40+fGUZ9sufqpqJ2AIb2PsUIADh2TduLksaiJlOTEXOzpSOLoTe28yIu3LkrdVWfXFjlCYO3jQKAYWaBBcDJaNqFKGmsK4ZRkTydME8pzNMKGc6bwb39g5L2c48eG0Z9cmm1InUFwEjcsxgBACemFLyvD65lw6hMLrBykZULLYbG2ZevYmZr++CVquQbno8LbhgFAKPCAguAk9e0i1HSWArea5KPEs5djJiaMIshkKmrvKhOFrRnUXvfKAAYJRZYAJyOksbaHFwLhlGZLHfPkndOxZnd3ZjZuhdjz3cMoz6ZuuoZAwCjyAILgNPVtKtRCt6lsWoyMR5xeba8cmImn/Rj+v4DRe316UdJXT00CgBGlQUWAKevaeejPFI4bxiVySRWJrI43hu+vf04v7Ud40+fGUZ9sufqpqJ2AEb+fsYIABgaTduLksaiJlOTEXOzpSOLIze28yIu3LkrdVWfXFjlCYO3jQKALrDAAmC4NO1ClDTWFcOoSJ5OmKcU5mmFHM1N3t7+QUn7uUePDaM+ubRakboCoFP3NkYAwNApBe/rg2vZMCqTC6xcZOVCiw929uWrmNnaPnilKvmG5+OCG0YBQNdYYAEwvJp2MUoaS8F7TfJRwrmLEVMTZvEBMnWVF9XJgvYsau8bBQBdZIEFwHAraazNwbVgGJXJcvcseee9nNndjZmtezH2fMcw6pOpq54xANBlFlgAjIamXY1S8C6NVZOJ8YjLs+WVt5p80o/p+w8UtdenHyV19dAoAOg6CywARkfTzkd5pHDeMCqTSaxMZPHfb+T29uP81naMP31mGPXJnqubitoBqOa+xwgAGDlN24uSxqImU5MRc7OlI4sY23kRF+7clbqqTy6s8oTB20YBQE0ssAAYTU27ECWNdcUwKpKnE+YphXlaYa03b3v7ByXt5x499nmoTy6tVqSuAKjyHsgIABhZpeB9fXAtG0ZlcoGVi6xcaFXk7MtXMbO1ffBKVfINz8cFN4wCgFpZYAEw+pp2MUoaS8F7TfJRwrmLEVMTVXy7mbrKi+pkQXsWtfeNAoCaWWAB0A0ljbU5uBYMozJZ7p4l7x11Znc3ZrbuxdjzHe91fTJ11TMGALDAAqBrmnY1SsG7NFZNJsYjLs+W1w6ZfNKP6fsPFLXXpx8ldfXQKACgsMACoHuadj7KI4XzhlGZTGJlImvUb9D29uP81naMP33mPa1P9lzdVNQOAH+7PzICADqraXtR0ljUZGoyYm62dGSNoLGdF3Hhzl2pq/rkwipPGLxtFADwnyywAOi2pl2Iksa6YhgVydMJ85TCPK1wVG7K9vYPStrPPXrs/atPLq1WpK4A4B/ulYwAgM4rBe/rg2vZMCqTC6xcZOVCa4idffkqZra2D16pSr7h+bjghlEAwD+zwAKgHk27GCWNpeC9Jvko4dzFiKmJofzjZeoqL6qTBe1Z1N43CgB4NwssAOpS0libg2vBMCqT5e5Z8j4kzuzuxszWvRh7vuO9qU+mrnrGAADvzwILgDo17WqUgndprJpMjEdcni2vp2jyST+m7z9Q1F6ffpTU1UOjAIDDscACoF5NOx/lkcJ5w6hMJrEykXXSN157+3F+azvGnz7zHtQne65uKmoHgA+8jzICAKrXtL0oaSxqMjUZMTdbOrJOwNjOi7hw567UVX1yYZUnDN42CgD4cBZYAJCadiFKGuuKYVQkTyfMUwrztMLjutna2z8oaT/36LF51yeXVitSVwBwBPdURgAA/6UUvK8PrmXDqEwusHKRlQutI3T25auY2do+eKUq+Ybn44IbRgEAR8MCCwD+rmkXo6SxFLzXJB8lnLsYMTVxJH+7TF3lRXWyoD2L2vtGAQBHxwILAN6kpLE2B9eCYVQmy92z5P0DndndjZmtezH2fMcs65Opq54xAMDRs8ACgH/StKtRCt6lsWoyMR5xeba8HsLkk35M33+gqL0+/Sipq4dGAQDHwwILAN6laeejPFI4bxiVySRWJrLedUO1tx/nt7Zj/OkzM6tP9lzdVNQOAMfLAgsA3lfT9qKksajJ1GTE3GzpyHqDsZ0XceHOXamr+uTCKk8YvG0UAHD8LLAA4DCadiFKGuuKYVQkTyfMUwrztMI/b6L29g9K2s89emw+9cml1YrUFQCcHAssADisUvC+PriWDaMyucC6fDHO/vRzzGxtx9mX9heVyTc8HxfcMAoAOFkWWADwoZp2MUoaS8F7TcbOxr+27ppDfbKgPYva+0YBACfPAgsAPkZJY20OrgXDqMe//s+WIdQlU1c9YwCA02OBBQBHoWlXoxS8S2NVwAKrGv0oqauHRgEAp+t/GAEAHIG1pezE+Z9RHjMCRl/+TF+zvAKA4SCBBQBHrWl7UdJYdJQEVqdlUXueMHjbKABgeEhgAcBRW1vqRUlj9Q0DRkoura5aXgHA8JHAAoDjUgre1wfXsmF0iwRW52TqKovaN4wCAIaTBRYAHLemXRx8vRUK3jvDAqtTsuMqi9r7RgEAw8sCCwBOQkljbQ6uBcMYfRZYnZGpq54xAMDws8ACgJPUtKtRCt6lsUaYBdbI60dJXTlhEABGhBJ3ADhJa0vZsZMF7/7DGU5H/gxes7wCgNEigQUAp6Vpe1HSWIwYCayRlEXtK04YBIDRJIEFAKdlbakXJY3VNww4Vrm0ump5BQCjSwILAE5bKXhfH1zLhjEaJLBGRqausqh9wygAYLRZYAHAsGjaxcHXW6HgfehZYI2E7LjKova+UQDA6LPAAoBhUtJYm4NrwTCGlwXW0MvUVc8YAKA7LLAAYBg17WqUgndprCFkgTW0+lFSV04YBICOUeIOAMNobSk7e7Lg3X+Iw/vJn5lrllcA0E0SWAAw7Jq2FyWNxZCQwBoqWdS+4oRBAOg2CSwAGHZrS70oaay+YcB/k0urq5ZXANB9ElgAMCpKwfv64Fo2jNMlgXXqMnWVRe0bRgEAdbDAAoBR07SLg6+3QsH7qbHAOlXZcZVF7X2jAIB6WGABwCgqaazNwbVgGCfPAuvUZOqqZwwAUB8LLAAYZU27GqXgXRrrBFlgnbh+lNSVEwYBoFJK3AFglK0tZQdQFrz7D3u6Kj/j1yyvAKBuElgA0BVN24uSxuKYSWCdiCxqX3HCIACQJLAAoCvWlnpR0lh9w2DE5dLqquUVAPAnCSwA6JpS8L4+uJYN43hIYB2bTF1lUfuGUQAAf2WBBQBd1bSLg6+3QsH7kbPAOhbZcZVF7X2jAAD+zgILALqspLE2B9eCYRwdC6wjl6mrnjEAAG9jgQUANWja1SgF79JYR8AC68j0o6SunDAIAPwjJe4AUIO1pewUyoJ3iwKGRX4mr1leAQDvQwILAGrTtL0oaSw+kATWR8mi9hUnDAIAhyGBBQC1WVvqRUlj9Q2DE5ZLq6uWVwDAYUlgAUCtSsH7+uBaNozDkcA6tExdZVH7hlEAAB/CAgsAate0i4Ovt0LB+3uzwDqU7LjKova+UQAAH8oCCwD4M421ObgWDOPdLLDeW6auesYAAHwsCywA4N+adjVKwbs01j+wwHqnfpTUlRMGAYAjocQdAPi3taXsKMqCd4sHPlR+hq5ZXgEAR0kCCwB4s6btRUlj8TcSWG+URe0rThgEAI6DBBYA8GZrS70oaay+YfAOubS6ankFABwXCSwA4J+Vgvf1wbVsGIUE1v+Xqassat8wCgDgOFlgAQDvp2kXB19vhYJ3C6wiO66yqL1vFADAcbPAAgDeX0ljbQ6uhZrHYIF1kLrq+YEAAE6KBRYAcHhNuxql4L3KNFbFC6x+lNSVEwYBgBOlxB0AOLy1pew8yoJ3i4x65Ht+zfIKADgNElgAwMdp2l6UNFY1KktgZVH7ihMGAYDTJIEFAHyctaVelDRW3zA6J5dWVy2vAIDTJoEFAByNUvC+PriWu/6tVpDAytRVFrVv+GADAMPAAgsAOFpNuzj4eis6XPDe8QVWdlxlUXvfhxkAGBYWWADA0StprM3BtdDFb6/DC6xMXfV8gAGAYWOBBQAcn6ZdjVLw3qk0VgcXWP0oqSsnDAIAQ0mJOwBwfNaWskMpC94tRoZXvkfXLK8AgGEmgQUAnIym7UVJY428jiSwsqh9xQmDAMAokMACAE7G2lIvShqrbxinLpdWVy2vAIBRIYEFAJysUvC+PriWR/VbGOEEVqausqh9wwcRABglFlgAwOlo2sXB11sxggXvI7rAyo6rLGrv+/ABAKPGAgsAOD0ljbU5uBZG6Y89ggusTF31fOAAgFFlgQUAnL6mXY1S8D4SaawRWmD1o6SunDAIAIw0Je4AwOlbW8pOpix4t2g5OjnTa5ZXAEAXSGABAMOlaXtR0lhDa8gTWFnUvuKEQQCgSySwAIDhsrbUi5LG6hvGoeXS6qrlFQDQNRJYAMBwKgXv64Nredj+aEOYwMrUVRa1b/jgAABdZIEFAAy3pl0cfL0VQ1TwPmQLrOy4yqL2vg8LANBVFlgAwPAraazNwbUwDH+cIVpgZeqq5wMCAHSdBRYAMDqadjVKwfupprGGYIHVj5K6csIgAFAFJe4AwOhYW8qOpyx4r3lxkzO4ZnkFANREAgsAGE1N24uSxjpxp5TAyqL2FScMAgA1ksACAEbT2lIvShqrX8F3m0urq5ZXAECtJLAAgNFWCt7XB9fySf0jTzCBlamrLGrf8EYDADWzwAIAuqFpFwdfb8UJFLyf0AIrO66yqL3vzQUAameBBQB0R0ljbQ6uheP8x5zAAitTVz1vKABAYYEFAHRP065GKXg/ljTWMS6w+lFSV04YBAD4CyXuAED3rC1lZ1QWvI/SIij/zNcsrwAA/pMEFgDQbU3bi5LGOjJHnMDKovYVJwwCALydBBYA0G1rS70oaaz+EP7pcml11fIKAOCfSWABAHUoBe/rg2v5Y/9WR5DAytRVFrVveGMAAN7NAgsAqEvTLg6+3oqPKHj/yAVWdlxlUXvfmwEA8H4ssACA+pQ01ubgWviQ//tHLLAyddXzBgAAHI4FFgBQr6ZdjVLwfqg01gcssPpRUldOGAQA+ABK3AGAeq0tZQdVFrwf52Ip/xnXLK8AAD6cBBYAQGraXpQ01ju9ZwIri9pXnDAIAPDxJLAAANLaUi9KGqt/BH+3XFpdtbwCADgaElgAAH9VCt7XB9fy2/4n/5DAytRVFrVvGCQAwNGxwAIAeJOmXRx8vRVvKHh/ywIrO66yqL1veAAAR8sCCwDgbUoaa3NwLfz1L79hgZWpq56BAQAcDwssAIB3adrVKAXvB2msvyyw+lFSV04YBAA4RkrcAQDeZW0pO62y4P2vi6r8a9csrwAAAAAYLk3b+9f/+t+LBgEAAAAAAAAAAAAAAAAAAAAAAAAAAAAAAAAAAAAAAAAAAAAAAAAAAAAAAAAAAAAAAAAAAAAAAAAAAAAAAAAAAAAAAAAAAAAAAAAAAAAAAAAAAAAAAAAAAAAAAAAAAAAAAAAAAAAAAAAAAAAAAAAAAAAAAAAAAAAAAAAAAAAAAAAAAAAAAAAAAAAAAAAAAAAAAAAAAAAAAAAAAAAAAAAAAAAAAAAAAAAAAAAAAAAAAAAAAAAAAAAAAAAAAAAAAAAAAAAAAAAAAAAAAAAAAAAAAAAAAAAAAAAAAAAAAAAAAAAAAAAAAAAAAAAAAAAAAAAAAAAAAAAAAAAAAAAAAAAAAAAAAAAAAAAAAAAAAAAAAAAAAAAAAAAAAAAAAAAAAAAAAAAAAAAAAAAAAAAAAAAAAAAAAAAAAAAAAAAAAAAAAAAAAAAAAAAAAAAAAAAAAAAAAAAAAAAAAAAAAAAAAAAAAAAAAAAAAAAAAAAAAAAAAAAAAAAAAAAAAAAAAAAAAAAAAAAAAAAAAAAAAAAAAAAAAAAAAAAAAAAAAAAAAAAAAAAAAAAAAAAAAAAAAAAAAAAAAAAAAAAAAAAAAAAAAAAAAAAAAAAAAAAAAAAAAAAAAAAAAAAAAAAAAAAAAAAAAAAAAAAAAAAAAAAAAAAAAAAAAAAAAAAAAAAAAAAAAAAAAAAAAAAAAAAAAAAAAAAAAAAAAAAAAAAAAAAAAHAi/p8AAwDek/l7jFuZSgAAAABJRU5ErkJggg==;" parent="1" vertex="1">
          <mxGeometry x="192" y="61" width="180" height="180" as="geometry" />
        </mxCell>
        <mxCell id="cJ-756JFJZ41Q-hjwV2Q-32" value="Qumulo Cluster" style="text;html=1;strokeColor=none;fillColor=none;align=center;verticalAlign=middle;whiteSpace=wrap;rounded=0;strokeWidth=2;fontSize=12;fontStyle=1;fontColor=#003366;" parent="1" vertex="1">
          <mxGeometry x="214" y="236" width="128" height="30" as="geometry" />
        </mxCell>
        <mxCell id="cJ-756JFJZ41Q-hjwV2Q-41" value="Qumulo Broker" style="text;html=1;strokeColor=none;fillColor=none;align=center;verticalAlign=middle;whiteSpace=wrap;rounded=0;strokeWidth=2;fontSize=12;fontStyle=1;fontColor=#003366;" parent="1" vertex="1">
          <mxGeometry x="455" y="236" width="125" height="30" as="geometry" />
        </mxCell>
        <UserObject label="" lucidchartObjectId="-J4vAYzguxDM" id="cJ-756JFJZ41Q-hjwV2Q-5">
          <mxCell style="html=1;overflow=block;blockSpacing=1;whiteSpace=wrap;shape=image;fontSize=13;spacing=0;strokeColor=none;strokeOpacity=100;strokeWidth=0;image=https://images.lucid.app/images/13705c87-6b98-4991-a73c-3e7dc2599921/content;imageAspect=0;" parent="1" vertex="1">
            <mxGeometry x="468" y="130" width="107" height="107" as="geometry" />
          </mxCell>
        </UserObject>
        <mxCell id="cJ-756JFJZ41Q-hjwV2Q-42" value="" style="shape=image;verticalLabelPosition=bottom;labelBackgroundColor=default;verticalAlign=top;aspect=fixed;imageAspect=0;image=data:image/png,iVBORw0KGgoAAAANSUhEUgAAA/IAAAE4CAYAAAD4jsjDAAAABGdBTUEAALGPC/xhBQAAQABJREFUeAHsnQl8FdX598+Ze3MTIEE2N9zrAtTkJiEsKl0QqyVBEKlY927W7tW21mpba7ppbau2trWt/u3bilYrsghCqHVBW1TAQBas4FJrUdwIKgkkucvM+zsJgQA3yV1m5szc+c3nk9y5M+ec53m+59yZ85xVCB4kQAIkQAIkQAIkQAIkQAIkQAIkQAK+ISDT0vTeNUcIU54lLDFdCOsYYcnR+ByWVlzHA8n3hLS2CCFfEVKsEIb1oDh/0mbHxVIACZAACZAACZAACZAACZAACZAACWgg0L8jf1/DCSIRv0FY1hwNumUvUsqFIlxwjTiv4oXsE2FMEiABEiABEiABEiABEiABEiABEvAegdSOvGVJcfez16Gn+3vohQ97T+00NJIigZEDPxUXTfihkNJKIwaDkAAJkAAJkAAJkAAJkAAJkAAJkIDnCezvyC99drB435rnu174vlCr3vkD5MVi5oSdfQXhdRIgARIgARIgARIgARIgARIgARLwCwFjL0VVT3w+OfHKODUtoNum/Rst9jKeX0iABEiABEiABEiABEiABEiABEjA+wRCe6l43Jm18Hy/tNe1/PgyTjS9IcSiO1bmhzm0ggRIgARIgARIgARIgARIgARIIKgE9vRSdy1sF3vOt3PiB8pBNWc+HDmRC+ANBIr3SYAESIAESIAESIAESIAESIAEvExgz9D6rtXpfbqwXTqE1aJ9ykYeJEACJEACJEACJEACJEACJEACJOBjAt098mqf+IT4n4/tSF/1sDiS+8ynj4shSYAESIAESIAESIAESIAESIAEvEWgu0felGd5Sy0HtQmSrQ5iZNIkQAIkQAIkQAIkQAIkQAIkQAJ6COxy5EW1HvEapFpiugapFEkCJEACJEACJEACJEACJEACJEACthDoduSldbQtqfkiEesYX6hJJUmABEiABEiABEiABEiABEiABEggBYFuR96So1Pcy89LQbI1P3OQVpEACZAACZAACZAACZAACZBAoAl0O/LCGhYcCkGyNTi5SktJgARIgARIgARIgARIgARIICgEdjnyQTGXdpIACZAACZAACZAACZAACZAACZCAvwnQkfd3/lF7EiABEiABEiABEiABEiABEiCBgBGgIx+wDKe5JEACJEACJEACJEACJEACJEAC/iZAR97f+UftSYAESIAESIAESIAESIAESIAEAkaAjnzAMpzmkgAJkAAJkAAJkAAJkAAJkAAJ+JsAHXl/5x+1JwESIAESIAESIAESIAESIAESCBgBOvIBy3CaSwIkQAIkQAIkQAIkQAIkQAIk4G8CdOT9nX/UngRIgARIgARIgARIgARIgARIIGAE6MgHLMNpLgmQAAmQAAmQAAmQAAmQAAmQgL8J0JH3d/5RexIgARIgARIgARIgARIgARIggYARoCMfsAynuSRAAiRAAiRAAiRAAiRAAiRAAv4mQEfe3/lH7UmABEiABEiABEiABEiABEiABAJGgI58wDKc5pIACZAACZAACZAACZAACZAACfibAB15f+cftScBEiABEiABEiABEiABEiABEggYATryActwmksCJEACJEACJEACJEACJEACJOBvAnTk/Z1/1J4ESIAESIAESIAESIAESIAESCBgBOjIByzDaS4JkAAJkAAJkAAJkAAJkAAJkIC/CdCR93f+UXsSIAESIAESIAESIAESIAESIIGAEaAjH7AMp7kkQAIkQAIkQAIkQAIkQAIkQAL+JkBH3t/5R+1JgARIgARIgARIgARIgARIgAQCRoCOfMAynOaSAAmQAAmQAAmQAAmQAAmQAAn4mwAdeX/nH7UnARIgARIgARIgARIgARIgARIIGAE68gHLcJpLAiRAAiRAAiRAAiRAAiRAAiTgbwLBdOTvfy7i72yj9iRAAiRAAiRAAiRAAiRAAiRAAkElEExHPt55aFAznHaTAAmQAAmQAAmQAAmQAAmQAAn4m0AwHXkpRvs726g9CZAACZAACZAACZAACZAACZBAUAkE05EXSTryQS3xtJsESIAESIAESIAESIAESIAEfE4gmI68KenI+7zgUn0SIAESIAESIAESIAESIAESCCqBYDrywpoS1Ayn3SRAAiRAAiRAAiRAAiRAAiRAAv4mEFRHvlpw5Xp/l1xqTwIkQAIkQAIkQAIkQAIkQAIBJRBMR94SQ0W849SA5jnNJgESIAESIAESIAESIAESIAES8DGBYDryKsMsc7aP842qkwAJkAAJkAAJkAAJkAAJkAAJBJRAcB15YZ0r7n/2gIDmO80mARIgARIgARIgARIgARIgARLwKYFdjrx8z6f6Z6+2JUaImHl19gkwJgmQAAmQAAmQAAmQAAmQAAmQAAm4T6DbkZfWFvdFe0Li5eLuxsM9oQmVIAESIAESIAESIAESIAESIAESIIE0CPT0yL+SRtj8C2KJQULEfph/htEiEiABEiABEiABEiABEiABEiCBfCWwq0derMhXA9Ow6zPinrVnpRGOQUiABEiABEiABEiABEiABEiABEhAO4FuR96wHtSuiS4FLEsKS9wt7n62TJcKlEsCJEACJEACJEACJEACJEACJEAC6RLoduTPn7RZSLkw3Uh5F86yioUwl4i/Pjsq72yjQSRAAiRAAiRAAiRAAiRAAiRAAnlFYNccedhkie8KKRJ5ZV0mxljiaGGaS+nMZwKNYUmABEiABEiABEiABEiABEiABNwmsMeRv3jiJmHJn7qtgKfkWeIkOPNrOczeU7lCZUiABEiABEiABEiABEiABEiABHoRkL3O0SuP+eL3PPsAPufsdT1oX6Rsw+iEi8SFE4O7dkDQ8pz2kgAJkAAJkAAJkAAJkAAJkIBPCOzpkVcKS2mJA+TFgZ4vrzioOfOWWCTuXnsn95lXQHiQAAmQAAmQAAmQAAmQAAmQAAl4hcDePfI9Wqme+bufvU5I63twaMM9lwP5KUU77P61iBg/E+dOeD+QDGg0CZAACZAACZAACZAACZAACZCAZwikduR71Ju3dgyGmF8f+KH2iocU2/DvfiGNxaKg6HFx7omxHkz8JAESIAESIAESIAESIAESIAESIAG3CPTvyPdoce+aI4Qpz0Lv/HSMOz8Gi+KNxuewntuB+5RiO5z6OvytEtJ8XcjwG2CzRRQUvkEHP3ClgQaTAAmQAAmQAAmQAAmQAAmQgKsE0nPkXVUJwu5/LiLCRolI7ByODfGOw0ryY3H1VDQenA6HeZDb6lCeEwRkHKMc2pCfrcjXd9Eo8pIwxCZI2ihC8ilx3oSXnZDKNEmABEiABEiABEiABEiABEjA7wS86cj3RXXps4Ph9p0Bx/4sOH4YIWAN7ysor/udgPwf1mh4DM79QnHoxDpxqkz43SLqTwIkQAIkQAIkQAIkQAIkQAJ2EPCXI9/b4rtfHCrEu9/GMP9vokd3cO9bPM83AvIdOPX3ClnwW3Fh5Yv5Zh3tIQESIAESIAESIAESIAESIIFMCPjXke+xct6zh8KRr4Wj9zkM0w71XOZnPhKQJqzCgoPyenHRhOZ8tJA2kQAJkAAJkAAJkAAJkAAJkMBABPzvyPdYeO+6CSKRWIyvh/Vc4meeEpDSQuPN/4nIkKuxuCB2E+BBAiRAAiRAAiRAAiRAAvoJVFVVHxuLybMsyzoV2hyOauto7Ow9TErxNq5twfTgVwzDqisqGvTQmjWLWvRrTA38SiB/HHmVA92984vg5E32a4ZQ74wItAgDUysunHhXRrEYmARIgARIgARIgARIgARsJFBWVj3bssR18EMq0klWSplEuL8bhvh+Y2Pd+nTiMAwJ9CaQX468suzxV4rE61vvwEJ4F/U2lOd5TeAeUTjki+idb8trK2kcCZAACZAACZAACZCApwhUVNRUJBLm76DUKVkqZsGp/2s4LL6xfn3dO1mmwWgBJJB/jnxPJt69dh6d+R4YAfiUcpMIF8wS51W8EABraSIJkAAJkAAJkAAJkIBmAqWlNedi6Pz/w5B5Gxbelq+iN3/Whg0rmjSbRfE+IWD4RM/M1Txs1OcxB2V15hEZw5cELGuMSMRXibvXTPSl/lSaBEiABEiABEiABEjANwTKyqZfLYT5N3uceGW2dRTm0T9VXl59hm8gUFGtBPK3R15h7Zozb67FGRfA01rMXBQuJYbXh2aLi8Y/6qJUiiIBEiABEiABEiABEggIgWh0+nmmKe51xly5PRIxTlq3btnzzqTPVPOFQH478iqX1Gr2ycQz3JouX4psGnZ0OfPWNHHRJNWIw4MESIAESIAESIAESIAEbCFQVjajCj3x/0RP/CBbEkyZiHw5HC6c0NCw+L2Ut3mRBEAgf4fW92Tv+eOfFZa8s+crPwNAwLKKMa1iubiv4YQAWEsTSYAESIAESIAESIAEXCAA5x2doOYfnHXilSHWsclkJ1bA50ECfRPIf0e+y3ZZC8duZ98YeCfvCFjWKMyZXyLufw5OPQ8SIAESIAESIAESIAESyI0AVqg/F078hNxSSS82trL7cjQ685j0QjNUEAkEw5G/eMIbQlo3BzGDA22zWgCvc8cfAs2AxpMACZAACZAACZAACdhCwDStH9qSUFqJWBHTjH83raAMFEgCwXDkVdaWDP25kPLdQOZysI2+UNyz9pJgI6D1JEACJEACJEACJEACuRAoK6spQy/5mFzSyCLunLlz54ayiMcoASAQDoCN3SaeNbYVW5M9iC+fDozNNLSbgCVuwhD7h8S5J24jkmATqK2tNRYvbjjSsuJjkklrDPZ+PQ5D5IZJKUtApgTn+JSYjmGVdF/rWm8hhnutuNeKe22Ioz7xXeDTajUM43Xc34TdEjaNGFH0wsqV87FzAg8SIAESIAESIIH8ImDN1mDPiBdfbP8w5K7UIJsiPU4gOI68ygjDeFAkzU97PE+ont0E1Hz52I6fIdnL7E6a6XmXQDRafTjWpPkIHPAPYl9W1YI+5oEHnjken0U9WsMZ7zoQpucSPrvP91yz1HNyMP4OVve6g+4Jb2L/me7DFFu3xkVZWXWXY49wmwxD4s96NhQ6Yk19/e3xXQH5QQIkQAIkQAIk4D8Cp+lQOZlMKLkrdcimTG8TyP/t53rzX/rsYPG+uRV1cQe3i+gtkOeeIYBuVPSilouLJjR7RicqYiuBaPTsg6TsOBXz106FAz8NTrdy2j1xoCFhBxT5J8rg49DtsXPOmbQOowN6WgA8oSOVIAESIAESIAES6JsAGupfRiP/B/oO4cwdjBD8S3Nz3aedSZ2p+plAsBx5lVN3r30QXWqz/Jxp1D1bAvI+cfHE87ONzXjeIqDmjG3atON0bANTrRx3vFxLvaVh39rgpYx9Ya0noPejBQUFC9avX7Kl79C8QwIkQAIkQAIkoJsAHPmdqGu43hmIOsM/4Mifodt+yvcegSA68lfAkb/Fe1lBjZwnIE1hhMeKCytfdF4WJThFAFu/VCSTAgsYWhfghYrh7n4/UC6FeAT2zDOMAxc1Nc1Tvfc8SIAESIAESIAEPEJg6tS5xVu3tmJtHB2HbNiwoa5Sh2TK9DaBYM2RV3lhGBsFvAAeQSRgGcKKfxWWXx5E6/1sc2XlrNGYI3YhHPdLEgnTNz3v6TFHuRRCtbSfYZrvtKHFfwFmgsybM+ekxzn8Pj2CDEUCJEACJEACThKACx9yMv3+0sb0PG2y+9OL9/QTCF6P/P31x4nOJHtk9Zc9TRrId8ThE0aLU2VCkwIUmwGBsrIZH7Os5JWYW44h9F0Obwax/R0UQ+legwW3h0KFv2loWIyh+DxIgARIgARIgAR0EKiqmntAZ2erlncx6gPNGFof1WE3ZXqbQHD2ke/Jh/Bg7iXfwyKQn9aB4o211YE03SdGo9ddYsX5meiZfgZO/D+g9seD5sSrrAIHrLpv/SiR6HwVe9feoBbz80kWUk0SIAESIAESIAESIAGHCQTPkU+Ymua3OJyTTD59AqaYk35ghnSLgNrjvby8+pPRaE0DVp5fAid2sluyvS3HGmpZ5tWW1fHf0tLqX6lt9bytL7UjARIgARIgARIgARJwmkDwHPlzT4w5DZXpe5xA19ZkHtcxQOopBz4anf6pBQtWP59MWvfBgefwsRT5Dy5YKde6HNvWv4zRCrdXVtYclSIYL5EACZAACZAACZAACQSAQPAc+QBkKk0ciIB1pLjv2WMHCsX7zhMoLa2Z8MADq5+Bc/pnOKonOC8xHyRYEbD6fCJh/Rv8rsE2fJF8sIo2kAAJkAAJkAAJkAAJpE+Ajnz6rBgynwgkrVPyyRy/2VJRMXsYhonfhh7m1fib6Df9vaAvnPnBQpjXb9zY2oQRDad5QSfqQAIkQAIkQAIkQAIk4A4BOvLucKYU7xEY6z2VgqGRGkafTHZsggP/JfzxGZRjtluWGIMRDY+gYeRetU1fjskxOgmQAAmQAAmQAAmQgA8IsBLtg0yiig4QMMUYB1Jlkv0QKC+feWJZ2fQnu4fRC67A3g+r7G5Z58Xj8Y1YDO8Kte5AdmkwFgmQAAmQAAmQAAmQgB8IsLLnh1yijg4QsI5zIFEm2QcBLM72edNMrEXv8Yf7CMLLthCwSrDi/y1YOPDh0tJZB9uSJBMhARIgARIgARIgARLwHAE68p7LEirkDgE53B05wZYydercYvTC/xXzuW/HH1Zd5+EGAbDGnPl4A3rnp7khjzJIgARIgARIgARIgATcJUBH3l3elOYVAlKUeEWVfNWjsvLM8paWtnr0wp+frzZ62y7rEExj+Ec0WoOR9hxq7+28onYkQAIkQAIkQAIkkBkBOvKZ8WLovCFg0ZF3MC/Lymq+EI8nnkHPMLeUc5DzwElbhmma1z3wwDOPTJxYc8jA4RmCBEiABEiABEiABEjADwToyPshl6ij/QQsEbY/UaZYXV1diPnw91iW+QfQKCIRzxA4taPDaqiomMFtFz2TJVSEBEiABEiABEiABLInQEc+e3aMSQIk0IvAlCmzSl57TSxHL/wFvS7z1CMEkC8HJ5PmI+XlNWd6RCWqQQIkQAIkQAIkQAIkkCUBOvJZgmM0EiCBPQTUCunbt8efgLM4bc9VnnmNAPJnEIbaL8LUh894TTfqQwIkQAIkQAIkQAIkkD4BOvLps2JIEiCBFATKymZ8ACukr4KTWJniNi95jAAWHwxj6sOfMAXiOx5TjeqQAAmQAAmQAAmQAAmkSYCOfJqgGIwESGB/AhUVNRVCmE8JYR27/11e8TIBNLz8DD3zN+NTellP6kYCJEACJEACJEACJLA/ATry+zPhFRIggTQIwAn8SCJhqeH0B6cRnEE8SAA989+IRmfcxe3pPJg5VIkESIAESIAESIAE+iFAR74fOLxFAiSQmoDqiYcDvxQ98UNTh+BVvxCAM3/RggWrf+8XfaknCZAACZAACZAACZCAEHTkWQpIgAQyIqDmxCeT1go68Rlh83RgNMpchjnzP/K0klSOBEiABEiABEiABEhgNwE68rtR8IQESGAgAmp1evTgPszh9AOR8t995Om1mC7xFf9pTo1JgARIgARIgARIIHgE6MgHL89pMQlkRWDy5OqhUsbruLBdVvh8EQnO/K2lpTXn+kJZKkkCJEACJEACJEACASZARz7AmU/TSSBdAtXV1YU7dliL4ehxi7l0ofkynIV3gjUvGp1+mi/Vp9IkQAIkQAIkQAIkEBACdOQDktE0kwRyIfDaa+JPiH9qLmkwrl8IWBHTlIsqK6s/6BeNqScJkAAJkAAJkAAJBI0AHfmg5TjtJYEMCWCo9RfRE39BhtEY3NcErJJ4XMyvqpo52NdmUHkSIAESIAESIAESyFMC4Ty1i2aRAAnYQEBtM5dImLfYkJTXk3hDSvkCGixa8NkKZVultPAp2/AXwQJ/JfgssSxRgus4F0dbljwOw9ALvW5Y9vpZH4zF4r9D/M9knwZjkgAJkAAJkAAJkAAJOEGAjrwTVJkmCeQBgSlTZpW8/378fphSlAfm7DJBmlKK9XDIH8dnA5zxTUOGWC+sXl23PVMba2trjQUL1h4thDkGTv44OPUfQkPAR5HOiEzT8mp4cPp0NFr9eFNT3V1e1ZF6kQAJkAAJkAAJkEAQCdCRD2Ku02YSSIPA9u2xPyLY8WkE9XqQzehlXwwlHxPCeKK5edm7digMR95EOv/Z9YfV/MXNyrlftGh1eTIppqGh4OO4Ng3OfQifvj2g/23jx89Yu27dsud9awQVJwESIAESIAESIIE8IyDzzJ70zJm3xkovIEPlNYGLJwWz/KeRqWVl1ZfBgVOOvE8PqYbGL4ADP6+xcTl636WW33xV1ZxDOzvbL4BTfwl4Rn0KU4DfhuLi4klPPz2/3a82UG8SIAESIAESyJZAVdXcAzo7W9/LNn4u8fAObm5urvNtHSIX2xm3fwLske+fD++SQOAIlJfPPDGZjP/an4bL5w3DurGgIDy/vn7pTmUDXoDaTKmvX/gGhN+k/iorzyxPJJKXYwj+RRiyXqBNqSwEoxGitK2tTZWJy7KIzigkQAIkQAIkQAIkQAI2E+Cq9TYDZXIk4GcCcNhkMpn4A2zw1bx4+OrrDMM4p7l5+YlNTSv+0uPEeykv1q9/qBEt6p+NRAqwSJ5xG3Tr8JJ+A+mCsnFpefn0Dw0UjvdJgARIgARIgARIgAScJ0BH3nnGlEACviEQjc74lFq0zS8Kw4HfiL8Zzc0rqpqalquh9FqG0GfCC40M/9uwYflXBg0yjul26KWaa++HQ2J/+dumTq3lSC4/5BZ1JAESIAESIAESyGsCdOTzOntpHAmkT6CsbMZwOPE/Tz+GvpBw2HfCgb8mEjkyCid+uT5Nspe8du3yN5VDL6UxCamsyT4l92KiV76spWXN192TSEkkQAIkQAIkQAIkQAKpCNCRT0WF10gggASkNK+Ho3ag102HA/9gJBIeBwf+Z/X1t8e9ru9A+mEV/fpzzjnpZDj0X0QDhS0r6g8kM5f7lmX+sLz8zMNySYNxSYAESIAESIAESIAEciNARz43foxNAnlBoLS0ZoJpenshMzi57ZgH/3k48LPV8PS8AL/LCLWVHeb3/7GoKFKOS0953LZi00zc7HEdqR4JkAAJkAAJkAAJ5DUBOvJ5nb00jgQGJqD2PsfU8t9jWL1nnwfdc+GNSZgH/38DW+TfEGvXPrh51KiTPopGCzXFwbPz/bHq/rlo/Dndv6SpOQmQAAmQAAmQAAn4m4BnK+7+xkrtScA/BBYsWKP2OJ/gVY3h1N4j5YETmpqWbfCqjnbqtXJlbQKr238HjRdnenuovfUr1Qhkp+1MiwRIgARIgARIgARIID0CrISlx4mhSCAvCXQ7YtY1XjXOMMQNcGovamqat8OrOjqll1rEzzDCH4Yz/7pTMnJL1/rgwoWr5+SWBmOTAAmQAAmQAAmQAAlkQ4COfDbUGIcE8oTAwoXPnIve+BM8aI6F+fBXYE/473pQN9dUamxc+hwW9jtFTS1wTWgGgjDEPtD5kwEqBiUBEiABEiABEiABWwm4tx/wjxcdK+LmKZj1ORYWjMHfcZgCOlxYsgSfxfheYKtl/SR28PJ/9XNX1y0prJD6CwkzHBLJoohIDB4kkiWDRXzkMJEYOkSXYpSbpwTgwMtotAaOmLemYsNpjWMF909hPvy9eYo+I7PUwn6TJp39oZ0729U2e2qrOs8cKEOVZWXTa/y6BaBnQFIREiABEiABEiCBlARUfXXChFlHdHYmx2BNJ/iQEjvnmCW4XII6o/Ij8af8SRFG2Fact+I6PkWb+sS1rYYRekEIY9Po0YmX6urqOlMK8uFF5xz52sfDwmyphqOOoZfWNNGZPDI1H285Eal1dOOqJWRS/ZnCiMVFeGeHKNy2fbdgM1IgYgcUi45DRonYYQdiWTIOptgNhydZEcAWYjPxcCvLKrJzkSw68fvDXbNmUUtV1dwzYrG2J5Fn0f1DaL3yfUhXjQw8SIAESIAESIAESCBrAqjjyPHjZ0YTicQ0JHISRv6NQafT8bg+WCWK7+q/+ofD2vW9+7zrUte/Pde7wwuRTCZxJyk2b5ZmWVn1f/FlExz+Rtx/rLAwtAqdJju7ovrsn7Rd3+8/cLyQ4qtgez7S9uSe1Ae//D/bzXYzQStsiI5RI8TOYw8XCTj3PLIkcPEk+8t/lqroiFZaOn015Hqqh7d7OP3yX+vg4QeZVVVzDo3Fdq7Ci+cYL+kbCoWmNTYue9xLOlEXEiABEiABErCLABrTD+jsbH3PrvQySQdr5TRjvSCvNeJnYkK/YaPRWehlj51mmhLOuzUVgUf2G8H2mzKGnv7V6Eh6TDn2I0dOekotPGy7GAcStM+RuXYxevaSapjuuXDiPd1d7HdHvnc56BxxgNgx5igRHz6092Wep0MgwI5899Zh5sPpYHIrjFrYLuhz4tNhXVFx5vHJZOJfeNkclE54N8KgkvEoKhkfc0MWZZAACZAACZCA2wToyNtLvLR01sFSxi5Ar/jF6G2vtDf13FLDcPy3MTDgXiw4fFdT09J1uaXmbOzcHfnaFSNEou1nyIhL4cTnnp6z9nalnk+OfA+u9oNGiLay44RZGOm5xM+BCATaka/+O36vZwyEyK37cATvUavTuyXP73IqKqZPTCTkP5GHhV6xJRSS4xsb69Z7QZ+qqpmjYrHkmeCDxgXrSDR6HIoyNhKfW/GC3oJKgxqW9bCUoWXNzcve9YLOunSorq4ufO016zRUWrDdoXU89DhU8cI7Xc0tVKy2oJdiFb4vBqv/6NJTt9y5c+dGXnqp7bh43MIcza51ftQ8zSOgVzF4YW6mhbmaXXM0gax7biaugaF8H5//Ad8XMeLoxXBYvHjssYNfmD9/vhrn6Zvj5JPnjmhvbxtnmtZx6DU7XpUV2DQaBmBYoFrnSKrhgYNxvQPX1dxUzFG1MDdVvofPF3Efw1jFpqIiuWnt2uVv4jyQhypHL7yw81TTTM4EE7XQLH5vFn5vYifKyhZ84vcmnsJ83gcbGh4Ct2Af5eXVlaYpZuM3NR5cFKvR+AyhXClOb4BOM5aWWjJ79uSnsQuP6SQtOvK505069dNF27a9ifyUFyO1jyM/Q7mn6mwKKGfP4bc6LxwumLd+/RL1G/XUkZvjfe3CSzA54WY8xF0eApEbw3x05BURtVBe63FHiHYMueeRBoGAOvKYG38Y5grBkbE8MXIGD8mN3fvEB2+LuTRKaZ9ByspqvmJZ5m/7DOD6DfnrDRvqrnBdbC+B0Wi1mk/3I1yalk4FAWUPQ+ckRqYYP4CTWt8rqbw/7X4OJGph6Hn4U07YgAccjSaMnLm+oWH5/TjvmaQ4YDw/BlANHG+8EToZz0qUJTEN5k7Cp02L8ipH14KzJp9Euk+ecELJGjj2MS9xUuUDz5ePQM+PwJFSn+OgX251xt0Gyjfx23sMZehxVOgfC0ID0cSJNYe0t1s/AIILwTKtIZTKgUCZ+xkaue/J99/b7qKBk+7GRYn3m3U5WB3Z+15f52D1NornH4cOLfjFqlVLVEOS7Qcd+eyRTp06t3jr1rYvIIUrkaeHZJ+SvpgoY3Hl0BcUFNywbt2Sl/Rpsrfk7B7KtY8Xi8S2PyAz8EDy35GvjnxPTnSMGiZaK8cKs8C5tQx7ZPn6M6COPBb5uAovyBu9kHeonLSjt29SU9OyDV7Qx286IC/nIy/P8YLeqiI1cuRJh+mYV4Ye+CM7O+O3gEO2+9pjkUVxXyQy+Fv19QtVL0/eHqqS/Prr1nVwoK5A2RmUjaH43T4rROjrzc0PPZ1NfK/GUb1FLS1vYhFQeQnqN2qqSJEbuoKnmne7CD32fxs+fOKjOn5Dys7Kylmjk8k4tiQVn0TZOMkN25UM/Pb+i8a0+8JhCz1edf92S64bcqqqLiuIxTZ/H+XpW+Ca5fZDsgFl5PLm5uVPuqGzThmY9ncuWP0cf0dlowc4vYPydF1TU93vs4nfXxw68v3RSX2vomL2sGSy82t4nqBRxu1576l1yvUqyhhGU1lozA5d74W6a+aOfO3CE0TSXIJ58GNyhaErfr478oqr2r7uvapxWAwPI/54pCYQWEd++gZUKE5MDcXdq+jduxTz4u90V2r+SFMVC6xkvw4vyQ94w6rQmRs2LFvmpi7l5dM/hKG+C8Eg58VVUQHcgoFNsxsaVqx10wa3ZKlewY4Oa5EdThpYqd6Jr6K38Ha39HdKzq6RHJ9F+nPBZphTctJLV2KbJOuvGHH6azd6qjHUO7RpU9vZGDL/FeSn6nk30tPTmVCoJNejIeWucDhyV0PDYtXA4dujsrL6wETCWoD37YdzNUI5D0jnGxj19Jtc0/JifFUON27c8QuMAvmGHfrh+XRvcXHJ555+en67HempNOjIp0+yewj921fjuYL8TG8ESvqpeyYkOgDkYjRCXunGs7ovqzNz5K9dMBEJLcdw+lF9JeiH60Fw5FU+qKH278KZj6OHnkcKAgF05NV8s2TS8sTCHXjRPoj9x2enyBleyoBARcWMUxKJ5L8QJbPneQYy0g2KPL0fefrJdMPnGg5b0pyPisKf8bSL5JpWr/gdeDmfDwcVL+j8OcaPnzEuHjcfhqNq69wr5PnNyPNv+ZGUWvQTQ9u/ByYf9Z7+0oROi9Drc5MTIx+6h7ru+KyUJkZmiGM8aP92/A5vk7LwlqamRRg27a9j/PhZx8Vi8UfwbMqqZ7lva43bNmxYjkaX/Dl2rdOxGOVwup1Wofxg5JBxBpwsW9ZBoSOfXu6Uls6YgefKrXiueqSDIT29cwil6gw3HH64uFHH/vTpt7z+YNFpeCA95ncnPoeM8l1UiT0Thz/7nCh8Y6vvdKfCzhDAXEcMGdV/4KG3MxIp+Lp+TfyvQUPDsqfA8/95wRJUxGapyo4bunT3xNvuxCvV1XDqv8LJm+CGHW7ImDTp7JFw4h+y24lXuiPPv4ke7SvcsMMuGeXlNWd2b7/Z1bDhQSe+iyzqZ9YnLCvxFKbQPFpRUVNhh/1qqHdZ2fRvtLS0/U8I89fedOK77B+K3tmrLavjv6Wl1b9So0nssN+NNNQzMB6PPWS/E6+0N7+MZ9M1btjhlozNm8XtKIe2OvFKdzzv8AxP3j91ai3nmbqQmWqKG55Vi8BcvWuC4sQrskWw94ebN1sb0LlgezkeKOvSc+RVT7yVXIzh9GktiDOQUN53j4A0LXFA4yZRsPU994RSkicJdL/MrAu8oZz14/r6pahI8rCDQCQS/g7S2WZHWjmmURSP75ibYxoDRlcVBjWcHlU1O3vid8vFS3kQemoX+8l52K38Pifqd79zZ7taS8GxihUq4b/EaJ8z9hHtua9VVdXHwomtSybNpVBukucU7EMh5N00DNGuRyX5zqqqOWqF86wOxJ/d2blZLaB2M9IcnlUiLkdSv0X8zi/HQnGb4MB+XQ3BdlmFjMRh5XQjFmu9D4wdnH5q/QSNZ1j13v8H7LgS+etYBwPy4WPbtj1zk/9JedsCOLCXx2KJ5/F7ne1tTR3VDjt6mHV4x/ytrGyGa8/XgR15NSe+azg9nXhHs9/BxJUzP7z+eRF+35GFPB3UnEnbSaClZfXpeKlp33scQ3E3RiJH8sVqY+aiUQTbqklP9NLgRa62lXH0QIXhV5CT85z4/pRE+oe1t5tYdMnfR0vLms/BglOdtAKsQhgAdrsaIuuknGzTVvM1UdGs7ey01PogrveYZKv33vEsA5w/29m584XuHSvS3+534sSzjoATr6ZVoLesa4vBvZP2xTc1z9b89fPPtz1bVnbmyV5VeeHCZ7AnttNlzDIwpeiPaNAc7FUO6eiFhdCOxijBn6QTNpcwkPF1/P4n55IG46YmoBxWOK6L4cCqd7Kvy2NqCzO/it8/Fgw117tV5vp35NXq9F0L2/l7Tnzm2ZB/MdQw+2Fw5o14Iv+Mo0XpEqhON6CT4VDnv7K+/nYslMXDTgJNTcvvgDPfZGeaWaY1ZfLkalS6nTlUJR4VhrOdSX3fVOWFlZVnlu971S/fo9GLh4BVrTv6WkdhiOxX3ZGVvhQMoY9iJfoGVDSvQyw1bcLvB/atN38LZ36F2iJuIGNg/0UdHZ3NKAenDxTWH/etCkw3WIWe3F+qaQJe0lk1GMFp/LFLOh0ajyewkJh/D6xmDifecqXxD+Xf942yXstp/Aax3au5Ho7rWV7TTb8+1lFg8088p7/ptC79O/JqizlHhwc5bR7T700g1BETJes39r7E80ARsKbpNheO5voNLq9qrttmt+SDraX2+HZLXl9yUGEK7dhh5LxKc1/pC5H4Ud/37L5jGVhIsNbuVN1Lr+XLqCi7OLfY+q5yZtyzr39J6IW+DCFWo6Lp4DDn/nVw7q51hmkmm9EblnIqi5qnDfvnQ/482H+Ac3poSVmiR/pb2NbtycrKGpsXk8venq1b3/o8Yh+RfQqZxUSjwVVq0cLMYnkjdFnZzLF4V7g21Q+yPoLe4495w3r/a4F1K7CdovUk3i+e+f15jSqeuwVw5m8CqyVODrXv25H/wcJPIYMu9BoY6pMbgSLMlR/08mu5JcLYviNQWjrrYDxUTtStOJzNn+rWIZ/ln3325Plg/IJuG7FTkiONRhhKOgpbUzmSdl/M8LupnjJlli/38URFC3syu3qMePfdt7VXlpVzAwcXW7hZf4T1nmlYsDsnYN9wlM/7YeuPcb5714ruFdNbn8G1c+yW6aX0YN9JWDsAQ1g9M1/c5d+bNXTbtjafThVJqAao3WXWnXJlupw/7ljlphS1RgUaCG+Hf/hL5ai6Kdu/sqyZcOhXqSlOTtiQ2pGvXTFCmBbnsDpB3ANplry0WRidMQ9oQhXcImAYMUfnyKZnh3y+sXEZFijj4RQBLLSELavkDU6ln266TjnbsVhyJioQqd9b6SqXcTircPv2mO8qy3BuDoejU5WxuTlGwEJyWodZqr27sSL7SlQyz8/RFN9Eh63fR+X6ATVnurx8xqmxWEyNQhjrGwNyUBRlfDh65x9Er9fXckgm56iq3CGRU3JOKMMEkM9+XVxMx3NillqMMEPEDL6LgBpttXFj2wP4zamRJzwyImCNa2/vXKW2gc0oWhqBUxfoRNvPUFkamUZ8BvEhATVfvrj5JR9qTpWzJeCUY5WJPoZh3aiGf2cSh2EzJxCJHH4POGsedmOVqy3PMtd+oBjm6QOFcOa+1CQ3e2vwm1c94y73eCl99bGKRmceE4+LVToaMLLPKdtizunsTGAtgOTDSHGEban6IyGUc+tWOPM/0aUuhrlPc7+RUVnrv7UPTj557ggdv1HIPPjBB58t01VG/CxXTdVpaXnr72Do14YjL+A/Ap0R/7J7sc79HflrF6OQy0u9YDF1cI7AoLe3iYJ3tzsngCl7igAevrp75NsKCgrUfE0eDhNQCwmivWSew2IGSl5iga2pAwXK9D6cU0eGpg2sh6VJ7sCa9R1Cj84oe4fp6PVSi9qZZnwVHJvj+2aS73es49FDG853K/u2z/oeysEdOraow7PpyL71cu4O8vsgr+4W0ZfVra2th/d1z+nrWPTSh89yp6n0n76amhmLtT2JeuRH+g/Ju2kQQCNr8hGsaG/bKL/9HXmR/C5ehBpa8dMwn0FsJTBk06u2psfEvElg17yc43Rqhy3nHsAWaTt16hAk2ZZVcJduezEnzPbGI5Sj0XrskprkZm+tLlbKkXzggXWObg24L5Xy8hpskysfxfVD973H74EjcCmG//7ebatR7rWVvTfeKNQmOxvOhmFoe55iGoY22dmw0h2newea+Ao48VHduuSLfLAcjL+F5eXTP2SHTXs78t9/AC3Zri+OY4cdTCMLAoXb3sfe8m1ZxGQUPxHo6Ihpb0XFUG/dPcR+yrKcdW1uXroRzJ/NOaGcEpC2lzu8/A7KSaUsI6teryyjaouGCqtGnWMHu2V4ZeWs0cmk9TDqLqPckkk53iaA58Tn1QKA7mppuVbm97UL2/Fp/K3vq006301trNDg5zNW6fB0Jowa6bFjh/Ugnq0VzkgIbqp4Rg0yTbk0Gp1RmiuFvR15Ib+G7eb2uZarCMb3MoHBXMHey9lji25wQj5oS0LZJ7J5zpzJK7OPzpjZEEC+a+2Vh/wxdg9xReNEKBsWucZB77YWubnorVPnUMidfKqomD0skYivQEWTWyDlUljyMC6eP2oBwK+6ZRrkaXtGYH6+NtnZ8LXURqmaDowU8xUrTZiEmh61ebO4B/Kn6tIh3+XCmR9mWcm/57qF5p4fU+3jmFdlnZfv4Gjf3gSKtm4T2JB174v8lm8EtO6hDOdrMV4KLGQul6pQKKR5hwAr8p//tB3tstkUFxACqqKZTHYuQGWIi1cFJM8zNRPO9a9LS2fMyDQewztLAL9ZTt91FnHOqS9cuPp38Ak/kXNCTKBfAnhGjU4kzL+rrXX7DdjPzT2OvNlSjXCuzmvrRy/ecomATJgi8vo7LkmjGB0E0DOn1ZGHzY/psDvoMhsbH3odjSgv6OQQi1m6y55O8ynbQQILF675ARyCaQ6KYNK+J6C2qkz+xan9m32PR5MBeC9x9xpN7NMRG41O/zKmZn0xnbAMkzsBOPNjYrHEfapxOpvU9kSy5JxsEmAc/xMoenOr/42gBSkJqAcDKrsaF7qT6Ik3nkipHC86TgCNOLobUejIO57LwRMQjVZPQ0Xz2uBZTouzIDCyvT1279SptQFezT8LaowSSALl5dWVmLt9cyCN12g06umnPfDAM1m90/Y48oIt2xrzUKvoCBe808rfSeELF9aruaNFTsroL200vDc0Ny97t78wvOccAbyQH3cu9bRSpiOfFiYGSpeA2goJs8Ewd1P1tvIggXQIWFNaWlb/JJ2QDEMCQSUwZcqsEiwcej+erYVBZaDXbvmD8vIZGe/20/0i/PGiY7HI3ZF6DaB0XQSMWFyEt+/QJZ5yHSWQ1OpIYQidbkfSUbpeT7ygwNLKXw0Z8zoj6ucvAlLGbkVF8xB/aU1tdRPAs+jbpaU1E3TrQfkk4FUC778fvwO6aRzB6VUybullYd2X5D3R6NkZ7azQ7cjHrCluqUk53iRQ0PKeNxWjVrkS0OpIYfhrQ64GMH72BNavr3sHw+u3ZJ9CzjG1lr+ctWcCniIAR+x0OGTnekopKuMTApaBEWK/z3Yeqk+MpJokkBWBaLTmUjSQfjKryIxkJ4FDTbNjXiYJ7hqaxgWJMoGWj2FDrTvz0azA26R3frwQ4bDYFPhM0AwAjo/OPDgUq7EO1oyA4vOAALYyjMAR+20emEITNBHA+3ACVuP+gibxFEsCniSgeoDx2/iFJ5ULpFLWGdg688J0Te+ZY8Zek3SJ5Wm48M72PLUs6GbJYToJFBZKnU6kTtM9I9sw9OYB5ulrLYOeyQgqkhOBTZvavo3K5gk5JcLIgSeAhs2fVlZWc4emwJcEAughgB7gX+DZyvd0DxAPfOI59cuqqrkHpKNK9yqelnV8OoEZJn8JhDpi+WtcoC0zS/SZL99cvbpuuz75lLyLgNbGlGRSaCyDLAP5QEBVaGKx1m/ngy20QS8BOCzDEwl5JbT4jl5NgisdecB95D2S/dHojA+bZvISj6iTlhqYLviKELJejTYMheQmlCdstRtqC4WsVnQcJCwrWYzPEssyR2KdJtX4OwZhSxFvPMKG0hKiPZB1SCzW9mOo8fWBVOl25KUYhsXueASYgJFIBtj6fDZdFmPekxYD8dDUuoe5FqM9KBQvLq35YJoJOvIeLBd+Uikeb/sqKmJp9U74yS7qqocAytKXyspm/Iw7qujhr/aRx6FHOKXuJqC2ZMRuDrftvuDRE9Ql41CtDlsZL8Z0zcfWr1/+ajaqTp5cPXTHjtCHpTSnI/4nUQa9PjLnyxUVNX9qaFje71pTu3rkJSpa/FFlUzDyJY5EtxmP/COAB5VOJ6ol/4j6zyIpjRa0TGtTHC3mOsugNrsp2B4C0ejFQ0xz6xX2pMZUSEARsErgS16Ok1r1jYe7BFAvYY+8u8hTStu2bTUaSK3SlDc9cVG+CCf+1kgkfF99/dKtuaq0a4ToMqSzDI0Y34D91bD/C2hTmpFr2k7Eh26hREKodWE+1F/63XPkJYc+9gcpCPckNublkY8E9DlReDi25iNRv9mkhpvp1BmNCBgVwoMEsiNgWS1YnMwalV1sxiKB1ARQSf662jc79V1edZKA6pF3Mn2mPTCBqVM/XYRdha4aOKT7IVA+NhiGOP+ccyaPbW6u+60dTvy+VqxcWZtoaqpb2ty84sxw2KhEg8F8hPFgubSmYPTQx/bVv/f3bkfesrp75nvf4XmwCHiw+AYrA5yxFg8nbRUVvKu1OpDOEPVfquFwRGs+oPNFWxn0X25R430JoCHoS/te43cSyJUAHPnh27fHz8s1HcYnAT8S2Lbtzc9C70O9pDvqq+9j7vvXx44trmhqWnEftop0pYdRDV2HQ39uOCwx7F42eYmJ0gVz/r/Xn049q9b3F4b3SIAEfEtA59B6Q6sD6dsss1nxeFzqzgc68jbnaVCSq6iYcQpsPc4v9qISiH1cZadf9LVfT4nFTaUrlW87dMeosUvsSIdpZEYAjSgcWp8ZMltDV1VdVoDF4DzVGw8nfkVRkTF2w4a638yfP1/LXN+GhrpVaEQYj7n43/XYc2zqrndhynJARz4lFl4kgXwhoBa703bs0CaZgncTGDasom33Fw0nqLTpLIMaLKZIuwgkk55eTfkNVD7/GAoZM6UsGFdYWDIMw0CHoCJaNHjwoFFYmyKKCuEn4dzfg7/37GLinXRkg2EYPzSM0EcMo+ADRxwhi2D7AePGFUdCofDhWJRqkupdg+2PgVPCO3r31qRr2OoHel/hufMEUCY4BtR5zH1KiMVeuwj9vEf1GcDlG3g+3Dx2bMmZa9cuf9Nl0fuJU40IGzYsvwFFdCaeX57ZdSmZNL+/n7K7LnBIfV9keJ0E8oNADGYM0mOKFdEjl1J7E2htrdedD6oM8iCBjAhUV1cXvvaaONd70xblv1Dx/H5T0/In+3JI1qxZ1AJj1V8z/u5XPWCJxOszURn7CewZlxEIDwWGvaqn7M5QqPCGhobF/+2tWtOuAam7etNexz31txZ/v8Ecz+Gw+4tYLfo76AX30u4D6Bk24dSIH+GPBwnkPQE1GiIarbnaG4bKGJ4pX2xuXv7/mtWT0kMHhtovHz9+xkmxWHIJ1NI+Kgz5Vl1eXl3Z2Fi3fl9MAe2R56iefQtC8L5LtZ1FAA6d89S1jgYIQN6mZ2Jnp9456nhRax0RkB4lhvIagS1b5OmovMAB9MohX0Yv+2z0On8YPe9PoFyn3atYX397vLFx2UL0Vpch3mWwSDn5vjqg93IhwqWw/Qv7OvEDGaK2eVO9XIMGDToWi1jdivBpsxso7Vzvo2Hhk7mmwfgk4BcClZUzP4rnqtpbXeuBxtC3scjcqcqJ16pIP8LXrVv2fElJyWQ8+x7tJ5hrt5JJeWkqYYF05C2DjnyqwhCoa1IExLnQ6URxSLUXflOFhXGtQ9u56KEXSoH/dMBGKtO8ojUqnY/AiZ+ISueDueikeqvhCN+BoegTUTnckEtaLsa1oOt1GIFwZnPz0o25yFUjFbCI1eVIbw7S8cg72PrgxIk1h+RiF+OSgF8IeGS6UkskIk9paFj2lNe5Pf30/G0jR06ejmcW9rHXfZjnzZ07d78RlgF15ANptu4S6C35AdkaDS2v2hY6Q09HibcyPZjamGZIqyOPeWYeqbAHM//9ajVWq/eIIy9/j/mb01Wvsl0sm5qWvjJ0aMEpqByil9vLh+zEPPi5aHz4EXS1rRcd6S1Gw4iy/zUvWN/ZKU71gh7UgQScJHDyyXMHoV52jpMyBkobjaLxcDh8Tn193csDhfXKfbVVXSRSfD50z6kh0wZ7Rjz/fOt+e94H0qM1Q+yRt6FA+TwJy7ZKmbdB6HOi8NAb6m02wdAukTC1zkk1DH2NScHI4fyzsqpq5ihYhcXidB9yAXrhv7Jr3retyqxataS1uLj4HDiz9bYmbGNi+O1+AT3xC2xMcndS4NocDofOxHtC+6KopumVRqPdeHhCArYT2LFjx2zMatHcwWJ8raHhoZW2G+dwgvX1898vKIhgYVOp1XeA/Iv3NTWQjnyyILwvB34PHAH5UjBMtjT2hlofCAZjb1uJBaaO0amhlCGNZVCn5ZSdLYF4PPlRxNXc4i4bCgvDl6DiZFtP9L48MGyzHau+n4Xrb+x7T/93+UsMg/+Lk3qsX/9QI+xXW8A5xjg9/eWp6YVjKBLwLwGMctK63SIa7X6HBrw/+pXgunVLXsLrYC7sSOiyASMqZmBkxYje8gPpyCcKCnoz4HkQCRhiUxDMRiVU49B6+QHM5wkFgbOXbcR+sVoXtkkk2CPv5fLhRd1Q4azQqRcqavFQSH6yvn7pTqf1aGx86HU8pz/ntJzM0pcN55wz+TuZxckutFoEELxvzy62XbGsY6dMmaW5p9IuW5gOCexPoKJi9jC0jZ6+/x3Xrjw+cuRJV7gmzSFBaNx81LKMbzmUfBrJWpG2th2q8Xf3EUhHPklHfncBCPCJ7rkubqHf7pag/eVYkY0bdx61/3VecZMAKslaHflIxNBYBt0kTVk2EhhjY1oZJ4WK2h2NjctfyDhilhEwZ7wOzvxjWUa3PVooJL5TW1tr2p5wHwkWFRm1eE5pHWK/fXtS63OyDzS8TAK2EEgmY2q1ei0dK3i2YeRRwefUXHNbjNGcCHbguBXPq3/qU8M6rbfsQDry8cL9Fv3rzYTnQSAQkk8FwUy0wL6i004MQ2LlSGcGdMvWmQdt6NXcqh8BNfAXAanTkW8zjMIfus0L2zurHnDNQ8zxxsBWS9ir+GE37V+7dvmbkHyTmzL3l2XpLHP7q8MrJGAjATjxGqePyOvVAp82mqM9KUwZ/DKceU0NE3vnZSAd+USkQJhhzpPX/kvQpoD8nzhvgm9WzMwFExYrejGX+LnGNU3rxFzTYPzsCVRVXabmER2ffQq5xYRToLX85aY9Y+sggAqnhFydZXZBU9Oit922Hb08z0LmWrfl7isPq9Tftu81N75HIoP+ADkaGzLoyLuRz5ShhwCczml6JIvNhx9u/UKTbMfENjUt24DEtcz3xzz50dHorN0Nj4F05FXOxgYVOpbBTNjjBKTlmSGMLpBybXhoH7Z8tI/rvOwCgWTy9YlwjAa5ICqlCLxwdJe/lHrxoncJlJfXHKa3zFo57RWfC1nDkNpk79K7w7JG/D0XG7KNW1+/8A00/K3JNr4N8Y6zIQ0mQQKeI1BZWX0gnqmlOhTDb/rndXV1nTpkOy2zqKjwRjSQxJ2Wkzr9+O6GmcA68h1DtNVtU+cJr7pHwBAL3ROmV9Lw4cVae0TxkPsw5loG9jmjN/eFwLZKU3XqgKkVWsufTtspO1sCBhZl0nZ0FBYWaHFklcWYm75Ym+VdguUjTU3ztM1Vx2AMnQ0ZOsud3mx3WfquUTcuSw2uuHi8a1cGNdLJ1QNO/FvYYvNOV4W6KGzt2gc3Yz2Vu1wUuVsUOknoyMcGDxJWiP7F7lIRmBP5jjh0Yl1QzF25cr7a+usNXfbihT1s0aLV5brkB10uHvZTdTLAMF32yOvMAB/KhjOnbfVwVDyfc2Ol+r6yZf36un9DB8dXyu9LPhpetQ7tNwxTY4+87v21+8qV/LuOMq5xCkX+8RzIIuCuGiiME/dR/7hTbbHpRNpeSROztH+rR5c9eRpYT9bCG6tjyBA9/ClVHwFp3StOlZoWqNBjNl6aWp0pzJOfqsfyYEvdNT9+ik4KHFqvk74/ZRtGUpsjj/K6RTc1NH5q0wHvCm2yFfdwOKRNvs4GJN1ljvLznYCe9R+kDM/Ld7INDcsb8NxsdttOPK+Omjr100VKbmAdeWX8zmHa6sp3P+8AADyASURBVAtKPA/XCUhTyAJNrWeuG9tboFZHHpXjmb2V4bk7BBKJ16fBKRjsjrTUUoYMGcKh9anR8GofBHQ6VOi50uZI9uDQ6UxblqnVftMs0DZ6DPxZIewphPzMNwK7F0ZzzzC5trl5aSC2ecYzW0ODhWVs2/ZO17oegXbkEwVh0TlEaz3Xvd8UJSkC94sLKwPnWGDwyb/1Zr/8aDRafbheHYInHSMhLtJpNV5ub2FY3TadOlC2/wjgeaXtpYxGhBbdxND4pm27RsMIa5OtuDc0LH4Pz42knjzQ2+ipx2Y9UlHGXZ+vrcdS/VKnTq1VW3Qd674m1jL3ZeqRGArpsrV7pEWgHXmV5TtGHKAn5ynVXQJqTpaU17sr1BvSsBjHP/VqYhnolb9Arw7Bkl5VNXMwetdm67XaelKvfEongcwI4DVhZhbDidD65g9LmfDA3GVdeYAmJB6uEEBjjQfKmSumahfy3nvPHoP6l9qG1tXDMEKB2R1KrW0ihHzTVcBdwujId2GIY0/59qGcK+9+AXRbovV/4qIJrs9jcdvKVPLGjh2MOTzi/VT3XLx2oYuyAi8qFksqJ75YJwiUuZU65VO2Pwmwt86f+UatSYAEvEcADfquD6tHQ037mDGDV3uPhqMarXQ09RSJm6boytvA98grNm0jhwnLIIoU5SRfLrWIyJCr88WYTO2YP39+EiPZtPbKo3IeraioqchUd4bPjgBe3pdkF9O+WFIWPGFfakyJBEiABEiABEggEwLojT8kk/D2hLWeR70zZk9a/kgFg0waNWjalbf0XkHeNEKiFc48jzwlYMhvinNPDPpc3ZW6czeZtK7UrUMQ5JeWTo/Czo/rtBUt8u80Ni59TqcOlO1PAhx26898o9YkQAJeJGDpGJm3yYsknNVJur6wHxoPuhbopCO/K2fbhxaLjhIOsXe2oGtJ/R5x4cS7tEj2kFApjZUeUOe8aHTmMR7QI69VwJB2L4w+YW98Xpcy54zj0Hrn2DJlEiCBYBFAj7zruzFAZuAceewnr2F3KNnVSENHvtdvunXUcJGMqAUeeeQFASk3icIhX8wLW3I0wgvz5FFBDwmRuCpHUxi9HwJVVdVYnVae208Ql27JlS4Jopg8I8Ae+TzLUJpDAiSgjQDqXa478oYh39ZmsCbBBQVFb7kvmj3y+zE3MU/+vYMP5Hz5/cj48IKUW0W4YBaG1Lf5UHvbVVbz5JHov2xPOMMEsTjHZyZOrNEwZytDRX0aPBYTV3U3mOg1ACvWrtSrAaX7lQB75P2ac9SbBEjAawTgVLvuyGPr21avcXBan5EjO1z3NXpGW7BHfp/cTWAV+3dHHwRnnjuR7IPGP1+lxA/KqhHnVWgY6uJdTBhyvVy/dlZhe7v4iX498k+DysrqD6Lcf0a/ZfLVhoYl2I6FBwmQAAmQAAmQgC4CPc6em/IxlTNwjnxdXV0n6thxNzlj9CXnyPcFPF4YEe8fonrm6cz3xciz17uc+NBscdGktZ7VUZNiBQUF97v/oEllrPnZaLT6pFR3eC17AvG49Vu8tF3fL3ZfjQ3D+iuHR+9Lhd/TJcCyky4phiMBEiABEgg6AfbI91ECOgcVoWf+YA6z74OPJy+r4fTCmiYuGv+oJ/XTrFR9/dKt2Ibu75rVUOIlhs/+rra2ls8fmzIjGp1+HpI61abkckomFJJ355QAI5MACZAACZAACeRMAJ03rveOY/tb14fz5wwqxwSqq6sL3e9I6Z7CwIp0P5mneua3HXYwF8Drh5FnbqmF7cIFU9gT33+OhELCE04WHnjjFy5c/YX+teXddAhMmTKrBDxvSies02HQm7p+/fq6vBtWD74cnuV04dmVPufIuwSaYkhAEwH+xt0Dr2O+uo55+e4RTS3p7bfDrjde9DTS0JFPnSe7r6o589sOO4Rb0+0m4smTe0Rk8ATOiR84bwYPLl6CDnHXW2hTaYaX+Q1lZTM+kOoer6VP4P33E7fA0RydfgznQkKPe5xLvSvlDofT7yv5of6rfMphfRnj9HXTDLc7LYPpk4CXCGBPZ41lPqntt55NHoDVAdnEsyMOGpt1vUPsUD/jNGCv6/U9NB4clLGiPo9gmgkNNnfnLR35NAqPWs3+/YNGiu0HjuBQ+zR4uRikRRjyU+LiSRdxdfr0qD/99Px2tOItTC+0s6Hg9OFlbv5t7ty5EWcl5W/qZWU1F4Dh57xhoTSxDsO9TuqCMuN6paTbHisyYcKskU7aZnfaOht3pExkvYIv58jbXRKYnjsE1CK7eg44xp5oyE3Xekzx06YvWGl6h6RLx95wPb229qbaf2qQOab/EPl3F2sUuW4zOhe6yjId+QzKU/vQYrH1qENF+9AhGcRiUNsJ4EmMga53YI/4E8SFE++yPf28T9DwxPB6hRkPogkbN7bdmPfIHTCwouLM48HvDw4knVWSeHk/vn79ki1ZRU4zks5KWGdnXFvlM008ewXTWbkvKCgOVGV5L/D8EkgCOp9NOh3jbDIb7wptz9LgraiupeHCdac2m3JoZxxNjRd05LPJRNMIoWd+pNh2xKGic8jgbJJgnKwJSBPDwu/DXznmwl+GXvhtWScV4Iif+MTEx9Dr9ZpXEMAZvSIanTHLK/r4QQ+1sEoikbwfTSGuz8vqiw9eZC40qunr9TIMQ1vlsy/mfV3ftW6CthbnmTNPzNqRx/OA6xH0lbG87lkCpqlvyy2MvjnUs2BSKIbfuLZnqY454ykQuHYJDRdvuSZstyA5LmgjLfHaKt9tvmsnsitv2SOfJfA45s6/d8go0QKHvn1oibBCRJklyjSiyXfQA3+rMMJjxcUTzxcXTWhOIxKD9EEAq8WrBpFb+rit5bJpmvPKy6srtQj3mVC12v9rr1lwmq0Kr6iOhqHXx4wpRiOb04eW3oUuo1D5PM5p6+xKv7XVOt6utDJNB2VhZ/czJtOYDE8C/iWgs0cesrX93rPJMTwjND5LDW1TILJhlWscOPKbck0j0/h4Vw7atGnn5Ezj+Tz8VLf1x6zvrryl95kjebUY3vYDh4t3jj6sy7HvKBkizHA4x1QZHY7m/+C8/1mExCxx+ITR6IG/XFxY+SLJ2ENg5MghtyMlD41osIaapqjj4ncD5++CBat/jR6YcwcO6WYI66b58+fHnJaIVm9sMannQOXkTD2SM5dqWQltuoJTS+YaMwYJ+JsAnFNt5R7PxY9Mnlw91A8EKypqKvCMOFyXrqGQpe0dosPmYcMmvILRcnG3ZZtmcprbMnXJq6ys/iA6Vg5xXz5268JBR94m8mrSthpqrxbFe+eo0V099dtxvmP4UNFZPEgkCgu6HHwLTSgIykOKhJDy3S6HXYhGfC7AwnXX4+8SUWAch573o+C8f0ZcMGmpOFUmCMxeAitXzm/DUOHf2Jtqbqnh5X4w9h99uLR01sG5pZS/sbG43ffB6ases7BFygNVw5DjByokGhvz5Kl+qSwjI2Y7nhl9CIBD80Ift3iZBPKWAJxpjeXeiuzYIaf7AW4iYZ6lU0/THKnxHeK+5StX1qr688vuS5Yz3JepR2IyqcvWbkeeXccO5bvqqVd/vjounsQmBl9lWG7KFhUV/qa9vf1K9O5qm0u7vwXWsVLG604+ee7HsMK+h0YM7K+p21ei0eovYQrCj92WO5A8OG63NjXN2zFQOJvuuz5McI/eVqSjQ1bj+9/2XPPeWVXVzCOxMJ+2aSpwaDTmkffygxoFg8DQoaEX3n8/qc1YKU3VeId1U7x94H1xFhqjtSgJ2a+5+K7SYmMfQtUzeWwf9xy6bE0sK5s5trl56UaHBHgmWZTni91XRpojRhz4kpLLHnn36VMiCXiCwJo1izAU0HClJzUTg/FQrGxtbfvXxIlnHZFJvHwOq3risUjPbR60EfMN3RzZYWitFCSTlsemNOxfIjo7E3P3v+rqFTryruKmMC8QWLVqSStGDDm6a8cAdtZEoxd7qFF+f2137bSirZERGgX02aSncRVTvDQ4uPuXOyev7JoqUuakjFRpY12MV1eu/HOHukdHPhUhXiOBgBDA8PqbMK0h5j1zrXEdHbGnuuceeU87tzRSC9uVlU3/LaYceK4nXjEwDPnH5uZlmCLjzqF6vdyR1KeUs6PRmeP7vKv5xtSpc4vxgr9KpxqhkJ5Ko06bKZsEFAF0NGtzFCH7ANN850ov5wR2WvmRTv2COloIdtfr4I6Grc9hdOUgHbLdkplICE1THffkKR15t3KbckjAgwQaGx96HQ/bv3hQNbXH/OHxuPXPiorqKV7Uz2mdpk79dNGCBc/chwraV5yWlWX6HQUFg9AQ5N7R3euldetEaVnxG92zODNJLS1t30Z5OSizWPaGjkTC/7Y3RaZGAv4ggHep7rJ/ZTR6ttbff185hYVsq9DU8cm+7rtxHY2cz7shx2syCgqsx6GT6/MZUIc7GKMrL/UaD7v0UaNGMaXlErvSyyQdPGse6wlPR76HBD9JIKAEIpFB16FXfrtHzR+B4cyPY2j5N/FSCMwaDuXlNSds3frmM3DKdA+T7rNYYL7hL+rrF77RZwDHblj/dCzpNBJGnnwMWyWekUZQV4N0LxJpfctVofsJk6+uXfvg5v0u8wIJBIAARihpfTYBcbFpduJ97sXD/Dm00voORx3iSS+ScVqn9evr3sH7eoPTclKnb327urq6MPU9f1/t6Oj8DuoDmhZDK6Aj7+/iQ+1JwD4CyhnDZgoeffl3DVcswNDym+DML5k06eyR9lnuzZRKS6dflEyaaihcuTc1RG1Miv8WFxffoEM/7Iu7+wWmQ76SmUyKX6lh7Lrkp5YbV9sSap0j27uXILWOvEoC+UvAsooe120degg/X15+5iTdevSWj3f3BXCip/W+5v653NrcXNfsvlxvSMS7Qdd784jXXhNXeYOCfVpEozNKkdoX7Esx/ZTwnt3S1LRk9zQe9sinz44hSSBvCYwYMfm3aLH1+EvOOrO9vaMBC+ZMzceMUFublZVV/wm2zcOfx5zEvYlLGbocuwq0733VnW8YmKGrQtLLQGtcS0vrPV4ZJVJaWnON7mGrCg54eCBvemUTT0nARQJNTYve1tfz2W2o6iFMJhOL4cwf5qLpfYraNaT+//oM4NINOD8rkTeWS+I8JwbrIel8Nl+DtWWO8RyUHBSyrORt+K1p2vlN7tVgSEc+h4xkVBLIFwLde41KTYt2pE8RjsLhiURCDbWfN3FizSHpx/R2SDjwF+7YITbBvs94W9Ou3vhlTU3LlujSE4vr/QdavKpLfo9cvMRnYYj9T3u+6/pEz8AsuNA/0SW/t9xQKLxXBaP3PZ6TQBAIwFfU6TD1ID7UNJOLdS80VlU151AhzAfxXtO+4FnQRwsZRsGTaMjQsj+iyn/TjP9p6tRaTY5vz8/Cnk80nH8d7/8P25NaNqnIR3vHoiPfmwbPSSDABJqbl+NBb9ztBwQYan9Re7u1KRqtudzPLwc1PAtO/BN40YG75YeGiY5IRF6uu4ygUrbXi0yXPqYpriktrf6sLvkVFdMnmqapyo72dznyZKNaPFMXC8olAW8QCHni2YR3yoS2tra7qqou0zKHt6pq7gGdnTsXQw9PjAyAE+uJfNFVRhsaFr+H98Q/dMmH3KktLc/8SqN8W0RHo9NPw/QVVxf53VtxGSsuHvJg72vaX/69leE5CZCAXgJFReLb6O306sJ3+8CxhsKJ+dXWraub1LxyPzn0ajE7OPB3YnjWelR0PrKPYZ79isrQz+vr617WrSCG19+nW4c98q078XK/Hvno6kJOGA3wyWRSPoHKWckeXfSdoYfCQ3mijwMlB5vAYYeZf8dzEk6T/gPPpHNisc2PVFXNHOWmNur9Fou1roZMT8zVR36sb2xcrnvrUjezIKUsdNTclfKGSxfxjvgKerO/6JI428WMHz/rOLzm58MObSML0GC+DNMat/U2jo58bxo8J4GAE1i7dvmbeFB8z18YrHHQdx5ae1+IRqu/pLZt86r+cL4qsS/8/ViJ/3lUsj6r84WQOSO5HVuLeWLrtXPOmfQoyumWzG1wJobqmUfZW+zGAniqwQCNQD9CGcLWhPqHrPYQLSyUvhjN06MvP0nACQJ1dXWdSPd+J9LOJk08Iz4Si8XXYjpaWTbxM40DR+1007RW4902JtO4ToXHu0KrA+uUXZmmO2TIkMXoqGnNNJ6d4dGbfasf1zlSI0zi8dhS/J6G28kj07QgX62htNdBR34vHPxCAiTQ1LT8d3jYP+Q3Eqg4HIMKxG0tLW/9F47Ojeilj3rBhilTZpXAybsEOj0K52sd9MSWcvqHQmfOxhra2alWRne35zmVnrW1tSY43pPqnq5r0GfW1q1ta5zcmm78+BnjUI7qkAfX6rIztVy5ygsjNVLrxqsk4C6BUMhbjiOeTUdjOtpTeA9dMXfu3IgTNJSjg8aCG7BGgHo+DXNCRjZpwolPmGbBvdnEzbc4aoFa8HhAp10oiwVY5+iBqqrqY3XqkYlsNdozFmu7F7qPzSSeA2G3jRtXsmzfdOnI70uE30kg4AQwDM0aPLjo0/h8zY8oUIk4GH9qu5NGOD1N+LuqomL20W7aovZNxfDCMzF/+t7t2+NvoYHhL9Bpmps6OCTrUvC8Hba4Oow8lS2GEfJgL4s1Do01f8eoi3+o0Rep9M7mWmXlrNFomLojHjfVzhIfzyYNJ+Owx8tJukzbbwQaGupWoTFc+xSkfbhhj3nrlo0bWzft2g7Olme4ahhQDQSdna0vo7HgarwbQvvI1fxVPrxhw5K3NCvhGfGhkCfemyNjMeupiooZp3gGTB+KYMHIES0tq1egXFf3EcTFy8Z98+fPj+0rUNs4/30V4XcSIAHvEFizZlFLefn0801TrvTeizl9TtBdDSe8MZHouBEOKFY7FysNQ66MRApWrl374Ob0U+o/pBrOj5EAkyFvKkJO3bzZOgm97l1D/NGKm2+HcubVVmOXqUYfXcZh5fwN0ONZ6DFBlw59yUWefwwOfT2c70WhkLwfa0/UrV5dl9HaE2qRqs7O16aiHJ2dSMQ/BVmDYWtfIrVdRxnYGQoVemYosTYQFEwCvQigcQuNt+JHvS554hQ6HY2V5O+BM/9tLBb7Z8OIPIiF0P6bqXJqoVY8j2ajYeBz3WlmmoI74ZEP/88dSf6Qsn790ieQ7y8g707QqTHKzEGJhKl2IPoiFlr2ZB6pEXCtra1qh57jdLLqkR0Oizt6znt/0pHvTYPnJEACuwk0Nq74F1raf4AH7k93X/TxCV5cH4D6H4CD9dn29k4BJxCt9BZeaMYL8EdfxP0XwmGJfYBDbYaRbIvHizCXrHiHYbQWFBRYJdibFz0ayeJkMnQAKkLHgMsJiHcCOqeP37r1LQwTsxwZsuhR5J5w5lFJuxH5MN+jjFSP1xyUtzk7dsgYnPrH4fQ+hP18X0TP2JZBgwq3qAYzpfvkydVD29sLDsXuQKNx7yiUrzNisf/V4BbKGkqW9/x3pdauQ/6xe0Xknu/8JAESKC4u/h2cADUyrNibNKwKPGt+ZZodv8KzqRHPJqyELdeFQuYWywpvGT58wltqW1o1uuzNN+UhiYQxGvObR6PXHb2ocjbehep96vFDvjhmTPGipiaPq+mieqrxXU2BwFvFA86zFUG9608YwVY6dmzJVehtTrqIol9R0KkmFjPVlIyh/QZ06SbybXlDw/KGVOLoyKeiwmskQAJdBLDS6w1ovZ2Kh+3p+YYENh0Mm/BnfrjHUUoklMeU2GVqOz7bBRYyE4meS1139rxruuN52svaZYsjH9qd+TlzJi9csOCZjcgH3XPXBgDc1cjzcZS5jyeT3eVn5852gakXMdSr4jt2WEOE2G/E3ABpeuG27AyHw7/0gibUgQS8RECtLA0H+ffQCTvBeP4ox7OpHM7drnddQmA3GBPOTCtGl6ExUb3jzF4Nir555/3MS86hV0pBJHL4PZ2dm2uRr0d5QSe8v7+JkR0fnDix5jNqwWWdOmGqSOj553dchd/DT8DH0KlLb9mhkNFnh5pnlOytMM9JgAS8QUC13kpZdBFa4LU+XL1Bg1qkIKB1zrxa9A5lFL0Lfj1Uj4SAE+/PA4+HP69fv2SLP7Wn1iTgLIFBg4ybIaHDWSlOpW4ZeDZ1jQhySoKz6cr/FRYeMc9ZGf5Mvb7+9rhhWD/3kvYoa9M7OsyNaNz+mnKmdehWUVE9ZePGtnVotLreS048WKxsaFj2VF9M6Mj3RYbXSYAEugg0NS16G478THxpIxISSEFAqzM/YsTkv2KI/Ssp9OIlBwmAeULKAk9sR+igmUyaBLImsGs71zuzToARsyaABt6fK4c16wTyPOKIEYf8CSa+4SUzuxuOrFvhTDdEo9PPQ0O9Kz5qRUVNBUaf3I8Rmf9ET7wndjvqnS+Y7tlnb7wK5wqk3grxnARIwH8ENmxY/iweF3NQeeeL0X/Z54bG2px5NY8TFYAfuGEkZewhgLUh7mhqWsoGlD1IeEYC+xEIhyPo3WMj+H5gHLwAJ/4/I0cexAaUfhivXPnnDqzX4smGWDjTpZjSeO8DD6zeiLWMvlpVNXNUP6ZkdUttKYc1oGbCgX8Ii+6tRx0C2wILW3ZyyEqhPiPJVc3Nyx7p8zZu0JHvjw7vkQAJ7CYAZ/4fUhqfwgVr90WekMAeAtqc+Q0bVtyNytsTe1ThmZMEwPodPAu+56QMpk0C+UBATT3Bb+W6fLDFPzZYX1OOqn/01aPpiBGTfodn+QY90tORah0Pp/43sVh8CxzuxVik7zOVlTVHpRMzVZgpU2aVlJbOmIHGgd9gS7ktWOxxCRz4GanCeuEa8iaJBZi/OpAuXOxuIEK8TwIksJtAU9Pye7H43UGmaf5q90WekMAeAsqZ17I1nWGEv2KacdWyXrBHHZ45Q0BehV6Cd51Jm6mSQH4RGDly0q1wHD4Np0Rth8rDQQJwfhY1N9ctd1BE3iStRrNhG8EvW1bySS8bteudfhbmrp8Vx5hQOPWvoPO8Htc3YXvXTfhdvY45/62GEWrDlskYoZfEDkOyBDssjER5OAG2jUHY0u3b4+PRDxXCuS8OrEHzu4aGupQr1fc2gI58bxo8JwESGJAAnPlfY/7SwRj6dM2AgRkgiAS0OPONjUufwyrRqoHJD6tE+7hcyH81NS37CypIjtiAdFHN8klNyxECTDTfCCiHqbx8+pexYYVymJz54eQbtCzswbNjZyQSviKLqIGNgmf5P7HA3F145l7iFwhwxI+BvvgTAtu7dqmtdhfCt67z7n/d1+Hk777W63T3Ne+eyDcHDRLXpqMfh9anQ4lhSIAE9iLQ1LTiu5iZwzloe1Hhl14EtAyzN4wDfwj/8r+99OCprQRkJ+ZVfqnb2bY14d2JoeJFR2c3DZ7kC4HGxhX/wjtTLTDGwyECePZfV1+/9H8OJZ+3yRpG0bfxTH8vbw30oWHIj2+tXl23PR3V6cinQ4lhSIAE9iOAobWfNwxx6343eIEEugm47sw3Nc3bgfmo56FCx0UZHSiFqnKBHhwPz6l0wGgmSQI2ETCMkZfj2bTRpuSYzN4E/t7YuPymvS/xWzoE1M5EeLZzJFs6sFwJIx9ubl7+13RF0ZFPlxTDkQAJ7EUAD34LPfOXo5cBvfM8SCAlAQ3O/PLVKJNXp9SGF3MgIBegcvG7HBJIK6p6rqQVkIFIwGcEuhsaQ3NRxtt9prqn1UXjyJaCAnkxnx3ZZxOmTP4fZn38LfsUGNMmAm9ghMTFmaRFRz4TWgxLAiSwHwGsZn8DXgCfw0u09wSl/cLxQmAJuO7Mw+G8GZW7JYElbrPh+G3/p7Cw+HM2J8vkSCBwBNSIFrRVfS1whjtkcHe9Q16wfn3dOw6JCEyyBxxQ8HkY+1JgDPacodIMhUIXqhESmahGRz4TWgxLAiSQksCGDXV/guN0Nl6q7GlISSjwF1135ouLSz6DMvlK4MnnCKD7N22cW18///0ck0orOufIp4WJgXxMACPZsL6MvMvHJnhGdSypcS1WqX/CMwr5WJFVq5a0YhX4c1E2O31shm9VR33lh42Nyx7P1IBuR17KRKYRGZ4ESIAEehNoaqpbGgqJ01Hx57ZUvcHwvIeAq87800/P3xYKhT+O8siemp4cyPAT7JJqzQGsh1GfYdSsg0Mmh9ZnTY8R/UJg3Ljiz6Pi/ohf9PWinnhW3N49ItCL2vlTp8bGuvXYyu2b/tTev1qjLD/6iU9M/kk2FnQ78pZozSYy45AACZBAbwLY83KVYciTcK2x93Wek8AuAq468w0ND72IHpsayG5jDmROANv1XIahwK5OUWCPfOb5xBj+IzB//vzYyJElahSba41k/qPUr8YL4fh8qd8QvJkVAYwYuQ31uD9kFZmRMiaABr1N2DbxvNra2q5N9DJNYFePvEVHPlNyDE8CJJCSAFaOfWHUqEPgzMvfpwzAi0En4Kozjx6bZ7H43RyUx1jQwWdmv/FdNWUmszi5h2aPfO4MmYI/CKxcOb8tHBbVeDa96A+NvaElnhFPHHGEvCBbx8cbVnhbizlzJn8F5XKBt7X0v3Zw4reEw8bHsW3i1myt6XbkBYfCZguQ8UiABPYnsHLlnzvgBHwZrbpYoVe4Mrd2fy14xcMELo1Ga251Sz848//AVokX0plPjzgqyjfqGrJqmlZWvRLpWdZ/KEwj0L5gJ2YWaNPBNAu0ye7JGYwC0aID3lNappiqRdrC4cIzIJ/refQUgn4+8Wx6JhIpPquurs71edwlJXrKpsLh9u9CNZIccYR6Z4qVSj4P+wmgLL8nZejj69cvfzWX1Hc58lylMBeIjEsCJJCaAObNPyBlQSUcqLWpQ/BqUAlgCPVXy8pqvuCW/aosohyeCXkcZt83dMxPl1di8SiN2/cZb/WtntN3zIxWC3ZGG6nNfjQiaJO9h6XUlAeWJrlCNDQs/m9RkXEKGHBK2p6CsN8ZHJ86DEE+za2FN/dVQI2ggA47973u0nfXy6dqLBkyRJ6Fd0KDSzYGRgzKUTvWIpipdrHI1egeR35TrgkxPgmQAAmkItDUtPQVLOzzIfR23YL7XMgqFSR7r7XYm5yTqZm/KS+f/iEnJfROW/XMY5j9qXiJcgG83mBwrnokQyHjUxhJc9M+t1z9Gg6bW1wV2EsY1lPQJrtHDejwRs+5u5/SHD58gnZHHuVQSx7ozvu1a5e/WVhY8lE8m7gCe+qCP2/kyMmzMARZlyPdpRV6xrX8PtHIpuV3sXp13XYhCqajXDalzhZezZQAWO7E35zGxhX/yjRuqvC75siLjalu8hoJkAAJ2EFALeyDvb2/aRjGyXiAcXEfO6Dukwa4tuPvB1if4HBUhm/e57Ynv6JSVGCa8jYM4+tpVHZcTzVnHnu1TuFQ1j2owWIHvp2F9S3m7bmq5ywSEa9BsqYGP2OzHqv3SEWF/X97vrl3hjLwxsqVtVqGl+9tpaUrD3TJ3W2+6mkeOfLg6biwcPdFnghM0bsJo4Q+5ZHyqeX3iaZWTXKF2LBhyVuYzvAR1C+eZHHMmcA2IUIfa2paviLnlHYlYHR9FhhP2ZUg0yEBEiCBvgjg4bUaK81Owov5y3gpcJu6vkBleB2V8CWhUOEHUdn5sVqfoLl5xbdwzSfOvFW2YMHq8zM0OafgajV7vEyrFLecEsqDyGDwXEFBaCLKzHIvmKN6gPBsWOO+LnLr2LGDtQ8hLSqSj8J2DQ0ZFkareOGQmvTwhv3dz++6c/AbuBq/TQ80rOgsE7IVjf8XYFrUleCh4TeRynZDS/nEMGwtcnsI7GpkUtu5Lu65xs+MCWyOREIfam5+6OmMY/YToduRv/bsl4UU2lp7+tGPt0iABPKMgFpEBS/m32Ou2wkY5nwnzPPIC9qPoOXLqOzNgBN2lppn2dsCfznz4rreurtxjr3R31XcwO+b+Iu7IdNrMlAp+1NxccnEdeuWPe8t3SzXK4soA0sxckjLQmu92ash1siX1b2vuXMuH3RHTv9SLKsAjWvS7QUPOwoLC/7ev2bu3VVOKxplbwyF5FRI1T5SwD3Le0uSDeFwqAqN//f2vqr7vKDAcv13gvLwztlnn6S9w1U1Mo0dW6wame7QnQ/+ky+fHzSocIoT79puR76LiHzMf2Cosa0Eap+L2JoeEyOBfgio7TYwzPlS9M6fgkr0un6C8tY+BPAiVcPor8Oqsif215PqH2feOr60dHp0HzNd+QpGtxhGGGs4iP+6ItAbQtSCfxfDWfjc00/Pb/eGSnu0CIXC2PbIXWcOv6f792ig+8xyVRfY/h4aVh/WbbWSr4bxom33STd1gf0P6Z57ncrehoa6VYMHD6rEs2lZqvv5eg11gj+MGnXwyd0jp7xlJXYZ+Dfy4zk3tYK8BV7Zak81duK9cRmezxglEcwG8MzzXi7FGlFT1q590JFGuT2OvLQWZq4cY+QVgcimkryyh8b4ggB655/B3wTDCKF3VD7jC6W1KSkx7Nj4mZRFR+Nl+qN0tuDxizOPyptaUV7L0dj40BopDyxF+ft5AConC9Ez8MENG1bcrQV2GkJVBR75MC+NoHYFecrOOYu5KoVREn9AWXw913QyiP8zLzmyeBf8IAPdcwwqTTxTf5hjIo5FX7NmUQue4WdCxwvhPL3pmCAPJIzf/Ea8B05DfeBLqvfXAyqlVAFru1yb8oYzFzFaJHK9M0lnn6paFBXPqI+gTOa0dVr2Gng/pqpL4Hf7LbCapUYAOqXxHkfeGFkHIVzJ1ynSfkg3FhruBzWpY/4RwAvBwjYcS+CcnoyFyKbhu9b5YF4jjBcCtp4xvltYWHwkFg28pqlpEb6nf/jBmUfl6LT0LbI/ZFPTvB0of98Jh2UFyl8erhwtX8Z802o48J9wqmfAzlwpKoqoyrIrlXnk+VV26p5rWmqUBB6Jrkw3QVl/rbi4+NZcdbYzPt4F/4SDsNTONPtKC8/Wv9ixBVRf6dt1Hc/9vw4ZIsYYhrgVeaZ9Cohddql0YA9W8RbXRCJHRuHEe350MJ6hi6CvrfOc++IJNrd69XmtOmHgqKoRI4Ffa2b//JOvgs2H8bt1fK2iPY587akJzJP31FyU/cHwirMEksc5mz5TJ4GBCTQ2LnscDtUZcFwn4hXv+hDbgTV0M4R6GcivoYfuaExDuCGX/XO97szDkT/CTbJ9yVJDJ1H+poL7Rfj7T1/h/HIdNryHP+xmcHCpl3qdB+KnKq/onbtmoHC53zduU0OYc0/H3hTGjCn5MyrIj9ib6r6pqekL1he8OL0C010uh7Yt+2ps8/fNGN10tc1pOpacWgiyqWnF5Zg7P8H5suGYGb0SVuVP3odpHePwfsKokNt9tFaJ8QUYoqYoOXjI54cOLfiJgwJyTrpnrRk0El+B94zWrQFzNsamBPDbvF81cKjFnW1Kst9k5F53axeeIJLm81h6ao+Dv1cAfslrAlJ+Q/z4E7/KaxtpnO8IRKOzxphm/FI8HM+3LOsw3xmQocKwEysVy3+gR+6uESNOesDuLXfKyqbfBKf5mxmq5UJw2YohaENdEJS2iKlTa8Pvvrvm/GTSgkNpjUs7ogcColL1DvbGvmXIEOt33XsBe0CpLFQoK6u+E7/7z2YRNZ0oj48addIZdv/G0hGcTpiyshnDLctEZdA6Pp3wmYZB5fsqVDZ/kWk8t8Ij7z8K2/+B51WB3TKV04He7Q81Ntattzttt9KLRmsmm6b1PTBS05L2rs+7pUQWcvCOUw77PSh/N2DLyxeySMITUVA+Z+PZpKYlO8F+WyQSmbxu3ZKXPGFsGkpUVc08MhZL/BpMZqcRPB+DvIQy/TW3G8z3L3zXLrhXWNZ5+UiYNg1AQMolcOTPGiAUb5OAFgJqr/GFC1dPRaXuIvx9ApUXTzl9NkBZg/rA3YZR9LdMh85nKturzvy4cSVhL6wcvi/P7rK35mxUmr+DcoeRIl4+5Kvoyb4FW8rd4aV5z9kSmzt3bmTjxtaF+M3PyDaNVPHgTKwbNGjQGWoOcqr7Xrm2qyETC9FZR9qpkxqirXp37UzTibTKy2suNk0TjTn2OfNw4jF1QXwSQ4NdGb7vBJfeaXYvFCq/i8bfOXZy6i3DjnMw32FZxl8KCsTP169f/qodaepOo7S05uv4bd6CP9s6QMHpfYxIxLzq5U/qti8b+aWlM2ZIad4Kh/4D2cT3YZwOPFNuOPxwcWM66xbZbV8KR35xmbCSjSiU+9+zWzrT8xqBdhEuHCVqZ3J4jNdyhvrsRWDq1E8XtbS8ORMX4dTL6Xhe+XXHBdWCq3om7nF7hV4POvPbMPdw5F4Z7cEv5eUzTzTNxCVQ7UJUVDwyQkS2ovL3ANaXuOv/t3f3MVJVZxzHz5mZZUF2WwRNdatVWwsaZd1FrQQTC6iNoMCyaxttSwxJTRtNa40kYuVlwNfat/SPvtmYGrWaWFhZqbrVFLCKhqwVgRJdtGIV0FiKKGuF3Zm5/Z3FZWCzwHRe753znYTMndm5Z87zOXcu97nn3HPXr1/5rA4qquqWju5EyrJl636s3/m8YmwSsnp02LCauVE50XH22TM/Z0yv6/mbVGj8ij2l7eMHSmJ/U2hZ5Vrf9cwrQV2m9j+u0O9U7NuUJLVoSPDfCy0rbOurR/Q49YheJSvtn8JywtFNJhis0v9xDwTBmHY3F0nY3Aqtj042XaFRWw/LvL7QsnQy//VYrGbGxo2PdxdeVuVKcMdou3a9P18nv2+US7V1ugzABtqf6FapsXnan7w58Ga5n4dO1hcsu1cVubbcleH7QiEw29x+Zdnv4RuKyKlEJAUaG+eMtHbnhUqqXG/9ZAVxvp4TYQxGO/3tqtcaPa/Rgc2z5U7eB5uEKZlXgrFZ10mePbiOYX3tksvly7umaru7Sr0PF2ubO7XMdVVPstuO7PKRI0euCON1zsX20FDiNg01/4msT8uvbLtTv72kerp+ld/6lVvLjUx49dWeRfqd3Kht7ph8aqJ1X1ZP/A0bNnQ+n8/6lVynqanl1HR63y8Ue77Ddt1B98PDh9t5XV1PVvXs766dxo+fcYYxfd/SPkInuk2z3OLlaz/bq23NTQb3pO5A8EfdFcT9v1fVjwkTLj+zry/jhpVfmk+g2jbdBIb3KSmcX8oZzvOpWyHr6Hc7Sr/b78vFjf4J/Yn6XGLd31aBroOP3xmGiTKHTuSTnaNN6mNdtxJUBXouDcNnPhWw9n4Nr5+LBwJRFRic2Ougv1mxDK9MPPZtHdA8px3/mkQisSaM17uFJZmXk+5a0BnZS3saG2couexTYm+n6KDlIm1vxZ68zyXuL7rerXg8tnr9+ic2aLuqqp73XH6jLqHt7u65LpMxP9Qxyim5rCMnzRdg7tWs3/dEeb4AF2tz88yGVKpvseK5OtceQMX/D207d+mg85GobzNNTZdPSqczSxX/FMV/1OHM2q9ozhHzF53wWhjl6+Fz2c4P9xmXTGmemYt0iYLuCNPvdqb8ag73+Tzed0OLX9HuaLXOF6yqqztmrQ8nFody0lB7JfLujhOBGz0zdI51yIp2n9w063vNok2bVr52yJ+q6MXkyV+v27Wr53vab98kmxOiGJp+O5rbwT5YU1NzV5iO5Q6/kS1qv8ZkMvdHEZs6FyJgPzD1iVPMzbP2FFIK6yIQFgElVfa882ae3NubGauT3mMzGatn82W9755P1QFNob33u3QQs0XlbFFv1xaV/3oi4Z7HvB6VYYRhSOZ1oH1dlIb7Hm373n/gsnesMelx+uw49SSP1aY4RgdtGn5p67W96Dmo1zaonjK7R6+1zw00RL5/WTPNm3/qvW5tS93xeKJbw8B3Hu07fft7U9P0Jh0Ytmj45gR5Neg33SC/hJ536HmH/DbH40HH7NkTX9AIikw1+UybNq122zbjThzpHuNuMrxA8Rt3gKxbedkdenbxr9UlBB1hOugsVhs0N087PpWymuQtuET/TpaD2t6MVswaddEf+7/0/HQ8XvvEK6+s2F2s762Gcj6dxPOL+p3075v0+xmnbaZBjtovWe2XjPZL/cvuBLi71FL7pUD7p4H9lH1b72m/ZLutreluaWl6u9p+X4qvoMe557ae2Nu7d6aMdcLJnCQ/+dpRMn5f26jbP23V9vnU6NF1nWvW/KnEs98XFEpRV94/5P49TRJodfmH+Zp8yjhSJL9Q1E6b1XYPJhI1D65f/7jbt4bqcfhE3lVzwfKHtNFpaA4PrwSsvV298gu9iplgvRRwBzQffrju2HQ6Uacei/pEIl6n/2R1MBPUGZPRckzPgYYJ2h7tzHUwE+vRtXB6jut1pqeuLvbR2rWPV8VJr0on87W1NacoWXUHiDwQQAABBBBAoIoF3Nwf1vZ+U0nyHB1zuZGToXnoeE8nXOwjug3mAxs3rnw5NBUboiJHTuSTq+tM+j8v6XZ07qwdD18E3L0gh5vTza1t7/oSMnEigIAxjY3TfqremZvKbaETJX/Tvdu/Wu7v5fsQQAABBBBAoLIC7u4cQZC6ZP8IhmCyajOmvDVy8zoE69RZs0qdOavGjPnKC2G9LelglyMn8u7T/feWD9bqlnQFzxY6+Mt5HWIBa+9Vr/x3Q1xDqoYAAiUQqETPvCZEukjX7z5XgnAoEgEEEEAAAQQiIqBk3jY3X35OOm2mamTkBUqs3aUfujQtGFGcENydFMxbKkt3BrAbYrFgteYwej4qdzEZbHD0RN6tsXC57psbrFLPvIaZ8vBEIG0SNRNNctZLnsRLmAgg8KlAOZN5/Qf9lHrjp4OPAAIIIIAAAggMFnDJvZvraN++tJL6/rkdTtJbbp6ZOiXl/fPNKCl38zu4OY96lPwfmNfBXRap9Xeqw2CL7grQ3dCQeqMS93sfHFOxXueWyLtvW/TYxbq//AqS+WLRR6Kc7WaEPZ8h9pFoKyqJQFEFyjHMXkn8v4cNS5zHtfFFbToKQwABBBBAAAEPBI56644DBktn/1VnO6Ya3bD5wHssVLvA583e4DGTXF2hW3dVOy/xIRBeAc0gP08zyf+sVDXUWfI+XY/WRhJfKmHKRQABBBBAAIFqFsg9kXcKt7V1mbi9UHdG1HUFPLwQCMwFmvDw917ESpAIIHCIgEvmdQL3jkPeLMoL26ty53JdfFEwKQQBBBBAAAEEPBTIfWj9wThuNvvUrt9ya7qDUap82ZqHTHzMtSY5ZW+VR0p4CCAwSKCxcfrVusbsvmJMNqOe+PdjMdO2YUPn84O+hpcIIIAAAggggAACOQrkl8gPFL6o/RqTCTT0MijzbQIGKsBzWQWsWWeG29lcM19Wdb4MgVAInHPOtOZMxvxayfzE/CtkV44YMez6rq6Od/IvgzURQAABBBBAAAEECkvknV+yc7RJ9dytYZLfUUJfeHm0SdgFtms2+xZmsw97M1E/BEojMH789FlK5pPa3zfl+A2BJrVbbUx8waZNf34xx3X4GAIIIIAAAggggMARBIqXeC9cMd6Y9I90cPcNzWz//117f4QK8qdQCqQ16eF9ZrhJ0jsfyvahUgiUXGDChJmnp1J9V6iX/mINl/+C9v0n6HYwo3RrGDch6ns6ufumljtra2NPdHU9qdc8EEAAAQQQQAABBIolULxEfqBGyfaxJp25Xsn81Xrr+IG3ea5CAWv/q6h+buoS95ibZ+2pwggJCQEEEEAAAQQQQAABBBAInUDxE/mBEH/3Uo3Z/tZlGm3fqp6aqUrs1WPDozoF7Ae6k0GHCYIOk6h92iRnuASfBwIIIIAAAggggAACCCCAQAkESpfID67sbY99yfRlJimhP0N/Gqd/pyvBP1aJfr2SwHolgYnBq/A6kgKfaNj9M6r5at2q8DVdF/uGGZb+wPSO22OSZ+mWUzwQQAABBBBAAAEEEEAAAQQKEShfIl9ILVk3K5DcPMwkXjvR7LMNxmYadB1qg8mYC40NpukkyWeyH/RsydrdOjG0Qx5b9dxpahMdZkELM2N7thkQLgIIIIAAAggggAACPgiQyFdLK7sEP/PqFCXzLQrJTTg4ulpCyzsOa9pNPHaLSbZuybsMVkQAAQQQQAABBBBAAAEEQiZAIh+yBilKde5+5rPm4z3zTZC5QeWNKEqZUS3E2pQu3bjDLGldoiH/QVTDoN4IIIAAAggggAACCCCAwIAAifyARDU+J5efZNLBEs1DMFfDzf1u6/7e+do5TMRXjRs6MSGAAAIIIIAAAggg4JeA38mdL229qH2Weucf0nD7Ol9CHjJOl8wvbbuSnvkhdXgTAQQQQAABBBBAAAEEIiIQi0g9qWYhAktbO4xJTFIC+1YhxUR+3cC0msXtiyMfBwEggAACCCCAAAIIIICA1wL0yPvU/MmVx5lU70oNs5/oU9iHxOqumY/bs5gA7xAVXiCAAAIIIIAAAggggECEBOiRj1BjFVzV5IydJjFshtc980GQMOnMXQVbUgACCCCAAAIIIIAAAgggUCEBeuQrBF/Rr124YrwxqRe8vmZ+eOIL3Ge+olshX44AAggggAACCCCAAAJ5CtAjnydcpFe7rWWTsbFvG+Px7dj2pWZFug2pPAIIIIAAAggggAACCHgrQCLva9O7CfBs8Adfw9dJjMv8jZ3IEUAAAQQQQAABBBBAIMoCJPJRbr1C6x63bgb3TwotJprrB6dFs97UGgEEEEAAAQQQQAABBHwXIJH3eQtItm3TEPtf+klgG/yMm6gRQAABBBBAAAEEEEAg6gIk8lFvwULrP7L+bmPNrkKLidz6QTAqcnWmwggggAACCCCAAAIIIICABEjkfd8M5l/6oQge9Z2B+BFAAAEEEEAAAQQQQACBqAiQyEelpUpZT2tWlLJ4ykYAAQQQQAABBBBAAAEEECieAIl88SyjW1LszNUaXv9RdAOg5ggggAACCCCAAAIIIICAPwIk8v609eEjTZ7VawL71OE/wF8QQAABBBBAAAEEEEAAAQTCIkAiH5aWqHQ9YmZtpavA9yOAAAIIIIAAAggggAACCBxdgET+6EZ+fCJjt/sRKFEigAACCCCAAAIIIIAAAtEWIJGPdvsVr/bWvFu8wigJAQQQQAABBBBAAAEEEECgVAIk8qWSjVq5tcGOqFWZ+iKAAAIIIIAAAggggAACPgqQyPvY6kPFnDqDHvmhXHgPAQQQQAABBBBAAAEEEAiZAIl8yBqkYtVxM9fzQAABBBBAAAEEEEAAAQQQCL0AiXzom4gKIoAAAggggAACCCCAAAIIIJAVIJHPWrCEAAIIIIAAAggggAACCCCAQOgFSORD30RUEAEEEEAAAQQQQAABBBBAAIGsAIl81oIlBBBAAAEEEEAAAQQQQAABBEIvQCIf+iaigggggAACCCCAAAIIIIAAAghkBUjksxYsIYAAAggggAACCCCAAAIIIBB6ARL50DcRFUQAAQQQQAABBBBAAAEEEEAgK0Ain7VgCQEEEEAAAQQQQAABBBBAAIHQC5DIh76JqCACCCCAAAIIIIAAAggggAACWQES+awFSwgggAACCCCAAAIIIIAAAgiEXoBEPvRNRAURQAABBBBAAAEEEEAAAQQQyAqQyGctWEIAAQQQQAABBBBAAAEEEEAg9AIk8qFvIiqIAAIIIIAAAggggAACCCCAQFaARD5rwRICCCCAAAIIIIAAAggggAACoRcgkQ99E1FBBBBAAAEEEEAAAQQQQAABBLICJPJZC5YQQAABBBBAAAEEEEAAAQQQCL0AiXzom4gKIoAAAggggAACCCCAAAIIIJAVIJHPWrCEAAIIIIAAAggggAACCCCAQOgFSORD30RUEAEEEEAAAQQQQAABBBBAAIGsAIl81oIlBBBAAAEEEEAAAQQQQAABBEIvQCIf+iaigggggAACCCCAAAIIIIAAAghkBUjksxYsIYAAAggggAACCCCAAAIIIBB6ARL50DcRFUQAAQQQQAABBBBAAAEEEEAgK0Ain7Vgydrd3iD4FKs3jUqgCCCAAAIIIIAAAgj4IUAi70c75xhlsCPHD1bBx3yKtQqaixAQQAABBBBAAAEEEEDggACJ/AEKFoyxW/1R8ClWf1qVSBFAAAEEEEAAAQQQ8EGARN6HVs45xqAz549G/oM+xRr5xiIABBBAAAEEEEAAAQQQOEiARP4gDO8XaxMd3hj4FKs3jUqgCCCAAAIIIIAAAgj4IUAi70c75xblgpZ3jDXtuX04wp9yMbpYeSCAAAIIIIAAAggggAACERQgkY9go5W0yvHYLcbaVEm/o5KFu9hcjDwQQAABBBBAAAEEEEAAgYgKkMhHtOFKVu1k6xb1yt9RsvIrXbCLzcXIAwEEEEAAAQQQQAABBBCIqICNaL2pdikFgsCaRcuXmcC0lvJryl62G1K/tO1KjTgIyv7dfCECCCCAAAIIIIAAAgggUCQBeuSLBFlVxbhEN147p6qul3dJfH9MJPFVta0SDAIIIIAAAggggAACHgrQI+9ho+ccsuuZX9y+WD3zt5ogSOS8Xpg+6K6Jd8Ppl7QuoSc+TA1DXRBAAAEEEEAAAQQQQCBfARL5fOV8Wm9Bxzhj++6M3FD7/l54TWzHNfE+ba3EigACCCCAAAIIIIBA1QuQyFd9ExcxwNtXnGz2pWYZYy8zJjhNzw3qqR9VxG/Ivyhrd6tOO1SnrXruNO4+8dxiLn9P1kQAAQQQQAABBBBAAAEEEEAAAQQQQAABBBBAAAEEEEAAgcIF/gcZJNzlIDLbVwAAAABJRU5ErkJggg==;" parent="1" vertex="1">
          <mxGeometry x="471.94" y="96" width="97.11" height="30" as="geometry" />
        </mxCell>
        <mxCell id="cJ-756JFJZ41Q-hjwV2Q-43" value="" style="endArrow=classic;html=1;rounded=0;strokeWidth=2;startArrow=none;startFill=0;" parent="1" edge="1">
          <mxGeometry width="50" height="50" relative="1" as="geometry">
            <mxPoint x="343.0000000000002" y="210" as="sourcePoint" />
            <mxPoint x="459" y="210.24" as="targetPoint" />
          </mxGeometry>
        </mxCell>
        <mxCell id="cJ-756JFJZ41Q-hjwV2Q-44" value="JSON-Based&lt;br&gt;Audit Logs" style="edgeLabel;html=1;align=center;verticalAlign=middle;resizable=0;points=[];fontSize=12;fontStyle=1;labelBackgroundColor=#F8F8F8;" parent="cJ-756JFJZ41Q-hjwV2Q-43" vertex="1" connectable="0">
          <mxGeometry x="-0.18" relative="1" as="geometry">
            <mxPoint x="10" as="offset" />
          </mxGeometry>
        </mxCell>
        <mxCell id="cJ-756JFJZ41Q-hjwV2Q-45" value="" style="endArrow=classic;html=1;rounded=0;strokeWidth=2;startArrow=classic;startFill=1;" parent="1" edge="1">
          <mxGeometry width="50" height="50" relative="1" as="geometry">
            <mxPoint x="579.0000000000002" y="147.57999999999998" as="sourcePoint" />
            <mxPoint x="695" y="147.82" as="targetPoint" />
          </mxGeometry>
        </mxCell>
        <mxCell id="cJ-756JFJZ41Q-hjwV2Q-46" value="API Calls" style="edgeLabel;html=1;align=center;verticalAlign=middle;resizable=0;points=[];fontSize=12;fontStyle=1;labelBackgroundColor=#F8F8F8;" parent="cJ-756JFJZ41Q-hjwV2Q-45" vertex="1" connectable="0">
          <mxGeometry x="-0.18" relative="1" as="geometry">
            <mxPoint x="10" as="offset" />
          </mxGeometry>
        </mxCell>
        <mxCell id="cJ-756JFJZ41Q-hjwV2Q-47" value="" style="endArrow=classic;html=1;rounded=0;strokeWidth=2;startArrow=none;startFill=0;" parent="1" edge="1">
          <mxGeometry width="50" height="50" relative="1" as="geometry">
            <mxPoint x="578" y="209.99999999999994" as="sourcePoint" />
            <mxPoint x="694" y="210.23999999999995" as="targetPoint" />
          </mxGeometry>
        </mxCell>
        <mxCell id="cJ-756JFJZ41Q-hjwV2Q-48" value="Event&lt;br&gt;Messages" style="edgeLabel;html=1;align=center;verticalAlign=middle;resizable=0;points=[];fontSize=12;fontStyle=1;labelBackgroundColor=#F8F8F8;" parent="cJ-756JFJZ41Q-hjwV2Q-47" vertex="1" connectable="0">
          <mxGeometry x="-0.18" relative="1" as="geometry">
            <mxPoint x="10" as="offset" />
          </mxGeometry>
        </mxCell>
        <UserObject label="" lucidchartObjectId="Tm5v0_rp26vK" id="cJ-756JFJZ41Q-hjwV2Q-24">
          <mxCell style="html=1;overflow=block;blockSpacing=1;whiteSpace=wrap;shape=image;fontSize=13;spacing=0;strokeColor=none;strokeOpacity=100;strokeWidth=0;image=https://images.lucid.app/images/54349dcf-24be-40f2-a7c8-a9dcedd8f278/content;imageAspect=0;" parent="1" vertex="1">
            <mxGeometry x="721" y="97.5" width="77" height="77" as="geometry" />
          </mxCell>
        </UserObject>
        <mxCell id="cJ-756JFJZ41Q-hjwV2Q-51" value="Varonis" style="text;html=1;strokeColor=none;fillColor=none;align=center;verticalAlign=middle;whiteSpace=wrap;rounded=0;strokeWidth=2;fontSize=12;fontStyle=1;fontColor=#990000;" parent="1" vertex="1">
          <mxGeometry x="690" y="243" width="137" height="30" as="geometry" />
        </mxCell>
        <mxCell id="cJ-756JFJZ41Q-hjwV2Q-52" value="" style="endArrow=classic;html=1;rounded=0;strokeWidth=2;startArrow=classic;startFill=1;" parent="1" edge="1">
          <mxGeometry width="50" height="50" relative="1" as="geometry">
            <mxPoint x="343.0000000000002" y="51.999999999999986" as="sourcePoint" />
            <mxPoint x="692" y="52" as="targetPoint" />
          </mxGeometry>
        </mxCell>
        <mxCell id="cJ-756JFJZ41Q-hjwV2Q-53" value="API Calls&lt;br&gt;Metadata and Data Crawling" style="edgeLabel;html=1;align=center;verticalAlign=middle;resizable=0;points=[];fontSize=12;fontStyle=1;labelBackgroundColor=#F8F8F8;" parent="cJ-756JFJZ41Q-hjwV2Q-52" vertex="1" connectable="0">
          <mxGeometry x="-0.18" relative="1" as="geometry">
            <mxPoint x="33" as="offset" />
          </mxGeometry>
        </mxCell>
        <mxCell id="nubfaejIt5fdmvec-X7_-3" value="On-Premises or Public Cloud" style="text;html=1;strokeColor=none;fillColor=none;align=center;verticalAlign=middle;whiteSpace=wrap;rounded=0;strokeWidth=2;fontSize=12;fontStyle=1;fontColor=#000000;" parent="1" vertex="1">
          <mxGeometry x="1" y="307" width="861" height="30" as="geometry" />
        </mxCell>
        <mxCell id="nubfaejIt5fdmvec-X7_-7" value="" style="rounded=1;whiteSpace=wrap;html=1;fillColor=none;strokeWidth=2;arcSize=8;" parent="1" vertex="1">
          <mxGeometry x="902" y="1" width="210" height="305" as="geometry" />
        </mxCell>
        <mxCell id="nubfaejIt5fdmvec-X7_-8" value="" style="rounded=0;whiteSpace=wrap;html=1;strokeWidth=2;strokeColor=#01bef2;fillColor=#CCE5FF;" parent="1" vertex="1">
          <mxGeometry x="944" y="37" width="129" height="200" as="geometry" />
        </mxCell>
        <UserObject label="" lucidchartObjectId="Tm5v0_rp26vK" id="nubfaejIt5fdmvec-X7_-9">
          <mxCell style="html=1;overflow=block;blockSpacing=1;whiteSpace=wrap;shape=image;fontSize=13;spacing=0;strokeColor=none;strokeOpacity=100;strokeWidth=0;image=https://images.lucid.app/images/54349dcf-24be-40f2-a7c8-a9dcedd8f278/content;imageAspect=0;" parent="1" vertex="1">
            <mxGeometry x="971" y="97.5" width="77" height="77" as="geometry" />
          </mxCell>
        </UserObject>
        <mxCell id="nubfaejIt5fdmvec-X7_-10" value="Varonis SaaS" style="text;html=1;strokeColor=none;fillColor=none;align=center;verticalAlign=middle;whiteSpace=wrap;rounded=0;strokeWidth=2;fontSize=12;fontStyle=1;fontColor=#01bef2;" parent="1" vertex="1">
          <mxGeometry x="940" y="243" width="137" height="30" as="geometry" />
        </mxCell>
        <mxCell id="nubfaejIt5fdmvec-X7_-1" value="" style="verticalLabelPosition=bottom;html=1;verticalAlign=top;align=center;strokeColor=none;fillColor=#00BEF2;shape=mxgraph.azure.cloud;" parent="1" vertex="1">
          <mxGeometry x="872" y="261" width="92.31" height="60" as="geometry" />
        </mxCell>
        <mxCell id="nubfaejIt5fdmvec-X7_-11" value="Azure" style="text;html=1;strokeColor=none;fillColor=none;align=center;verticalAlign=middle;whiteSpace=wrap;rounded=0;strokeWidth=2;fontSize=12;fontStyle=1;fontColor=#FFFFFF;" parent="1" vertex="1">
          <mxGeometry x="873.16" y="276" width="90" height="45" as="geometry" />
        </mxCell>
        <mxCell id="nubfaejIt5fdmvec-X7_-14" value="" style="rounded=0;whiteSpace=wrap;html=1;fillColor=#F8F8F8;strokeColor=none;" parent="1" vertex="1">
          <mxGeometry x="852" y="127" width="66" height="20" as="geometry" />
        </mxCell>
        <mxCell id="nubfaejIt5fdmvec-X7_-12" value="" style="endArrow=classic;html=1;rounded=0;strokeWidth=2;startArrow=none;startFill=0;exitX=1;exitY=0.5;exitDx=0;exitDy=0;entryX=0;entryY=0.5;entryDx=0;entryDy=0;" parent="1" source="cJ-756JFJZ41Q-hjwV2Q-50" target="nubfaejIt5fdmvec-X7_-8" edge="1">
          <mxGeometry width="50" height="50" relative="1" as="geometry">
            <mxPoint x="847.1600000000002" y="216" as="sourcePoint" />
            <mxPoint x="963.16" y="216.24" as="targetPoint" />
          </mxGeometry>
        </mxCell>
      </root>
    </mxGraphModel>
  </diagram>
</mxfile>
